G04*
G04 #@! TF.GenerationSoftware,Altium Limited,Altium Designer,18.1.5 (160)*
G04*
G04 Layer_Color=65535*
%FSLAX25Y25*%
%MOIN*%
G70*
G01*
G75*
%ADD10C,0.00394*%
%ADD11C,0.00500*%
D10*
X419397Y806650D02*
X419497Y806750D01*
Y806850D02*
Y811450D01*
X414897Y806650D02*
X419397D01*
X509385D02*
X513885D01*
X513985Y806850D02*
Y811450D01*
X513885Y806650D02*
X513985Y806750D01*
X608373Y806650D02*
X608473Y806750D01*
Y806850D02*
Y811450D01*
X603873Y806650D02*
X608373D01*
X698361D02*
X702861D01*
X702961Y806850D02*
Y811450D01*
X702861Y806650D02*
X702961Y806750D01*
X797350Y806650D02*
X797450Y806750D01*
Y806850D02*
Y811450D01*
X792850Y806650D02*
X797350D01*
X320409D02*
X324909D01*
X325009Y806850D02*
Y811450D01*
X324909Y806650D02*
X325009Y806750D01*
X230420Y806650D02*
X230521Y806750D01*
Y806850D02*
Y811450D01*
X225921Y806650D02*
X230420D01*
X131432D02*
X135932D01*
X136032Y806850D02*
Y811450D01*
X135932Y806650D02*
X136032Y806750D01*
X419397Y145232D02*
X419497Y145332D01*
Y145432D02*
Y150032D01*
X414897Y145232D02*
X419397D01*
X509385D02*
X513885D01*
X513985Y145432D02*
Y150032D01*
X513885Y145232D02*
X513985Y145332D01*
X608373Y145232D02*
X608473Y145332D01*
Y145432D02*
Y150032D01*
X603873Y145232D02*
X608373D01*
X698361D02*
X702861D01*
X702961Y145432D02*
Y150032D01*
X702861Y145232D02*
X702961Y145332D01*
X797350Y145232D02*
X797450Y145332D01*
Y145432D02*
Y150032D01*
X792850Y145232D02*
X797350D01*
X320409D02*
X324909D01*
X325009Y145432D02*
Y150032D01*
X324909Y145232D02*
X325009Y145332D01*
X230420Y145232D02*
X230521Y145332D01*
Y145432D02*
Y150032D01*
X225921Y145232D02*
X230420D01*
X131432D02*
X135932D01*
X136032Y145432D02*
Y150032D01*
X135932Y145232D02*
X136032Y145332D01*
X419397Y239721D02*
X419497Y239821D01*
Y239920D02*
Y244520D01*
X414897Y239721D02*
X419397D01*
X509385D02*
X513885D01*
X513985Y239920D02*
Y244520D01*
X513885Y239721D02*
X513985Y239821D01*
X608373Y239721D02*
X608473Y239821D01*
Y239920D02*
Y244520D01*
X603873Y239721D02*
X608373D01*
X698361D02*
X702861D01*
X702961Y239920D02*
Y244520D01*
X702861Y239721D02*
X702961Y239821D01*
X797350Y239721D02*
X797450Y239821D01*
Y239920D02*
Y244520D01*
X792850Y239721D02*
X797350D01*
X320409D02*
X324909D01*
X325009Y239920D02*
Y244520D01*
X324909Y239721D02*
X325009Y239821D01*
X230420Y239721D02*
X230521Y239821D01*
Y239920D02*
Y244520D01*
X225921Y239721D02*
X230420D01*
X131432D02*
X135932D01*
X136032Y239920D02*
Y244520D01*
X135932Y239721D02*
X136032Y239821D01*
X419397Y334209D02*
X419497Y334309D01*
Y334409D02*
Y339009D01*
X414897Y334209D02*
X419397D01*
X509385D02*
X513885D01*
X513985Y334409D02*
Y339009D01*
X513885Y334209D02*
X513985Y334309D01*
X608373Y334209D02*
X608473Y334309D01*
Y334409D02*
Y339009D01*
X603873Y334209D02*
X608373D01*
X698361D02*
X702861D01*
X702961Y334409D02*
Y339009D01*
X702861Y334209D02*
X702961Y334309D01*
X797350Y334209D02*
X797450Y334309D01*
Y334409D02*
Y339009D01*
X792850Y334209D02*
X797350D01*
X320409D02*
X324909D01*
X325009Y334409D02*
Y339009D01*
X324909Y334209D02*
X325009Y334309D01*
X230420Y334209D02*
X230521Y334309D01*
Y334409D02*
Y339009D01*
X225921Y334209D02*
X230420D01*
X131432D02*
X135932D01*
X136032Y334409D02*
Y339009D01*
X135932Y334209D02*
X136032Y334309D01*
X419397Y712161D02*
X419497Y712261D01*
Y712361D02*
Y716961D01*
X414897Y712161D02*
X419397D01*
X509385D02*
X513885D01*
X513985Y712361D02*
Y716961D01*
X513885Y712161D02*
X513985Y712261D01*
X608373Y712161D02*
X608473Y712261D01*
Y712361D02*
Y716961D01*
X603873Y712161D02*
X608373D01*
X698361D02*
X702861D01*
X702961Y712361D02*
Y716961D01*
X702861Y712161D02*
X702961Y712261D01*
X797350Y712161D02*
X797450Y712261D01*
Y712361D02*
Y716961D01*
X792850Y712161D02*
X797350D01*
X320409D02*
X324909D01*
X325009Y712361D02*
Y716961D01*
X324909Y712161D02*
X325009Y712261D01*
X230420Y712161D02*
X230521Y712261D01*
Y712361D02*
Y716961D01*
X225921Y712161D02*
X230420D01*
X131432D02*
X135932D01*
X136032Y712361D02*
Y716961D01*
X135932Y712161D02*
X136032Y712261D01*
X419397Y617673D02*
X419497Y617773D01*
Y617873D02*
Y622473D01*
X414897Y617673D02*
X419397D01*
X509385D02*
X513885D01*
X513985Y617873D02*
Y622473D01*
X513885Y617673D02*
X513985Y617773D01*
X608373Y617673D02*
X608473Y617773D01*
Y617873D02*
Y622473D01*
X603873Y617673D02*
X608373D01*
X698361D02*
X702861D01*
X702961Y617873D02*
Y622473D01*
X702861Y617673D02*
X702961Y617773D01*
X797350Y617673D02*
X797450Y617773D01*
Y617873D02*
Y622473D01*
X792850Y617673D02*
X797350D01*
X320409D02*
X324909D01*
X325009Y617873D02*
Y622473D01*
X324909Y617673D02*
X325009Y617773D01*
X230420Y617673D02*
X230521Y617773D01*
Y617873D02*
Y622473D01*
X225921Y617673D02*
X230420D01*
X131432D02*
X135932D01*
X136032Y617873D02*
Y622473D01*
X135932Y617673D02*
X136032Y617773D01*
X419397Y523185D02*
X419497Y523285D01*
Y523385D02*
Y527985D01*
X414897Y523185D02*
X419397D01*
X509385D02*
X513885D01*
X513985Y523385D02*
Y527985D01*
X513885Y523185D02*
X513985Y523285D01*
X608373Y523185D02*
X608473Y523285D01*
Y523385D02*
Y527985D01*
X603873Y523185D02*
X608373D01*
X698361D02*
X702861D01*
X702961Y523385D02*
Y527985D01*
X702861Y523185D02*
X702961Y523285D01*
X797350Y523185D02*
X797450Y523285D01*
Y523385D02*
Y527985D01*
X792850Y523185D02*
X797350D01*
X320409D02*
X324909D01*
X325009Y523385D02*
Y527985D01*
X324909Y523185D02*
X325009Y523285D01*
X230420Y523185D02*
X230521Y523285D01*
Y523385D02*
Y527985D01*
X225921Y523185D02*
X230420D01*
X131432D02*
X135932D01*
X136032Y523385D02*
Y527985D01*
X135932Y523185D02*
X136032Y523285D01*
X135932Y428697D02*
X136032Y428797D01*
Y428897D02*
Y433497D01*
X131432Y428697D02*
X135932D01*
X225921D02*
X230420D01*
X230521Y428897D02*
Y433497D01*
X230420Y428697D02*
X230521Y428797D01*
X324909Y428697D02*
X325009Y428797D01*
Y428897D02*
Y433497D01*
X320409Y428697D02*
X324909D01*
X792850D02*
X797350D01*
X797450Y428897D02*
Y433497D01*
X797350Y428697D02*
X797450Y428797D01*
X702861Y428697D02*
X702961Y428797D01*
Y428897D02*
Y433497D01*
X698361Y428697D02*
X702861D01*
X603873D02*
X608373D01*
X608473Y428897D02*
Y433497D01*
X608373Y428697D02*
X608473Y428797D01*
X513885Y428697D02*
X513985Y428797D01*
Y428897D02*
Y433497D01*
X509385Y428697D02*
X513885D01*
X414897D02*
X419397D01*
X419497Y428897D02*
Y433497D01*
X419397Y428697D02*
X419497Y428797D01*
D11*
X458400Y493200D02*
Y496199D01*
X459400Y495199D01*
X460399Y496199D01*
Y493200D01*
X461899Y495199D02*
X462898D01*
X463398Y494699D01*
Y493200D01*
X461899D01*
X461399Y493700D01*
X461899Y494200D01*
X463398D01*
X464898Y495699D02*
Y495199D01*
X464398D01*
X465398D01*
X464898D01*
Y493700D01*
X465398Y493200D01*
X466897Y495199D02*
Y493200D01*
Y494200D01*
X467397Y494699D01*
X467897Y495199D01*
X468397D01*
X469896Y493200D02*
X470896D01*
X470396D01*
Y495199D01*
X469896D01*
X472396D02*
X474395Y493200D01*
X473395Y494200D01*
X474395Y495199D01*
X472396Y493200D01*
X478394Y496199D02*
Y493200D01*
Y494200D01*
X480393Y496199D01*
X478893Y494699D01*
X480393Y493200D01*
X482892D02*
X481892D01*
X481393Y493700D01*
Y494699D01*
X481892Y495199D01*
X482892D01*
X483392Y494699D01*
Y494200D01*
X481393D01*
X484392Y495199D02*
Y493700D01*
X484891Y493200D01*
X486391D01*
Y492700D01*
X485891Y492200D01*
X485391D01*
X486391Y493200D02*
Y495199D01*
X421699Y467399D02*
X421200Y467899D01*
X420200D01*
X419700Y467399D01*
Y466899D01*
X420200Y466399D01*
X421200D01*
X421699Y465900D01*
Y465400D01*
X421200Y464900D01*
X420200D01*
X419700Y465400D01*
X422699Y467899D02*
Y464900D01*
X423699Y465900D01*
X424698Y464900D01*
Y467899D01*
X425698Y467399D02*
X426198Y467899D01*
X427198D01*
X427697Y467399D01*
Y466899D01*
X427198Y466399D01*
X426698D01*
X427198D01*
X427697Y465900D01*
Y465400D01*
X427198Y464900D01*
X426198D01*
X425698Y465400D01*
X430696Y467899D02*
X429697Y467399D01*
X428697Y466399D01*
Y465400D01*
X429197Y464900D01*
X430197D01*
X430696Y465400D01*
Y465900D01*
X430197Y466399D01*
X428697D01*
X516199Y467399D02*
X515699Y467899D01*
X514700D01*
X514200Y467399D01*
Y466899D01*
X514700Y466399D01*
X515699D01*
X516199Y465900D01*
Y465400D01*
X515699Y464900D01*
X514700D01*
X514200Y465400D01*
X517199Y467899D02*
Y464900D01*
X518199Y465900D01*
X519198Y464900D01*
Y467899D01*
X520198Y467399D02*
X520698Y467899D01*
X521698D01*
X522197Y467399D01*
Y466899D01*
X521698Y466399D01*
X521198D01*
X521698D01*
X522197Y465900D01*
Y465400D01*
X521698Y464900D01*
X520698D01*
X520198Y465400D01*
X523197Y467899D02*
X525196D01*
Y467399D01*
X523197Y465400D01*
Y464900D01*
X610699Y467399D02*
X610199Y467899D01*
X609200D01*
X608700Y467399D01*
Y466899D01*
X609200Y466399D01*
X610199D01*
X610699Y465900D01*
Y465400D01*
X610199Y464900D01*
X609200D01*
X608700Y465400D01*
X611699Y467899D02*
Y464900D01*
X612699Y465900D01*
X613698Y464900D01*
Y467899D01*
X614698Y467399D02*
X615198Y467899D01*
X616198D01*
X616697Y467399D01*
Y466899D01*
X616198Y466399D01*
X615698D01*
X616198D01*
X616697Y465900D01*
Y465400D01*
X616198Y464900D01*
X615198D01*
X614698Y465400D01*
X617697Y467399D02*
X618197Y467899D01*
X619197D01*
X619696Y467399D01*
Y466899D01*
X619197Y466399D01*
X619696Y465900D01*
Y465400D01*
X619197Y464900D01*
X618197D01*
X617697Y465400D01*
Y465900D01*
X618197Y466399D01*
X617697Y466899D01*
Y467399D01*
X618197Y466399D02*
X619197D01*
X705199Y467399D02*
X704700Y467899D01*
X703700D01*
X703200Y467399D01*
Y466899D01*
X703700Y466399D01*
X704700D01*
X705199Y465900D01*
Y465400D01*
X704700Y464900D01*
X703700D01*
X703200Y465400D01*
X706199Y467899D02*
Y464900D01*
X707199Y465900D01*
X708198Y464900D01*
Y467899D01*
X709198Y467399D02*
X709698Y467899D01*
X710698D01*
X711197Y467399D01*
Y466899D01*
X710698Y466399D01*
X710198D01*
X710698D01*
X711197Y465900D01*
Y465400D01*
X710698Y464900D01*
X709698D01*
X709198Y465400D01*
X712197D02*
X712697Y464900D01*
X713697D01*
X714196Y465400D01*
Y467399D01*
X713697Y467899D01*
X712697D01*
X712197Y467399D01*
Y466899D01*
X712697Y466399D01*
X714196D01*
X799699Y467399D02*
X799199Y467899D01*
X798200D01*
X797700Y467399D01*
Y466899D01*
X798200Y466399D01*
X799199D01*
X799699Y465900D01*
Y465400D01*
X799199Y464900D01*
X798200D01*
X797700Y465400D01*
X800699Y467899D02*
Y464900D01*
X801699Y465900D01*
X802698Y464900D01*
Y467899D01*
X805198Y464900D02*
Y467899D01*
X803698Y466399D01*
X805697D01*
X806697Y467399D02*
X807197Y467899D01*
X808197D01*
X808696Y467399D01*
Y465400D01*
X808197Y464900D01*
X807197D01*
X806697Y465400D01*
Y467399D01*
X327199D02*
X326699Y467899D01*
X325700D01*
X325200Y467399D01*
Y466899D01*
X325700Y466399D01*
X326699D01*
X327199Y465900D01*
Y465400D01*
X326699Y464900D01*
X325700D01*
X325200Y465400D01*
X328199Y467899D02*
Y464900D01*
X329199Y465900D01*
X330198Y464900D01*
Y467899D01*
X331198Y467399D02*
X331698Y467899D01*
X332698D01*
X333197Y467399D01*
Y466899D01*
X332698Y466399D01*
X332198D01*
X332698D01*
X333197Y465900D01*
Y465400D01*
X332698Y464900D01*
X331698D01*
X331198Y465400D01*
X336196Y467899D02*
X334197D01*
Y466399D01*
X335197Y466899D01*
X335697D01*
X336196Y466399D01*
Y465400D01*
X335697Y464900D01*
X334697D01*
X334197Y465400D01*
X232799Y467399D02*
X232299Y467899D01*
X231300D01*
X230800Y467399D01*
Y466899D01*
X231300Y466399D01*
X232299D01*
X232799Y465900D01*
Y465400D01*
X232299Y464900D01*
X231300D01*
X230800Y465400D01*
X233799Y467899D02*
Y464900D01*
X234799Y465900D01*
X235798Y464900D01*
Y467899D01*
X236798Y467399D02*
X237298Y467899D01*
X238298D01*
X238797Y467399D01*
Y466899D01*
X238298Y466399D01*
X237798D01*
X238298D01*
X238797Y465900D01*
Y465400D01*
X238298Y464900D01*
X237298D01*
X236798Y465400D01*
X241297Y464900D02*
Y467899D01*
X239797Y466399D01*
X241796D01*
X138299Y467399D02*
X137800Y467899D01*
X136800D01*
X136300Y467399D01*
Y466899D01*
X136800Y466399D01*
X137800D01*
X138299Y465900D01*
Y465400D01*
X137800Y464900D01*
X136800D01*
X136300Y465400D01*
X139299Y467899D02*
Y464900D01*
X140299Y465900D01*
X141298Y464900D01*
Y467899D01*
X142298Y467399D02*
X142798Y467899D01*
X143798D01*
X144297Y467399D01*
Y466899D01*
X143798Y466399D01*
X143298D01*
X143798D01*
X144297Y465900D01*
Y465400D01*
X143798Y464900D01*
X142798D01*
X142298Y465400D01*
X145297Y467399D02*
X145797Y467899D01*
X146797D01*
X147296Y467399D01*
Y466899D01*
X146797Y466399D01*
X146297D01*
X146797D01*
X147296Y465900D01*
Y465400D01*
X146797Y464900D01*
X145797D01*
X145297Y465400D01*
X138299Y561899D02*
X137800Y562399D01*
X136800D01*
X136300Y561899D01*
Y561399D01*
X136800Y560899D01*
X137800D01*
X138299Y560400D01*
Y559900D01*
X137800Y559400D01*
X136800D01*
X136300Y559900D01*
X139299Y562399D02*
Y559400D01*
X140299Y560400D01*
X141298Y559400D01*
Y562399D01*
X144297Y559400D02*
X142298D01*
X144297Y561399D01*
Y561899D01*
X143798Y562399D01*
X142798D01*
X142298Y561899D01*
X147296Y562399D02*
X145297D01*
Y560899D01*
X146297Y561399D01*
X146797D01*
X147296Y560899D01*
Y559900D01*
X146797Y559400D01*
X145797D01*
X145297Y559900D01*
X232799Y561899D02*
X232299Y562399D01*
X231300D01*
X230800Y561899D01*
Y561399D01*
X231300Y560899D01*
X232299D01*
X232799Y560400D01*
Y559900D01*
X232299Y559400D01*
X231300D01*
X230800Y559900D01*
X233799Y562399D02*
Y559400D01*
X234799Y560400D01*
X235798Y559400D01*
Y562399D01*
X238797Y559400D02*
X236798D01*
X238797Y561399D01*
Y561899D01*
X238298Y562399D01*
X237298D01*
X236798Y561899D01*
X241796Y562399D02*
X240797Y561899D01*
X239797Y560899D01*
Y559900D01*
X240297Y559400D01*
X241297D01*
X241796Y559900D01*
Y560400D01*
X241297Y560899D01*
X239797D01*
X327199Y561899D02*
X326699Y562399D01*
X325700D01*
X325200Y561899D01*
Y561399D01*
X325700Y560899D01*
X326699D01*
X327199Y560400D01*
Y559900D01*
X326699Y559400D01*
X325700D01*
X325200Y559900D01*
X328199Y562399D02*
Y559400D01*
X329199Y560400D01*
X330198Y559400D01*
Y562399D01*
X333197Y559400D02*
X331198D01*
X333197Y561399D01*
Y561899D01*
X332698Y562399D01*
X331698D01*
X331198Y561899D01*
X334197Y562399D02*
X336196D01*
Y561899D01*
X334197Y559900D01*
Y559400D01*
X799699Y561899D02*
X799199Y562399D01*
X798200D01*
X797700Y561899D01*
Y561399D01*
X798200Y560899D01*
X799199D01*
X799699Y560400D01*
Y559900D01*
X799199Y559400D01*
X798200D01*
X797700Y559900D01*
X800699Y562399D02*
Y559400D01*
X801699Y560400D01*
X802698Y559400D01*
Y562399D01*
X803698Y561899D02*
X804198Y562399D01*
X805198D01*
X805697Y561899D01*
Y561399D01*
X805198Y560899D01*
X804698D01*
X805198D01*
X805697Y560400D01*
Y559900D01*
X805198Y559400D01*
X804198D01*
X803698Y559900D01*
X808696Y559400D02*
X806697D01*
X808696Y561399D01*
Y561899D01*
X808197Y562399D01*
X807197D01*
X806697Y561899D01*
X705699D02*
X705199Y562399D01*
X704200D01*
X703700Y561899D01*
Y561399D01*
X704200Y560899D01*
X705199D01*
X705699Y560400D01*
Y559900D01*
X705199Y559400D01*
X704200D01*
X703700Y559900D01*
X706699Y562399D02*
Y559400D01*
X707699Y560400D01*
X708698Y559400D01*
Y562399D01*
X709698Y561899D02*
X710198Y562399D01*
X711198D01*
X711697Y561899D01*
Y561399D01*
X711198Y560899D01*
X710698D01*
X711198D01*
X711697Y560400D01*
Y559900D01*
X711198Y559400D01*
X710198D01*
X709698Y559900D01*
X712697Y559400D02*
X713697D01*
X713197D01*
Y562399D01*
X712697Y561899D01*
X610699D02*
X610199Y562399D01*
X609200D01*
X608700Y561899D01*
Y561399D01*
X609200Y560899D01*
X610199D01*
X610699Y560400D01*
Y559900D01*
X610199Y559400D01*
X609200D01*
X608700Y559900D01*
X611699Y562399D02*
Y559400D01*
X612699Y560400D01*
X613698Y559400D01*
Y562399D01*
X614698Y561899D02*
X615198Y562399D01*
X616198D01*
X616697Y561899D01*
Y561399D01*
X616198Y560899D01*
X615698D01*
X616198D01*
X616697Y560400D01*
Y559900D01*
X616198Y559400D01*
X615198D01*
X614698Y559900D01*
X617697Y561899D02*
X618197Y562399D01*
X619197D01*
X619696Y561899D01*
Y559900D01*
X619197Y559400D01*
X618197D01*
X617697Y559900D01*
Y561899D01*
X516199D02*
X515699Y562399D01*
X514700D01*
X514200Y561899D01*
Y561399D01*
X514700Y560899D01*
X515699D01*
X516199Y560400D01*
Y559900D01*
X515699Y559400D01*
X514700D01*
X514200Y559900D01*
X517199Y562399D02*
Y559400D01*
X518199Y560400D01*
X519198Y559400D01*
Y562399D01*
X522197Y559400D02*
X520198D01*
X522197Y561399D01*
Y561899D01*
X521698Y562399D01*
X520698D01*
X520198Y561899D01*
X523197Y559900D02*
X523697Y559400D01*
X524697D01*
X525196Y559900D01*
Y561899D01*
X524697Y562399D01*
X523697D01*
X523197Y561899D01*
Y561399D01*
X523697Y560899D01*
X525196D01*
X422199Y561799D02*
X421699Y562299D01*
X420700D01*
X420200Y561799D01*
Y561299D01*
X420700Y560800D01*
X421699D01*
X422199Y560300D01*
Y559800D01*
X421699Y559300D01*
X420700D01*
X420200Y559800D01*
X423199Y562299D02*
Y559300D01*
X424199Y560300D01*
X425198Y559300D01*
Y562299D01*
X428197Y559300D02*
X426198D01*
X428197Y561299D01*
Y561799D01*
X427698Y562299D01*
X426698D01*
X426198Y561799D01*
X429197D02*
X429697Y562299D01*
X430697D01*
X431196Y561799D01*
Y561299D01*
X430697Y560800D01*
X431196Y560300D01*
Y559800D01*
X430697Y559300D01*
X429697D01*
X429197Y559800D01*
Y560300D01*
X429697Y560800D01*
X429197Y561299D01*
Y561799D01*
X429697Y560800D02*
X430697D01*
X138499Y656299D02*
X137999Y656799D01*
X137000D01*
X136500Y656299D01*
Y655799D01*
X137000Y655300D01*
X137999D01*
X138499Y654800D01*
Y654300D01*
X137999Y653800D01*
X137000D01*
X136500Y654300D01*
X139499Y656799D02*
Y653800D01*
X140499Y654800D01*
X141498Y653800D01*
Y656799D01*
X142498Y653800D02*
X143498D01*
X142998D01*
Y656799D01*
X142498Y656299D01*
X144997Y656799D02*
X146997D01*
Y656299D01*
X144997Y654300D01*
Y653800D01*
X232999Y656299D02*
X232500Y656799D01*
X231500D01*
X231000Y656299D01*
Y655799D01*
X231500Y655300D01*
X232500D01*
X232999Y654800D01*
Y654300D01*
X232500Y653800D01*
X231500D01*
X231000Y654300D01*
X233999Y656799D02*
Y653800D01*
X234999Y654800D01*
X235998Y653800D01*
Y656799D01*
X236998Y653800D02*
X237998D01*
X237498D01*
Y656799D01*
X236998Y656299D01*
X239497D02*
X239997Y656799D01*
X240997D01*
X241497Y656299D01*
Y655799D01*
X240997Y655300D01*
X241497Y654800D01*
Y654300D01*
X240997Y653800D01*
X239997D01*
X239497Y654300D01*
Y654800D01*
X239997Y655300D01*
X239497Y655799D01*
Y656299D01*
X239997Y655300D02*
X240997D01*
X327499Y656299D02*
X326999Y656799D01*
X326000D01*
X325500Y656299D01*
Y655799D01*
X326000Y655300D01*
X326999D01*
X327499Y654800D01*
Y654300D01*
X326999Y653800D01*
X326000D01*
X325500Y654300D01*
X328499Y656799D02*
Y653800D01*
X329499Y654800D01*
X330498Y653800D01*
Y656799D01*
X331498Y653800D02*
X332498D01*
X331998D01*
Y656799D01*
X331498Y656299D01*
X333997Y654300D02*
X334497Y653800D01*
X335497D01*
X335997Y654300D01*
Y656299D01*
X335497Y656799D01*
X334497D01*
X333997Y656299D01*
Y655799D01*
X334497Y655300D01*
X335997D01*
X799699Y656299D02*
X799199Y656799D01*
X798200D01*
X797700Y656299D01*
Y655799D01*
X798200Y655300D01*
X799199D01*
X799699Y654800D01*
Y654300D01*
X799199Y653800D01*
X798200D01*
X797700Y654300D01*
X800699Y656799D02*
Y653800D01*
X801699Y654800D01*
X802698Y653800D01*
Y656799D01*
X805697Y653800D02*
X803698D01*
X805697Y655799D01*
Y656299D01*
X805198Y656799D01*
X804198D01*
X803698Y656299D01*
X808197Y653800D02*
Y656799D01*
X806697Y655300D01*
X808696D01*
X705199Y656299D02*
X704700Y656799D01*
X703700D01*
X703200Y656299D01*
Y655799D01*
X703700Y655300D01*
X704700D01*
X705199Y654800D01*
Y654300D01*
X704700Y653800D01*
X703700D01*
X703200Y654300D01*
X706199Y656799D02*
Y653800D01*
X707199Y654800D01*
X708198Y653800D01*
Y656799D01*
X711197Y653800D02*
X709198D01*
X711197Y655799D01*
Y656299D01*
X710698Y656799D01*
X709698D01*
X709198Y656299D01*
X712197D02*
X712697Y656799D01*
X713697D01*
X714196Y656299D01*
Y655799D01*
X713697Y655300D01*
X713197D01*
X713697D01*
X714196Y654800D01*
Y654300D01*
X713697Y653800D01*
X712697D01*
X712197Y654300D01*
X610699Y656299D02*
X610199Y656799D01*
X609200D01*
X608700Y656299D01*
Y655799D01*
X609200Y655300D01*
X610199D01*
X610699Y654800D01*
Y654300D01*
X610199Y653800D01*
X609200D01*
X608700Y654300D01*
X611699Y656799D02*
Y653800D01*
X612699Y654800D01*
X613698Y653800D01*
Y656799D01*
X616697Y653800D02*
X614698D01*
X616697Y655799D01*
Y656299D01*
X616198Y656799D01*
X615198D01*
X614698Y656299D01*
X619696Y653800D02*
X617697D01*
X619696Y655799D01*
Y656299D01*
X619197Y656799D01*
X618197D01*
X617697Y656299D01*
X516699D02*
X516199Y656799D01*
X515200D01*
X514700Y656299D01*
Y655799D01*
X515200Y655300D01*
X516199D01*
X516699Y654800D01*
Y654300D01*
X516199Y653800D01*
X515200D01*
X514700Y654300D01*
X517699Y656799D02*
Y653800D01*
X518699Y654800D01*
X519698Y653800D01*
Y656799D01*
X522697Y653800D02*
X520698D01*
X522697Y655799D01*
Y656299D01*
X522198Y656799D01*
X521198D01*
X520698Y656299D01*
X523697Y653800D02*
X524697D01*
X524197D01*
Y656799D01*
X523697Y656299D01*
X421699D02*
X421200Y656799D01*
X420200D01*
X419700Y656299D01*
Y655799D01*
X420200Y655300D01*
X421200D01*
X421699Y654800D01*
Y654300D01*
X421200Y653800D01*
X420200D01*
X419700Y654300D01*
X422699Y656799D02*
Y653800D01*
X423699Y654800D01*
X424698Y653800D01*
Y656799D01*
X427697Y653800D02*
X425698D01*
X427697Y655799D01*
Y656299D01*
X427198Y656799D01*
X426198D01*
X425698Y656299D01*
X428697D02*
X429197Y656799D01*
X430197D01*
X430696Y656299D01*
Y654300D01*
X430197Y653800D01*
X429197D01*
X428697Y654300D01*
Y656299D01*
X139799Y750799D02*
X139299Y751299D01*
X138300D01*
X137800Y750799D01*
Y750299D01*
X138300Y749799D01*
X139299D01*
X139799Y749300D01*
Y748800D01*
X139299Y748300D01*
X138300D01*
X137800Y748800D01*
X140799Y751299D02*
Y748300D01*
X141799Y749300D01*
X142798Y748300D01*
Y751299D01*
X143798Y748800D02*
X144298Y748300D01*
X145298D01*
X145797Y748800D01*
Y750799D01*
X145298Y751299D01*
X144298D01*
X143798Y750799D01*
Y750299D01*
X144298Y749799D01*
X145797D01*
X232999Y750799D02*
X232500Y751299D01*
X231500D01*
X231000Y750799D01*
Y750299D01*
X231500Y749799D01*
X232500D01*
X232999Y749300D01*
Y748800D01*
X232500Y748300D01*
X231500D01*
X231000Y748800D01*
X233999Y751299D02*
Y748300D01*
X234999Y749300D01*
X235998Y748300D01*
Y751299D01*
X236998Y748300D02*
X237998D01*
X237498D01*
Y751299D01*
X236998Y750799D01*
X239497D02*
X239997Y751299D01*
X240997D01*
X241497Y750799D01*
Y748800D01*
X240997Y748300D01*
X239997D01*
X239497Y748800D01*
Y750799D01*
X327999D02*
X327500Y751299D01*
X326500D01*
X326000Y750799D01*
Y750299D01*
X326500Y749799D01*
X327500D01*
X327999Y749300D01*
Y748800D01*
X327500Y748300D01*
X326500D01*
X326000Y748800D01*
X328999Y751299D02*
Y748300D01*
X329999Y749300D01*
X330998Y748300D01*
Y751299D01*
X331998Y748300D02*
X332998D01*
X332498D01*
Y751299D01*
X331998Y750799D01*
X334497Y748300D02*
X335497D01*
X334997D01*
Y751299D01*
X334497Y750799D01*
X799899D02*
X799400Y751299D01*
X798400D01*
X797900Y750799D01*
Y750299D01*
X798400Y749799D01*
X799400D01*
X799899Y749300D01*
Y748800D01*
X799400Y748300D01*
X798400D01*
X797900Y748800D01*
X800899Y751299D02*
Y748300D01*
X801899Y749300D01*
X802898Y748300D01*
Y751299D01*
X803898Y748300D02*
X804898D01*
X804398D01*
Y751299D01*
X803898Y750799D01*
X808397Y751299D02*
X807397Y750799D01*
X806397Y749799D01*
Y748800D01*
X806897Y748300D01*
X807897D01*
X808397Y748800D01*
Y749300D01*
X807897Y749799D01*
X806397D01*
X705399Y750799D02*
X704900Y751299D01*
X703900D01*
X703400Y750799D01*
Y750299D01*
X703900Y749799D01*
X704900D01*
X705399Y749300D01*
Y748800D01*
X704900Y748300D01*
X703900D01*
X703400Y748800D01*
X706399Y751299D02*
Y748300D01*
X707399Y749300D01*
X708398Y748300D01*
Y751299D01*
X709398Y748300D02*
X710398D01*
X709898D01*
Y751299D01*
X709398Y750799D01*
X713897Y751299D02*
X711897D01*
Y749799D01*
X712897Y750299D01*
X713397D01*
X713897Y749799D01*
Y748800D01*
X713397Y748300D01*
X712397D01*
X711897Y748800D01*
X610999Y750799D02*
X610499Y751299D01*
X609500D01*
X609000Y750799D01*
Y750299D01*
X609500Y749799D01*
X610499D01*
X610999Y749300D01*
Y748800D01*
X610499Y748300D01*
X609500D01*
X609000Y748800D01*
X611999Y751299D02*
Y748300D01*
X612999Y749300D01*
X613998Y748300D01*
Y751299D01*
X614998Y748300D02*
X615998D01*
X615498D01*
Y751299D01*
X614998Y750799D01*
X618997Y748300D02*
Y751299D01*
X617497Y749799D01*
X619497D01*
X516499Y750799D02*
X516000Y751299D01*
X515000D01*
X514500Y750799D01*
Y750299D01*
X515000Y749799D01*
X516000D01*
X516499Y749300D01*
Y748800D01*
X516000Y748300D01*
X515000D01*
X514500Y748800D01*
X517499Y751299D02*
Y748300D01*
X518499Y749300D01*
X519498Y748300D01*
Y751299D01*
X520498Y748300D02*
X521498D01*
X520998D01*
Y751299D01*
X520498Y750799D01*
X522997D02*
X523497Y751299D01*
X524497D01*
X524997Y750799D01*
Y750299D01*
X524497Y749799D01*
X523997D01*
X524497D01*
X524997Y749300D01*
Y748800D01*
X524497Y748300D01*
X523497D01*
X522997Y748800D01*
X421999Y750799D02*
X421499Y751299D01*
X420500D01*
X420000Y750799D01*
Y750299D01*
X420500Y749799D01*
X421499D01*
X421999Y749300D01*
Y748800D01*
X421499Y748300D01*
X420500D01*
X420000Y748800D01*
X422999Y751299D02*
Y748300D01*
X423999Y749300D01*
X424998Y748300D01*
Y751299D01*
X425998Y748300D02*
X426998D01*
X426498D01*
Y751299D01*
X425998Y750799D01*
X430497Y748300D02*
X428497D01*
X430497Y750299D01*
Y750799D01*
X429997Y751299D01*
X428997D01*
X428497Y750799D01*
X138799Y372899D02*
X138300Y373399D01*
X137300D01*
X136800Y372899D01*
Y372399D01*
X137300Y371900D01*
X138300D01*
X138799Y371400D01*
Y370900D01*
X138300Y370400D01*
X137300D01*
X136800Y370900D01*
X139799Y373399D02*
Y370400D01*
X140799Y371400D01*
X141798Y370400D01*
Y373399D01*
X144298Y370400D02*
Y373399D01*
X142798Y371900D01*
X144797D01*
X145797Y370400D02*
X146797D01*
X146297D01*
Y373399D01*
X145797Y372899D01*
X232799D02*
X232299Y373399D01*
X231300D01*
X230800Y372899D01*
Y372399D01*
X231300Y371900D01*
X232299D01*
X232799Y371400D01*
Y370900D01*
X232299Y370400D01*
X231300D01*
X230800Y370900D01*
X233799Y373399D02*
Y370400D01*
X234799Y371400D01*
X235798Y370400D01*
Y373399D01*
X238298Y370400D02*
Y373399D01*
X236798Y371900D01*
X238797D01*
X241796Y370400D02*
X239797D01*
X241796Y372399D01*
Y372899D01*
X241297Y373399D01*
X240297D01*
X239797Y372899D01*
X327199D02*
X326699Y373399D01*
X325700D01*
X325200Y372899D01*
Y372399D01*
X325700Y371900D01*
X326699D01*
X327199Y371400D01*
Y370900D01*
X326699Y370400D01*
X325700D01*
X325200Y370900D01*
X328199Y373399D02*
Y370400D01*
X329199Y371400D01*
X330198Y370400D01*
Y373399D01*
X332698Y370400D02*
Y373399D01*
X331198Y371900D01*
X333197D01*
X334197Y372899D02*
X334697Y373399D01*
X335697D01*
X336196Y372899D01*
Y372399D01*
X335697Y371900D01*
X335197D01*
X335697D01*
X336196Y371400D01*
Y370900D01*
X335697Y370400D01*
X334697D01*
X334197Y370900D01*
X799699Y372899D02*
X799199Y373399D01*
X798200D01*
X797700Y372899D01*
Y372399D01*
X798200Y371900D01*
X799199D01*
X799699Y371400D01*
Y370900D01*
X799199Y370400D01*
X798200D01*
X797700Y370900D01*
X800699Y373399D02*
Y370400D01*
X801699Y371400D01*
X802698Y370400D01*
Y373399D01*
X805198Y370400D02*
Y373399D01*
X803698Y371900D01*
X805697D01*
X806697Y372899D02*
X807197Y373399D01*
X808197D01*
X808696Y372899D01*
Y372399D01*
X808197Y371900D01*
X808696Y371400D01*
Y370900D01*
X808197Y370400D01*
X807197D01*
X806697Y370900D01*
Y371400D01*
X807197Y371900D01*
X806697Y372399D01*
Y372899D01*
X807197Y371900D02*
X808197D01*
X705199Y372899D02*
X704700Y373399D01*
X703700D01*
X703200Y372899D01*
Y372399D01*
X703700Y371900D01*
X704700D01*
X705199Y371400D01*
Y370900D01*
X704700Y370400D01*
X703700D01*
X703200Y370900D01*
X706199Y373399D02*
Y370400D01*
X707199Y371400D01*
X708198Y370400D01*
Y373399D01*
X710698Y370400D02*
Y373399D01*
X709198Y371900D01*
X711197D01*
X712197Y373399D02*
X714196D01*
Y372899D01*
X712197Y370900D01*
Y370400D01*
X610699Y372899D02*
X610199Y373399D01*
X609200D01*
X608700Y372899D01*
Y372399D01*
X609200Y371900D01*
X610199D01*
X610699Y371400D01*
Y370900D01*
X610199Y370400D01*
X609200D01*
X608700Y370900D01*
X611699Y373399D02*
Y370400D01*
X612699Y371400D01*
X613698Y370400D01*
Y373399D01*
X616198Y370400D02*
Y373399D01*
X614698Y371900D01*
X616697D01*
X619696Y373399D02*
X618697Y372899D01*
X617697Y371900D01*
Y370900D01*
X618197Y370400D01*
X619197D01*
X619696Y370900D01*
Y371400D01*
X619197Y371900D01*
X617697D01*
X516199Y372899D02*
X515699Y373399D01*
X514700D01*
X514200Y372899D01*
Y372399D01*
X514700Y371900D01*
X515699D01*
X516199Y371400D01*
Y370900D01*
X515699Y370400D01*
X514700D01*
X514200Y370900D01*
X517199Y373399D02*
Y370400D01*
X518199Y371400D01*
X519198Y370400D01*
Y373399D01*
X521698Y370400D02*
Y373399D01*
X520198Y371900D01*
X522197D01*
X525196Y373399D02*
X523197D01*
Y371900D01*
X524197Y372399D01*
X524697D01*
X525196Y371900D01*
Y370900D01*
X524697Y370400D01*
X523697D01*
X523197Y370900D01*
X421699Y372899D02*
X421200Y373399D01*
X420200D01*
X419700Y372899D01*
Y372399D01*
X420200Y371900D01*
X421200D01*
X421699Y371400D01*
Y370900D01*
X421200Y370400D01*
X420200D01*
X419700Y370900D01*
X422699Y373399D02*
Y370400D01*
X423699Y371400D01*
X424698Y370400D01*
Y373399D01*
X427198Y370400D02*
Y373399D01*
X425698Y371900D01*
X427697D01*
X430197Y370400D02*
Y373399D01*
X428697Y371900D01*
X430696D01*
X138299Y278399D02*
X137800Y278899D01*
X136800D01*
X136300Y278399D01*
Y277899D01*
X136800Y277399D01*
X137800D01*
X138299Y276900D01*
Y276400D01*
X137800Y275900D01*
X136800D01*
X136300Y276400D01*
X139299Y278899D02*
Y275900D01*
X140299Y276900D01*
X141298Y275900D01*
Y278899D01*
X143798Y275900D02*
Y278899D01*
X142298Y277399D01*
X144297D01*
X145297Y276400D02*
X145797Y275900D01*
X146797D01*
X147296Y276400D01*
Y278399D01*
X146797Y278899D01*
X145797D01*
X145297Y278399D01*
Y277899D01*
X145797Y277399D01*
X147296D01*
X232799Y278399D02*
X232299Y278899D01*
X231300D01*
X230800Y278399D01*
Y277899D01*
X231300Y277399D01*
X232299D01*
X232799Y276900D01*
Y276400D01*
X232299Y275900D01*
X231300D01*
X230800Y276400D01*
X233799Y278899D02*
Y275900D01*
X234799Y276900D01*
X235798Y275900D01*
Y278899D01*
X238797D02*
X236798D01*
Y277399D01*
X237798Y277899D01*
X238298D01*
X238797Y277399D01*
Y276400D01*
X238298Y275900D01*
X237298D01*
X236798Y276400D01*
X239797Y278399D02*
X240297Y278899D01*
X241297D01*
X241796Y278399D01*
Y276400D01*
X241297Y275900D01*
X240297D01*
X239797Y276400D01*
Y278399D01*
X327699D02*
X327200Y278899D01*
X326200D01*
X325700Y278399D01*
Y277899D01*
X326200Y277399D01*
X327200D01*
X327699Y276900D01*
Y276400D01*
X327200Y275900D01*
X326200D01*
X325700Y276400D01*
X328699Y278899D02*
Y275900D01*
X329699Y276900D01*
X330698Y275900D01*
Y278899D01*
X333697D02*
X331698D01*
Y277399D01*
X332698Y277899D01*
X333198D01*
X333697Y277399D01*
Y276400D01*
X333198Y275900D01*
X332198D01*
X331698Y276400D01*
X334697Y275900D02*
X335697D01*
X335197D01*
Y278899D01*
X334697Y278399D01*
X799699D02*
X799199Y278899D01*
X798200D01*
X797700Y278399D01*
Y277899D01*
X798200Y277399D01*
X799199D01*
X799699Y276900D01*
Y276400D01*
X799199Y275900D01*
X798200D01*
X797700Y276400D01*
X800699Y278899D02*
Y275900D01*
X801699Y276900D01*
X802698Y275900D01*
Y278899D01*
X805697D02*
X803698D01*
Y277399D01*
X804698Y277899D01*
X805198D01*
X805697Y277399D01*
Y276400D01*
X805198Y275900D01*
X804198D01*
X803698Y276400D01*
X808696Y278899D02*
X807697Y278399D01*
X806697Y277399D01*
Y276400D01*
X807197Y275900D01*
X808197D01*
X808696Y276400D01*
Y276900D01*
X808197Y277399D01*
X806697D01*
X705199Y278399D02*
X704700Y278899D01*
X703700D01*
X703200Y278399D01*
Y277899D01*
X703700Y277399D01*
X704700D01*
X705199Y276900D01*
Y276400D01*
X704700Y275900D01*
X703700D01*
X703200Y276400D01*
X706199Y278899D02*
Y275900D01*
X707199Y276900D01*
X708198Y275900D01*
Y278899D01*
X711197D02*
X709198D01*
Y277399D01*
X710198Y277899D01*
X710698D01*
X711197Y277399D01*
Y276400D01*
X710698Y275900D01*
X709698D01*
X709198Y276400D01*
X714196Y278899D02*
X712197D01*
Y277399D01*
X713197Y277899D01*
X713697D01*
X714196Y277399D01*
Y276400D01*
X713697Y275900D01*
X712697D01*
X712197Y276400D01*
X610699Y278399D02*
X610199Y278899D01*
X609200D01*
X608700Y278399D01*
Y277899D01*
X609200Y277399D01*
X610199D01*
X610699Y276900D01*
Y276400D01*
X610199Y275900D01*
X609200D01*
X608700Y276400D01*
X611699Y278899D02*
Y275900D01*
X612699Y276900D01*
X613698Y275900D01*
Y278899D01*
X616697D02*
X614698D01*
Y277399D01*
X615698Y277899D01*
X616198D01*
X616697Y277399D01*
Y276400D01*
X616198Y275900D01*
X615198D01*
X614698Y276400D01*
X619197Y275900D02*
Y278899D01*
X617697Y277399D01*
X619696D01*
X516199Y278399D02*
X515699Y278899D01*
X514700D01*
X514200Y278399D01*
Y277899D01*
X514700Y277399D01*
X515699D01*
X516199Y276900D01*
Y276400D01*
X515699Y275900D01*
X514700D01*
X514200Y276400D01*
X517199Y278899D02*
Y275900D01*
X518199Y276900D01*
X519198Y275900D01*
Y278899D01*
X522197D02*
X520198D01*
Y277399D01*
X521198Y277899D01*
X521698D01*
X522197Y277399D01*
Y276400D01*
X521698Y275900D01*
X520698D01*
X520198Y276400D01*
X523197Y278399D02*
X523697Y278899D01*
X524697D01*
X525196Y278399D01*
Y277899D01*
X524697Y277399D01*
X524197D01*
X524697D01*
X525196Y276900D01*
Y276400D01*
X524697Y275900D01*
X523697D01*
X523197Y276400D01*
X421699Y278399D02*
X421200Y278899D01*
X420200D01*
X419700Y278399D01*
Y277899D01*
X420200Y277399D01*
X421200D01*
X421699Y276900D01*
Y276400D01*
X421200Y275900D01*
X420200D01*
X419700Y276400D01*
X422699Y278899D02*
Y275900D01*
X423699Y276900D01*
X424698Y275900D01*
Y278899D01*
X427697D02*
X425698D01*
Y277399D01*
X426698Y277899D01*
X427198D01*
X427697Y277399D01*
Y276400D01*
X427198Y275900D01*
X426198D01*
X425698Y276400D01*
X430696Y275900D02*
X428697D01*
X430696Y277899D01*
Y278399D01*
X430197Y278899D01*
X429197D01*
X428697Y278399D01*
X138299Y183899D02*
X137800Y184399D01*
X136800D01*
X136300Y183899D01*
Y183399D01*
X136800Y182899D01*
X137800D01*
X138299Y182400D01*
Y181900D01*
X137800Y181400D01*
X136800D01*
X136300Y181900D01*
X139299Y184399D02*
Y181400D01*
X140299Y182400D01*
X141298Y181400D01*
Y184399D01*
X144297D02*
X142298D01*
Y182899D01*
X143298Y183399D01*
X143798D01*
X144297Y182899D01*
Y181900D01*
X143798Y181400D01*
X142798D01*
X142298Y181900D01*
X145297Y184399D02*
X147296D01*
Y183899D01*
X145297Y181900D01*
Y181400D01*
X232799Y183899D02*
X232299Y184399D01*
X231300D01*
X230800Y183899D01*
Y183399D01*
X231300Y182899D01*
X232299D01*
X232799Y182400D01*
Y181900D01*
X232299Y181400D01*
X231300D01*
X230800Y181900D01*
X233799Y184399D02*
Y181400D01*
X234799Y182400D01*
X235798Y181400D01*
Y184399D01*
X238797D02*
X236798D01*
Y182899D01*
X237798Y183399D01*
X238298D01*
X238797Y182899D01*
Y181900D01*
X238298Y181400D01*
X237298D01*
X236798Y181900D01*
X239797Y183899D02*
X240297Y184399D01*
X241297D01*
X241796Y183899D01*
Y183399D01*
X241297Y182899D01*
X241796Y182400D01*
Y181900D01*
X241297Y181400D01*
X240297D01*
X239797Y181900D01*
Y182400D01*
X240297Y182899D01*
X239797Y183399D01*
Y183899D01*
X240297Y182899D02*
X241297D01*
X327199Y183899D02*
X326699Y184399D01*
X325700D01*
X325200Y183899D01*
Y183399D01*
X325700Y182899D01*
X326699D01*
X327199Y182400D01*
Y181900D01*
X326699Y181400D01*
X325700D01*
X325200Y181900D01*
X328199Y184399D02*
Y181400D01*
X329199Y182400D01*
X330198Y181400D01*
Y184399D01*
X333197D02*
X331198D01*
Y182899D01*
X332198Y183399D01*
X332698D01*
X333197Y182899D01*
Y181900D01*
X332698Y181400D01*
X331698D01*
X331198Y181900D01*
X334197D02*
X334697Y181400D01*
X335697D01*
X336196Y181900D01*
Y183899D01*
X335697Y184399D01*
X334697D01*
X334197Y183899D01*
Y183399D01*
X334697Y182899D01*
X336196D01*
X799699Y183899D02*
X799199Y184399D01*
X798200D01*
X797700Y183899D01*
Y183399D01*
X798200Y182899D01*
X799199D01*
X799699Y182400D01*
Y181900D01*
X799199Y181400D01*
X798200D01*
X797700Y181900D01*
X800699Y184399D02*
Y181400D01*
X801699Y182400D01*
X802698Y181400D01*
Y184399D01*
X805697D02*
X804698Y183899D01*
X803698Y182899D01*
Y181900D01*
X804198Y181400D01*
X805198D01*
X805697Y181900D01*
Y182400D01*
X805198Y182899D01*
X803698D01*
X808197Y181400D02*
Y184399D01*
X806697Y182899D01*
X808696D01*
X705199Y183899D02*
X704700Y184399D01*
X703700D01*
X703200Y183899D01*
Y183399D01*
X703700Y182899D01*
X704700D01*
X705199Y182400D01*
Y181900D01*
X704700Y181400D01*
X703700D01*
X703200Y181900D01*
X706199Y184399D02*
Y181400D01*
X707199Y182400D01*
X708198Y181400D01*
Y184399D01*
X711197D02*
X710198Y183899D01*
X709198Y182899D01*
Y181900D01*
X709698Y181400D01*
X710698D01*
X711197Y181900D01*
Y182400D01*
X710698Y182899D01*
X709198D01*
X712197Y183899D02*
X712697Y184399D01*
X713697D01*
X714196Y183899D01*
Y183399D01*
X713697Y182899D01*
X713197D01*
X713697D01*
X714196Y182400D01*
Y181900D01*
X713697Y181400D01*
X712697D01*
X712197Y181900D01*
X610699Y183899D02*
X610199Y184399D01*
X609200D01*
X608700Y183899D01*
Y183399D01*
X609200Y182899D01*
X610199D01*
X610699Y182400D01*
Y181900D01*
X610199Y181400D01*
X609200D01*
X608700Y181900D01*
X611699Y184399D02*
Y181400D01*
X612699Y182400D01*
X613698Y181400D01*
Y184399D01*
X616697D02*
X615698Y183899D01*
X614698Y182899D01*
Y181900D01*
X615198Y181400D01*
X616198D01*
X616697Y181900D01*
Y182400D01*
X616198Y182899D01*
X614698D01*
X619696Y181400D02*
X617697D01*
X619696Y183399D01*
Y183899D01*
X619197Y184399D01*
X618197D01*
X617697Y183899D01*
X516699D02*
X516199Y184399D01*
X515200D01*
X514700Y183899D01*
Y183399D01*
X515200Y182899D01*
X516199D01*
X516699Y182400D01*
Y181900D01*
X516199Y181400D01*
X515200D01*
X514700Y181900D01*
X517699Y184399D02*
Y181400D01*
X518699Y182400D01*
X519698Y181400D01*
Y184399D01*
X522697D02*
X521698Y183899D01*
X520698Y182899D01*
Y181900D01*
X521198Y181400D01*
X522198D01*
X522697Y181900D01*
Y182400D01*
X522198Y182899D01*
X520698D01*
X523697Y181400D02*
X524697D01*
X524197D01*
Y184399D01*
X523697Y183899D01*
X421699D02*
X421200Y184399D01*
X420200D01*
X419700Y183899D01*
Y183399D01*
X420200Y182899D01*
X421200D01*
X421699Y182400D01*
Y181900D01*
X421200Y181400D01*
X420200D01*
X419700Y181900D01*
X422699Y184399D02*
Y181400D01*
X423699Y182400D01*
X424698Y181400D01*
Y184399D01*
X427697D02*
X426698Y183899D01*
X425698Y182899D01*
Y181900D01*
X426198Y181400D01*
X427198D01*
X427697Y181900D01*
Y182400D01*
X427198Y182899D01*
X425698D01*
X428697Y183899D02*
X429197Y184399D01*
X430197D01*
X430696Y183899D01*
Y181900D01*
X430197Y181400D01*
X429197D01*
X428697Y181900D01*
Y183899D01*
X140299Y845299D02*
X139799Y845799D01*
X138800D01*
X138300Y845299D01*
Y844799D01*
X138800Y844300D01*
X139799D01*
X140299Y843800D01*
Y843300D01*
X139799Y842800D01*
X138800D01*
X138300Y843300D01*
X141299Y845799D02*
Y842800D01*
X142299Y843800D01*
X143298Y842800D01*
Y845799D01*
X144298Y842800D02*
X145298D01*
X144798D01*
Y845799D01*
X144298Y845299D01*
X234299D02*
X233800Y845799D01*
X232800D01*
X232300Y845299D01*
Y844799D01*
X232800Y844300D01*
X233800D01*
X234299Y843800D01*
Y843300D01*
X233800Y842800D01*
X232800D01*
X232300Y843300D01*
X235299Y845799D02*
Y842800D01*
X236299Y843800D01*
X237298Y842800D01*
Y845799D01*
X240297Y842800D02*
X238298D01*
X240297Y844799D01*
Y845299D01*
X239798Y845799D01*
X238798D01*
X238298Y845299D01*
X801199D02*
X800700Y845799D01*
X799700D01*
X799200Y845299D01*
Y844799D01*
X799700Y844300D01*
X800700D01*
X801199Y843800D01*
Y843300D01*
X800700Y842800D01*
X799700D01*
X799200Y843300D01*
X802199Y845799D02*
Y842800D01*
X803199Y843800D01*
X804198Y842800D01*
Y845799D01*
X805198Y845299D02*
X805698Y845799D01*
X806698D01*
X807197Y845299D01*
Y844799D01*
X806698Y844300D01*
X807197Y843800D01*
Y843300D01*
X806698Y842800D01*
X805698D01*
X805198Y843300D01*
Y843800D01*
X805698Y844300D01*
X805198Y844799D01*
Y845299D01*
X805698Y844300D02*
X806698D01*
X706699Y845299D02*
X706200Y845799D01*
X705200D01*
X704700Y845299D01*
Y844799D01*
X705200Y844300D01*
X706200D01*
X706699Y843800D01*
Y843300D01*
X706200Y842800D01*
X705200D01*
X704700Y843300D01*
X707699Y845799D02*
Y842800D01*
X708699Y843800D01*
X709698Y842800D01*
Y845799D01*
X710698D02*
X712697D01*
Y845299D01*
X710698Y843300D01*
Y842800D01*
X423199Y845299D02*
X422699Y845799D01*
X421700D01*
X421200Y845299D01*
Y844799D01*
X421700Y844300D01*
X422699D01*
X423199Y843800D01*
Y843300D01*
X422699Y842800D01*
X421700D01*
X421200Y843300D01*
X424199Y845799D02*
Y842800D01*
X425199Y843800D01*
X426198Y842800D01*
Y845799D01*
X428698Y842800D02*
Y845799D01*
X427198Y844300D01*
X429197D01*
X516873Y844945D02*
X516373Y845445D01*
X515373D01*
X514873Y844945D01*
Y844445D01*
X515373Y843945D01*
X516373D01*
X516873Y843445D01*
Y842945D01*
X516373Y842446D01*
X515373D01*
X514873Y842945D01*
X517872Y845445D02*
Y842446D01*
X518872Y843445D01*
X519872Y842446D01*
Y845445D01*
X522871D02*
X520871D01*
Y843945D01*
X521871Y844445D01*
X522371D01*
X522871Y843945D01*
Y842945D01*
X522371Y842446D01*
X521371D01*
X520871Y842945D01*
X328699Y845299D02*
X328200Y845799D01*
X327200D01*
X326700Y845299D01*
Y844799D01*
X327200Y844300D01*
X328200D01*
X328699Y843800D01*
Y843300D01*
X328200Y842800D01*
X327200D01*
X326700Y843300D01*
X329699Y845799D02*
Y842800D01*
X330699Y843800D01*
X331698Y842800D01*
Y845799D01*
X332698Y845299D02*
X333198Y845799D01*
X334198D01*
X334697Y845299D01*
Y844799D01*
X334198Y844300D01*
X333698D01*
X334198D01*
X334697Y843800D01*
Y843300D01*
X334198Y842800D01*
X333198D01*
X332698Y843300D01*
X612199Y845299D02*
X611699Y845799D01*
X610700D01*
X610200Y845299D01*
Y844799D01*
X610700Y844300D01*
X611699D01*
X612199Y843800D01*
Y843300D01*
X611699Y842800D01*
X610700D01*
X610200Y843300D01*
X613199Y845799D02*
Y842800D01*
X614199Y843800D01*
X615198Y842800D01*
Y845799D01*
X618197D02*
X617198Y845299D01*
X616198Y844300D01*
Y843300D01*
X616698Y842800D01*
X617698D01*
X618197Y843300D01*
Y843800D01*
X617698Y844300D01*
X616198D01*
X420500Y814599D02*
Y811600D01*
X422499D01*
X425498Y814599D02*
X423499D01*
Y811600D01*
X425498D01*
X423499Y813099D02*
X424499D01*
X426498Y814599D02*
Y811600D01*
X427998D01*
X428497Y812100D01*
Y814099D01*
X427998Y814599D01*
X426498D01*
X430997Y811600D02*
Y814599D01*
X429497Y813099D01*
X431496D01*
X515000Y814599D02*
Y811600D01*
X516999D01*
X519998Y814599D02*
X517999D01*
Y811600D01*
X519998D01*
X517999Y813099D02*
X518999D01*
X520998Y814599D02*
Y811600D01*
X522498D01*
X522997Y812100D01*
Y814099D01*
X522498Y814599D01*
X520998D01*
X525996D02*
X523997D01*
Y813099D01*
X524997Y813599D01*
X525497D01*
X525996Y813099D01*
Y812100D01*
X525497Y811600D01*
X524497D01*
X523997Y812100D01*
X609400Y814599D02*
Y811600D01*
X611399D01*
X614398Y814599D02*
X612399D01*
Y811600D01*
X614398D01*
X612399Y813099D02*
X613399D01*
X615398Y814599D02*
Y811600D01*
X616898D01*
X617397Y812100D01*
Y814099D01*
X616898Y814599D01*
X615398D01*
X620396D02*
X619397Y814099D01*
X618397Y813099D01*
Y812100D01*
X618897Y811600D01*
X619897D01*
X620396Y812100D01*
Y812600D01*
X619897Y813099D01*
X618397D01*
X703900Y814599D02*
Y811600D01*
X705899D01*
X708898Y814599D02*
X706899D01*
Y811600D01*
X708898D01*
X706899Y813099D02*
X707899D01*
X709898Y814599D02*
Y811600D01*
X711398D01*
X711897Y812100D01*
Y814099D01*
X711398Y814599D01*
X709898D01*
X712897D02*
X714896D01*
Y814099D01*
X712897Y812100D01*
Y811600D01*
X798400Y814599D02*
Y811600D01*
X800399D01*
X803398Y814599D02*
X801399D01*
Y811600D01*
X803398D01*
X801399Y813099D02*
X802399D01*
X804398Y814599D02*
Y811600D01*
X805898D01*
X806397Y812100D01*
Y814099D01*
X805898Y814599D01*
X804398D01*
X807397Y814099D02*
X807897Y814599D01*
X808897D01*
X809396Y814099D01*
Y813599D01*
X808897Y813099D01*
X809396Y812600D01*
Y812100D01*
X808897Y811600D01*
X807897D01*
X807397Y812100D01*
Y812600D01*
X807897Y813099D01*
X807397Y813599D01*
Y814099D01*
X807897Y813099D02*
X808897D01*
X326000Y814599D02*
Y811600D01*
X327999D01*
X330998Y814599D02*
X328999D01*
Y811600D01*
X330998D01*
X328999Y813099D02*
X329999D01*
X331998Y814599D02*
Y811600D01*
X333498D01*
X333997Y812100D01*
Y814099D01*
X333498Y814599D01*
X331998D01*
X334997Y814099D02*
X335497Y814599D01*
X336497D01*
X336996Y814099D01*
Y813599D01*
X336497Y813099D01*
X335997D01*
X336497D01*
X336996Y812600D01*
Y812100D01*
X336497Y811600D01*
X335497D01*
X334997Y812100D01*
X231500Y814599D02*
Y811600D01*
X233499D01*
X236498Y814599D02*
X234499D01*
Y811600D01*
X236498D01*
X234499Y813099D02*
X235499D01*
X237498Y814599D02*
Y811600D01*
X238998D01*
X239497Y812100D01*
Y814099D01*
X238998Y814599D01*
X237498D01*
X242496Y811600D02*
X240497D01*
X242496Y813599D01*
Y814099D01*
X241997Y814599D01*
X240997D01*
X240497Y814099D01*
X137500Y814599D02*
Y811600D01*
X139499D01*
X142498Y814599D02*
X140499D01*
Y811600D01*
X142498D01*
X140499Y813099D02*
X141499D01*
X143498Y814599D02*
Y811600D01*
X144998D01*
X145497Y812100D01*
Y814099D01*
X144998Y814599D01*
X143498D01*
X146497Y811600D02*
X147497D01*
X146997D01*
Y814599D01*
X146497Y814099D01*
X419000Y153099D02*
Y150100D01*
X420999D01*
X423998Y153099D02*
X421999D01*
Y150100D01*
X423998D01*
X421999Y151600D02*
X422999D01*
X424998Y153099D02*
Y150100D01*
X426498D01*
X426997Y150600D01*
Y152599D01*
X426498Y153099D01*
X424998D01*
X429996D02*
X428997Y152599D01*
X427997Y151600D01*
Y150600D01*
X428497Y150100D01*
X429497D01*
X429996Y150600D01*
Y151100D01*
X429497Y151600D01*
X427997D01*
X430996Y152599D02*
X431496Y153099D01*
X432496D01*
X432996Y152599D01*
Y150600D01*
X432496Y150100D01*
X431496D01*
X430996Y150600D01*
Y152599D01*
X514000Y153099D02*
Y150100D01*
X515999D01*
X518998Y153099D02*
X516999D01*
Y150100D01*
X518998D01*
X516999Y151600D02*
X517999D01*
X519998Y153099D02*
Y150100D01*
X521498D01*
X521997Y150600D01*
Y152599D01*
X521498Y153099D01*
X519998D01*
X524996D02*
X523997Y152599D01*
X522997Y151600D01*
Y150600D01*
X523497Y150100D01*
X524497D01*
X524996Y150600D01*
Y151100D01*
X524497Y151600D01*
X522997D01*
X525996Y150100D02*
X526996D01*
X526496D01*
Y153099D01*
X525996Y152599D01*
X607900Y153099D02*
Y150100D01*
X609899D01*
X612898Y153099D02*
X610899D01*
Y150100D01*
X612898D01*
X610899Y151600D02*
X611899D01*
X613898Y153099D02*
Y150100D01*
X615398D01*
X615897Y150600D01*
Y152599D01*
X615398Y153099D01*
X613898D01*
X618896D02*
X617897Y152599D01*
X616897Y151600D01*
Y150600D01*
X617397Y150100D01*
X618397D01*
X618896Y150600D01*
Y151100D01*
X618397Y151600D01*
X616897D01*
X621896Y150100D02*
X619896D01*
X621896Y152099D01*
Y152599D01*
X621396Y153099D01*
X620396D01*
X619896Y152599D01*
X702400Y153099D02*
Y150100D01*
X704399D01*
X707398Y153099D02*
X705399D01*
Y150100D01*
X707398D01*
X705399Y151600D02*
X706399D01*
X708398Y153099D02*
Y150100D01*
X709898D01*
X710397Y150600D01*
Y152599D01*
X709898Y153099D01*
X708398D01*
X713396D02*
X712397Y152599D01*
X711397Y151600D01*
Y150600D01*
X711897Y150100D01*
X712897D01*
X713396Y150600D01*
Y151100D01*
X712897Y151600D01*
X711397D01*
X714396Y152599D02*
X714896Y153099D01*
X715896D01*
X716396Y152599D01*
Y152099D01*
X715896Y151600D01*
X715396D01*
X715896D01*
X716396Y151100D01*
Y150600D01*
X715896Y150100D01*
X714896D01*
X714396Y150600D01*
X796900Y153099D02*
Y150100D01*
X798899D01*
X801898Y153099D02*
X799899D01*
Y150100D01*
X801898D01*
X799899Y151600D02*
X800899D01*
X802898Y153099D02*
Y150100D01*
X804398D01*
X804897Y150600D01*
Y152599D01*
X804398Y153099D01*
X802898D01*
X807896D02*
X806897Y152599D01*
X805897Y151600D01*
Y150600D01*
X806397Y150100D01*
X807397D01*
X807896Y150600D01*
Y151100D01*
X807397Y151600D01*
X805897D01*
X810396Y150100D02*
Y153099D01*
X808896Y151600D01*
X810896D01*
X324500Y153099D02*
Y150100D01*
X326499D01*
X329498Y153099D02*
X327499D01*
Y150100D01*
X329498D01*
X327499Y151600D02*
X328499D01*
X330498Y153099D02*
Y150100D01*
X331998D01*
X332497Y150600D01*
Y152599D01*
X331998Y153099D01*
X330498D01*
X335496D02*
X333497D01*
Y151600D01*
X334497Y152099D01*
X334997D01*
X335496Y151600D01*
Y150600D01*
X334997Y150100D01*
X333997D01*
X333497Y150600D01*
X336496D02*
X336996Y150100D01*
X337996D01*
X338495Y150600D01*
Y152599D01*
X337996Y153099D01*
X336996D01*
X336496Y152599D01*
Y152099D01*
X336996Y151600D01*
X338495D01*
X230000Y153099D02*
Y150100D01*
X231999D01*
X234998Y153099D02*
X232999D01*
Y150100D01*
X234998D01*
X232999Y151600D02*
X233999D01*
X235998Y153099D02*
Y150100D01*
X237498D01*
X237997Y150600D01*
Y152599D01*
X237498Y153099D01*
X235998D01*
X240996D02*
X238997D01*
Y151600D01*
X239997Y152099D01*
X240497D01*
X240996Y151600D01*
Y150600D01*
X240497Y150100D01*
X239497D01*
X238997Y150600D01*
X241996Y152599D02*
X242496Y153099D01*
X243496D01*
X243995Y152599D01*
Y152099D01*
X243496Y151600D01*
X243995Y151100D01*
Y150600D01*
X243496Y150100D01*
X242496D01*
X241996Y150600D01*
Y151100D01*
X242496Y151600D01*
X241996Y152099D01*
Y152599D01*
X242496Y151600D02*
X243496D01*
X135500Y153099D02*
Y150100D01*
X137499D01*
X140498Y153099D02*
X138499D01*
Y150100D01*
X140498D01*
X138499Y151600D02*
X139499D01*
X141498Y153099D02*
Y150100D01*
X142998D01*
X143497Y150600D01*
Y152599D01*
X142998Y153099D01*
X141498D01*
X146496D02*
X144497D01*
Y151600D01*
X145497Y152099D01*
X145997D01*
X146496Y151600D01*
Y150600D01*
X145997Y150100D01*
X144997D01*
X144497Y150600D01*
X147496Y153099D02*
X149495D01*
Y152599D01*
X147496Y150600D01*
Y150100D01*
X419000Y247599D02*
Y244600D01*
X420999D01*
X423998Y247599D02*
X421999D01*
Y244600D01*
X423998D01*
X421999Y246099D02*
X422999D01*
X424998Y247599D02*
Y244600D01*
X426498D01*
X426997Y245100D01*
Y247099D01*
X426498Y247599D01*
X424998D01*
X429996D02*
X427997D01*
Y246099D01*
X428997Y246599D01*
X429497D01*
X429996Y246099D01*
Y245100D01*
X429497Y244600D01*
X428497D01*
X427997Y245100D01*
X432996Y244600D02*
X430996D01*
X432996Y246599D01*
Y247099D01*
X432496Y247599D01*
X431496D01*
X430996Y247099D01*
X513500Y247599D02*
Y244600D01*
X515499D01*
X518498Y247599D02*
X516499D01*
Y244600D01*
X518498D01*
X516499Y246099D02*
X517499D01*
X519498Y247599D02*
Y244600D01*
X520998D01*
X521497Y245100D01*
Y247099D01*
X520998Y247599D01*
X519498D01*
X524496D02*
X522497D01*
Y246099D01*
X523497Y246599D01*
X523997D01*
X524496Y246099D01*
Y245100D01*
X523997Y244600D01*
X522997D01*
X522497Y245100D01*
X525496Y247099D02*
X525996Y247599D01*
X526996D01*
X527495Y247099D01*
Y246599D01*
X526996Y246099D01*
X526496D01*
X526996D01*
X527495Y245600D01*
Y245100D01*
X526996Y244600D01*
X525996D01*
X525496Y245100D01*
X607900Y247599D02*
Y244600D01*
X609899D01*
X612898Y247599D02*
X610899D01*
Y244600D01*
X612898D01*
X610899Y246099D02*
X611899D01*
X613898Y247599D02*
Y244600D01*
X615398D01*
X615897Y245100D01*
Y247099D01*
X615398Y247599D01*
X613898D01*
X618896D02*
X616897D01*
Y246099D01*
X617897Y246599D01*
X618397D01*
X618896Y246099D01*
Y245100D01*
X618397Y244600D01*
X617397D01*
X616897Y245100D01*
X621396Y244600D02*
Y247599D01*
X619896Y246099D01*
X621896D01*
X702400Y247599D02*
Y244600D01*
X704399D01*
X707398Y247599D02*
X705399D01*
Y244600D01*
X707398D01*
X705399Y246099D02*
X706399D01*
X708398Y247599D02*
Y244600D01*
X709898D01*
X710397Y245100D01*
Y247099D01*
X709898Y247599D01*
X708398D01*
X713396D02*
X711397D01*
Y246099D01*
X712397Y246599D01*
X712897D01*
X713396Y246099D01*
Y245100D01*
X712897Y244600D01*
X711897D01*
X711397Y245100D01*
X716396Y247599D02*
X714396D01*
Y246099D01*
X715396Y246599D01*
X715896D01*
X716396Y246099D01*
Y245100D01*
X715896Y244600D01*
X714896D01*
X714396Y245100D01*
X796900Y247599D02*
Y244600D01*
X798899D01*
X801898Y247599D02*
X799899D01*
Y244600D01*
X801898D01*
X799899Y246099D02*
X800899D01*
X802898Y247599D02*
Y244600D01*
X804398D01*
X804897Y245100D01*
Y247099D01*
X804398Y247599D01*
X802898D01*
X807896D02*
X805897D01*
Y246099D01*
X806897Y246599D01*
X807397D01*
X807896Y246099D01*
Y245100D01*
X807397Y244600D01*
X806397D01*
X805897Y245100D01*
X810896Y247599D02*
X809896Y247099D01*
X808896Y246099D01*
Y245100D01*
X809396Y244600D01*
X810396D01*
X810896Y245100D01*
Y245600D01*
X810396Y246099D01*
X808896D01*
X325000Y247599D02*
Y244600D01*
X326999D01*
X329998Y247599D02*
X327999D01*
Y244600D01*
X329998D01*
X327999Y246099D02*
X328999D01*
X330998Y247599D02*
Y244600D01*
X332498D01*
X332997Y245100D01*
Y247099D01*
X332498Y247599D01*
X330998D01*
X335996D02*
X333997D01*
Y246099D01*
X334997Y246599D01*
X335497D01*
X335996Y246099D01*
Y245100D01*
X335497Y244600D01*
X334497D01*
X333997Y245100D01*
X336996Y244600D02*
X337996D01*
X337496D01*
Y247599D01*
X336996Y247099D01*
X230000Y247599D02*
Y244600D01*
X231999D01*
X234998Y247599D02*
X232999D01*
Y244600D01*
X234998D01*
X232999Y246099D02*
X233999D01*
X235998Y247599D02*
Y244600D01*
X237498D01*
X237997Y245100D01*
Y247099D01*
X237498Y247599D01*
X235998D01*
X240996D02*
X238997D01*
Y246099D01*
X239997Y246599D01*
X240497D01*
X240996Y246099D01*
Y245100D01*
X240497Y244600D01*
X239497D01*
X238997Y245100D01*
X241996Y247099D02*
X242496Y247599D01*
X243496D01*
X243995Y247099D01*
Y245100D01*
X243496Y244600D01*
X242496D01*
X241996Y245100D01*
Y247099D01*
X135500Y247599D02*
Y244600D01*
X137499D01*
X140498Y247599D02*
X138499D01*
Y244600D01*
X140498D01*
X138499Y246099D02*
X139499D01*
X141498Y247599D02*
Y244600D01*
X142998D01*
X143497Y245100D01*
Y247099D01*
X142998Y247599D01*
X141498D01*
X145997Y244600D02*
Y247599D01*
X144497Y246099D01*
X146496D01*
X147496Y245100D02*
X147996Y244600D01*
X148996D01*
X149495Y245100D01*
Y247099D01*
X148996Y247599D01*
X147996D01*
X147496Y247099D01*
Y246599D01*
X147996Y246099D01*
X149495D01*
X419000Y342099D02*
Y339100D01*
X420999D01*
X423998Y342099D02*
X421999D01*
Y339100D01*
X423998D01*
X421999Y340599D02*
X422999D01*
X424998Y342099D02*
Y339100D01*
X426498D01*
X426997Y339600D01*
Y341599D01*
X426498Y342099D01*
X424998D01*
X429497Y339100D02*
Y342099D01*
X427997Y340599D01*
X429996D01*
X432496Y339100D02*
Y342099D01*
X430996Y340599D01*
X432996D01*
X513500Y342099D02*
Y339100D01*
X515499D01*
X518498Y342099D02*
X516499D01*
Y339100D01*
X518498D01*
X516499Y340599D02*
X517499D01*
X519498Y342099D02*
Y339100D01*
X520998D01*
X521497Y339600D01*
Y341599D01*
X520998Y342099D01*
X519498D01*
X523997Y339100D02*
Y342099D01*
X522497Y340599D01*
X524496D01*
X527495Y342099D02*
X525496D01*
Y340599D01*
X526496Y341099D01*
X526996D01*
X527495Y340599D01*
Y339600D01*
X526996Y339100D01*
X525996D01*
X525496Y339600D01*
X607900Y342099D02*
Y339100D01*
X609899D01*
X612898Y342099D02*
X610899D01*
Y339100D01*
X612898D01*
X610899Y340599D02*
X611899D01*
X613898Y342099D02*
Y339100D01*
X615398D01*
X615897Y339600D01*
Y341599D01*
X615398Y342099D01*
X613898D01*
X618397Y339100D02*
Y342099D01*
X616897Y340599D01*
X618896D01*
X621896Y342099D02*
X620896Y341599D01*
X619896Y340599D01*
Y339600D01*
X620396Y339100D01*
X621396D01*
X621896Y339600D01*
Y340100D01*
X621396Y340599D01*
X619896D01*
X702400Y342099D02*
Y339100D01*
X704399D01*
X707398Y342099D02*
X705399D01*
Y339100D01*
X707398D01*
X705399Y340599D02*
X706399D01*
X708398Y342099D02*
Y339100D01*
X709898D01*
X710397Y339600D01*
Y341599D01*
X709898Y342099D01*
X708398D01*
X712897Y339100D02*
Y342099D01*
X711397Y340599D01*
X713396D01*
X714396Y342099D02*
X716396D01*
Y341599D01*
X714396Y339600D01*
Y339100D01*
X796900Y342099D02*
Y339100D01*
X798899D01*
X801898Y342099D02*
X799899D01*
Y339100D01*
X801898D01*
X799899Y340599D02*
X800899D01*
X802898Y342099D02*
Y339100D01*
X804398D01*
X804897Y339600D01*
Y341599D01*
X804398Y342099D01*
X802898D01*
X807397Y339100D02*
Y342099D01*
X805897Y340599D01*
X807896D01*
X808896Y341599D02*
X809396Y342099D01*
X810396D01*
X810896Y341599D01*
Y341099D01*
X810396Y340599D01*
X810896Y340100D01*
Y339600D01*
X810396Y339100D01*
X809396D01*
X808896Y339600D01*
Y340100D01*
X809396Y340599D01*
X808896Y341099D01*
Y341599D01*
X809396Y340599D02*
X810396D01*
X324500Y342099D02*
Y339100D01*
X326499D01*
X329498Y342099D02*
X327499D01*
Y339100D01*
X329498D01*
X327499Y340599D02*
X328499D01*
X330498Y342099D02*
Y339100D01*
X331998D01*
X332497Y339600D01*
Y341599D01*
X331998Y342099D01*
X330498D01*
X334997Y339100D02*
Y342099D01*
X333497Y340599D01*
X335496D01*
X336496Y341599D02*
X336996Y342099D01*
X337996D01*
X338495Y341599D01*
Y341099D01*
X337996Y340599D01*
X337496D01*
X337996D01*
X338495Y340100D01*
Y339600D01*
X337996Y339100D01*
X336996D01*
X336496Y339600D01*
X230000Y342099D02*
Y339100D01*
X231999D01*
X234998Y342099D02*
X232999D01*
Y339100D01*
X234998D01*
X232999Y340599D02*
X233999D01*
X235998Y342099D02*
Y339100D01*
X237498D01*
X237997Y339600D01*
Y341599D01*
X237498Y342099D01*
X235998D01*
X240497Y339100D02*
Y342099D01*
X238997Y340599D01*
X240996D01*
X243995Y339100D02*
X241996D01*
X243995Y341099D01*
Y341599D01*
X243496Y342099D01*
X242496D01*
X241996Y341599D01*
X136000Y342099D02*
Y339100D01*
X137999D01*
X140998Y342099D02*
X138999D01*
Y339100D01*
X140998D01*
X138999Y340599D02*
X139999D01*
X141998Y342099D02*
Y339100D01*
X143498D01*
X143997Y339600D01*
Y341599D01*
X143498Y342099D01*
X141998D01*
X146497Y339100D02*
Y342099D01*
X144997Y340599D01*
X146996D01*
X147996Y339100D02*
X148996D01*
X148496D01*
Y342099D01*
X147996Y341599D01*
X419200Y720099D02*
Y717100D01*
X421199D01*
X424198Y720099D02*
X422199D01*
Y717100D01*
X424198D01*
X422199Y718600D02*
X423199D01*
X425198Y720099D02*
Y717100D01*
X426698D01*
X427197Y717600D01*
Y719599D01*
X426698Y720099D01*
X425198D01*
X428197Y717100D02*
X429197D01*
X428697D01*
Y720099D01*
X428197Y719599D01*
X432696Y717100D02*
X430696D01*
X432696Y719099D01*
Y719599D01*
X432196Y720099D01*
X431196D01*
X430696Y719599D01*
X513700Y720099D02*
Y717100D01*
X515699D01*
X518698Y720099D02*
X516699D01*
Y717100D01*
X518698D01*
X516699Y718600D02*
X517699D01*
X519698Y720099D02*
Y717100D01*
X521198D01*
X521697Y717600D01*
Y719599D01*
X521198Y720099D01*
X519698D01*
X522697Y717100D02*
X523697D01*
X523197D01*
Y720099D01*
X522697Y719599D01*
X525196D02*
X525696Y720099D01*
X526696D01*
X527196Y719599D01*
Y719099D01*
X526696Y718600D01*
X526196D01*
X526696D01*
X527196Y718100D01*
Y717600D01*
X526696Y717100D01*
X525696D01*
X525196Y717600D01*
X608200Y720099D02*
Y717100D01*
X610199D01*
X613198Y720099D02*
X611199D01*
Y717100D01*
X613198D01*
X611199Y718600D02*
X612199D01*
X614198Y720099D02*
Y717100D01*
X615698D01*
X616197Y717600D01*
Y719599D01*
X615698Y720099D01*
X614198D01*
X617197Y717100D02*
X618197D01*
X617697D01*
Y720099D01*
X617197Y719599D01*
X621196Y717100D02*
Y720099D01*
X619696Y718600D01*
X621696D01*
X702700Y720099D02*
Y717100D01*
X704699D01*
X707698Y720099D02*
X705699D01*
Y717100D01*
X707698D01*
X705699Y718600D02*
X706699D01*
X708698Y720099D02*
Y717100D01*
X710198D01*
X710697Y717600D01*
Y719599D01*
X710198Y720099D01*
X708698D01*
X711697Y717100D02*
X712697D01*
X712197D01*
Y720099D01*
X711697Y719599D01*
X716196Y720099D02*
X714196D01*
Y718600D01*
X715196Y719099D01*
X715696D01*
X716196Y718600D01*
Y717600D01*
X715696Y717100D01*
X714696D01*
X714196Y717600D01*
X797200Y720099D02*
Y717100D01*
X799199D01*
X802198Y720099D02*
X800199D01*
Y717100D01*
X802198D01*
X800199Y718600D02*
X801199D01*
X803198Y720099D02*
Y717100D01*
X804698D01*
X805197Y717600D01*
Y719599D01*
X804698Y720099D01*
X803198D01*
X806197Y717100D02*
X807197D01*
X806697D01*
Y720099D01*
X806197Y719599D01*
X810696Y720099D02*
X809696Y719599D01*
X808696Y718600D01*
Y717600D01*
X809196Y717100D01*
X810196D01*
X810696Y717600D01*
Y718100D01*
X810196Y718600D01*
X808696D01*
X325200Y720099D02*
Y717100D01*
X327199D01*
X330198Y720099D02*
X328199D01*
Y717100D01*
X330198D01*
X328199Y718600D02*
X329199D01*
X331198Y720099D02*
Y717100D01*
X332698D01*
X333197Y717600D01*
Y719599D01*
X332698Y720099D01*
X331198D01*
X334197Y717100D02*
X335197D01*
X334697D01*
Y720099D01*
X334197Y719599D01*
X336696Y717100D02*
X337696D01*
X337196D01*
Y720099D01*
X336696Y719599D01*
X230200Y720099D02*
Y717100D01*
X232199D01*
X235198Y720099D02*
X233199D01*
Y717100D01*
X235198D01*
X233199Y718600D02*
X234199D01*
X236198Y720099D02*
Y717100D01*
X237698D01*
X238197Y717600D01*
Y719599D01*
X237698Y720099D01*
X236198D01*
X239197Y717100D02*
X240197D01*
X239697D01*
Y720099D01*
X239197Y719599D01*
X241696D02*
X242196Y720099D01*
X243196D01*
X243696Y719599D01*
Y717600D01*
X243196Y717100D01*
X242196D01*
X241696Y717600D01*
Y719599D01*
X137000Y720099D02*
Y717100D01*
X138999D01*
X141998Y720099D02*
X139999D01*
Y717100D01*
X141998D01*
X139999Y718600D02*
X140999D01*
X142998Y720099D02*
Y717100D01*
X144498D01*
X144997Y717600D01*
Y719599D01*
X144498Y720099D01*
X142998D01*
X145997Y717600D02*
X146497Y717100D01*
X147497D01*
X147996Y717600D01*
Y719599D01*
X147497Y720099D01*
X146497D01*
X145997Y719599D01*
Y719099D01*
X146497Y718600D01*
X147996D01*
X419000Y625599D02*
Y622600D01*
X420999D01*
X423998Y625599D02*
X421999D01*
Y622600D01*
X423998D01*
X421999Y624099D02*
X422999D01*
X424998Y625599D02*
Y622600D01*
X426498D01*
X426997Y623100D01*
Y625099D01*
X426498Y625599D01*
X424998D01*
X429996Y622600D02*
X427997D01*
X429996Y624599D01*
Y625099D01*
X429497Y625599D01*
X428497D01*
X427997Y625099D01*
X430996D02*
X431496Y625599D01*
X432496D01*
X432996Y625099D01*
Y623100D01*
X432496Y622600D01*
X431496D01*
X430996Y623100D01*
Y625099D01*
X514000Y625599D02*
Y622600D01*
X515999D01*
X518998Y625599D02*
X516999D01*
Y622600D01*
X518998D01*
X516999Y624099D02*
X517999D01*
X519998Y625599D02*
Y622600D01*
X521498D01*
X521997Y623100D01*
Y625099D01*
X521498Y625599D01*
X519998D01*
X524996Y622600D02*
X522997D01*
X524996Y624599D01*
Y625099D01*
X524497Y625599D01*
X523497D01*
X522997Y625099D01*
X525996Y622600D02*
X526996D01*
X526496D01*
Y625599D01*
X525996Y625099D01*
X607900Y625599D02*
Y622600D01*
X609899D01*
X612898Y625599D02*
X610899D01*
Y622600D01*
X612898D01*
X610899Y624099D02*
X611899D01*
X613898Y625599D02*
Y622600D01*
X615398D01*
X615897Y623100D01*
Y625099D01*
X615398Y625599D01*
X613898D01*
X618896Y622600D02*
X616897D01*
X618896Y624599D01*
Y625099D01*
X618397Y625599D01*
X617397D01*
X616897Y625099D01*
X621896Y622600D02*
X619896D01*
X621896Y624599D01*
Y625099D01*
X621396Y625599D01*
X620396D01*
X619896Y625099D01*
X702400Y625599D02*
Y622600D01*
X704399D01*
X707398Y625599D02*
X705399D01*
Y622600D01*
X707398D01*
X705399Y624099D02*
X706399D01*
X708398Y625599D02*
Y622600D01*
X709898D01*
X710397Y623100D01*
Y625099D01*
X709898Y625599D01*
X708398D01*
X713396Y622600D02*
X711397D01*
X713396Y624599D01*
Y625099D01*
X712897Y625599D01*
X711897D01*
X711397Y625099D01*
X714396D02*
X714896Y625599D01*
X715896D01*
X716396Y625099D01*
Y624599D01*
X715896Y624099D01*
X715396D01*
X715896D01*
X716396Y623600D01*
Y623100D01*
X715896Y622600D01*
X714896D01*
X714396Y623100D01*
X796900Y625599D02*
Y622600D01*
X798899D01*
X801898Y625599D02*
X799899D01*
Y622600D01*
X801898D01*
X799899Y624099D02*
X800899D01*
X802898Y625599D02*
Y622600D01*
X804398D01*
X804897Y623100D01*
Y625099D01*
X804398Y625599D01*
X802898D01*
X807896Y622600D02*
X805897D01*
X807896Y624599D01*
Y625099D01*
X807397Y625599D01*
X806397D01*
X805897Y625099D01*
X810396Y622600D02*
Y625599D01*
X808896Y624099D01*
X810896D01*
X324700Y625599D02*
Y622600D01*
X326699D01*
X329698Y625599D02*
X327699D01*
Y622600D01*
X329698D01*
X327699Y624099D02*
X328699D01*
X330698Y625599D02*
Y622600D01*
X332198D01*
X332697Y623100D01*
Y625099D01*
X332198Y625599D01*
X330698D01*
X333697Y622600D02*
X334697D01*
X334197D01*
Y625599D01*
X333697Y625099D01*
X336196Y623100D02*
X336696Y622600D01*
X337696D01*
X338196Y623100D01*
Y625099D01*
X337696Y625599D01*
X336696D01*
X336196Y625099D01*
Y624599D01*
X336696Y624099D01*
X338196D01*
X230200Y625599D02*
Y622600D01*
X232199D01*
X235198Y625599D02*
X233199D01*
Y622600D01*
X235198D01*
X233199Y624099D02*
X234199D01*
X236198Y625599D02*
Y622600D01*
X237698D01*
X238197Y623100D01*
Y625099D01*
X237698Y625599D01*
X236198D01*
X239197Y622600D02*
X240197D01*
X239697D01*
Y625599D01*
X239197Y625099D01*
X241696D02*
X242196Y625599D01*
X243196D01*
X243696Y625099D01*
Y624599D01*
X243196Y624099D01*
X243696Y623600D01*
Y623100D01*
X243196Y622600D01*
X242196D01*
X241696Y623100D01*
Y623600D01*
X242196Y624099D01*
X241696Y624599D01*
Y625099D01*
X242196Y624099D02*
X243196D01*
X135800Y625599D02*
Y622600D01*
X137799D01*
X140798Y625599D02*
X138799D01*
Y622600D01*
X140798D01*
X138799Y624099D02*
X139799D01*
X141798Y625599D02*
Y622600D01*
X143298D01*
X143797Y623100D01*
Y625099D01*
X143298Y625599D01*
X141798D01*
X144797Y622600D02*
X145797D01*
X145297D01*
Y625599D01*
X144797Y625099D01*
X147296Y625599D02*
X149296D01*
Y625099D01*
X147296Y623100D01*
Y622600D01*
X419000Y531099D02*
Y528100D01*
X420999D01*
X423998Y531099D02*
X421999D01*
Y528100D01*
X423998D01*
X421999Y529600D02*
X422999D01*
X424998Y531099D02*
Y528100D01*
X426498D01*
X426997Y528600D01*
Y530599D01*
X426498Y531099D01*
X424998D01*
X429996Y528100D02*
X427997D01*
X429996Y530099D01*
Y530599D01*
X429497Y531099D01*
X428497D01*
X427997Y530599D01*
X430996D02*
X431496Y531099D01*
X432496D01*
X432996Y530599D01*
Y530099D01*
X432496Y529600D01*
X432996Y529100D01*
Y528600D01*
X432496Y528100D01*
X431496D01*
X430996Y528600D01*
Y529100D01*
X431496Y529600D01*
X430996Y530099D01*
Y530599D01*
X431496Y529600D02*
X432496D01*
X513500Y531099D02*
Y528100D01*
X515499D01*
X518498Y531099D02*
X516499D01*
Y528100D01*
X518498D01*
X516499Y529600D02*
X517499D01*
X519498Y531099D02*
Y528100D01*
X520998D01*
X521497Y528600D01*
Y530599D01*
X520998Y531099D01*
X519498D01*
X524496Y528100D02*
X522497D01*
X524496Y530099D01*
Y530599D01*
X523997Y531099D01*
X522997D01*
X522497Y530599D01*
X525496Y528600D02*
X525996Y528100D01*
X526996D01*
X527495Y528600D01*
Y530599D01*
X526996Y531099D01*
X525996D01*
X525496Y530599D01*
Y530099D01*
X525996Y529600D01*
X527495D01*
X607900Y531099D02*
Y528100D01*
X609899D01*
X612898Y531099D02*
X610899D01*
Y528100D01*
X612898D01*
X610899Y529600D02*
X611899D01*
X613898Y531099D02*
Y528100D01*
X615398D01*
X615897Y528600D01*
Y530599D01*
X615398Y531099D01*
X613898D01*
X616897Y530599D02*
X617397Y531099D01*
X618397D01*
X618896Y530599D01*
Y530099D01*
X618397Y529600D01*
X617897D01*
X618397D01*
X618896Y529100D01*
Y528600D01*
X618397Y528100D01*
X617397D01*
X616897Y528600D01*
X619896Y530599D02*
X620396Y531099D01*
X621396D01*
X621896Y530599D01*
Y528600D01*
X621396Y528100D01*
X620396D01*
X619896Y528600D01*
Y530599D01*
X702900Y531099D02*
Y528100D01*
X704899D01*
X707898Y531099D02*
X705899D01*
Y528100D01*
X707898D01*
X705899Y529600D02*
X706899D01*
X708898Y531099D02*
Y528100D01*
X710398D01*
X710897Y528600D01*
Y530599D01*
X710398Y531099D01*
X708898D01*
X711897Y530599D02*
X712397Y531099D01*
X713397D01*
X713896Y530599D01*
Y530099D01*
X713397Y529600D01*
X712897D01*
X713397D01*
X713896Y529100D01*
Y528600D01*
X713397Y528100D01*
X712397D01*
X711897Y528600D01*
X714896Y528100D02*
X715896D01*
X715396D01*
Y531099D01*
X714896Y530599D01*
X796900Y531099D02*
Y528100D01*
X798899D01*
X801898Y531099D02*
X799899D01*
Y528100D01*
X801898D01*
X799899Y529600D02*
X800899D01*
X802898Y531099D02*
Y528100D01*
X804398D01*
X804897Y528600D01*
Y530599D01*
X804398Y531099D01*
X802898D01*
X805897Y530599D02*
X806397Y531099D01*
X807397D01*
X807896Y530599D01*
Y530099D01*
X807397Y529600D01*
X806897D01*
X807397D01*
X807896Y529100D01*
Y528600D01*
X807397Y528100D01*
X806397D01*
X805897Y528600D01*
X810896Y528100D02*
X808896D01*
X810896Y530099D01*
Y530599D01*
X810396Y531099D01*
X809396D01*
X808896Y530599D01*
X324500Y531099D02*
Y528100D01*
X326499D01*
X329498Y531099D02*
X327499D01*
Y528100D01*
X329498D01*
X327499Y529600D02*
X328499D01*
X330498Y531099D02*
Y528100D01*
X331998D01*
X332497Y528600D01*
Y530599D01*
X331998Y531099D01*
X330498D01*
X335496Y528100D02*
X333497D01*
X335496Y530099D01*
Y530599D01*
X334997Y531099D01*
X333997D01*
X333497Y530599D01*
X336496Y531099D02*
X338495D01*
Y530599D01*
X336496Y528600D01*
Y528100D01*
X230000Y531099D02*
Y528100D01*
X231999D01*
X234998Y531099D02*
X232999D01*
Y528100D01*
X234998D01*
X232999Y529600D02*
X233999D01*
X235998Y531099D02*
Y528100D01*
X237498D01*
X237997Y528600D01*
Y530599D01*
X237498Y531099D01*
X235998D01*
X240996Y528100D02*
X238997D01*
X240996Y530099D01*
Y530599D01*
X240497Y531099D01*
X239497D01*
X238997Y530599D01*
X243995Y531099D02*
X242996Y530599D01*
X241996Y529600D01*
Y528600D01*
X242496Y528100D01*
X243496D01*
X243995Y528600D01*
Y529100D01*
X243496Y529600D01*
X241996D01*
X135500Y531099D02*
Y528100D01*
X137499D01*
X140498Y531099D02*
X138499D01*
Y528100D01*
X140498D01*
X138499Y529600D02*
X139499D01*
X141498Y531099D02*
Y528100D01*
X142998D01*
X143497Y528600D01*
Y530599D01*
X142998Y531099D01*
X141498D01*
X146496Y528100D02*
X144497D01*
X146496Y530099D01*
Y530599D01*
X145997Y531099D01*
X144997D01*
X144497Y530599D01*
X149495Y531099D02*
X147496D01*
Y529600D01*
X148496Y530099D01*
X148996D01*
X149495Y529600D01*
Y528600D01*
X148996Y528100D01*
X147996D01*
X147496Y528600D01*
X135500Y436599D02*
Y433600D01*
X137499D01*
X140498Y436599D02*
X138499D01*
Y433600D01*
X140498D01*
X138499Y435100D02*
X139499D01*
X141498Y436599D02*
Y433600D01*
X142998D01*
X143497Y434100D01*
Y436099D01*
X142998Y436599D01*
X141498D01*
X144497Y436099D02*
X144997Y436599D01*
X145997D01*
X146496Y436099D01*
Y435599D01*
X145997Y435100D01*
X145497D01*
X145997D01*
X146496Y434600D01*
Y434100D01*
X145997Y433600D01*
X144997D01*
X144497Y434100D01*
X147496Y436099D02*
X147996Y436599D01*
X148996D01*
X149495Y436099D01*
Y435599D01*
X148996Y435100D01*
X148496D01*
X148996D01*
X149495Y434600D01*
Y434100D01*
X148996Y433600D01*
X147996D01*
X147496Y434100D01*
X230000Y436599D02*
Y433600D01*
X231999D01*
X234998Y436599D02*
X232999D01*
Y433600D01*
X234998D01*
X232999Y435100D02*
X233999D01*
X235998Y436599D02*
Y433600D01*
X237498D01*
X237997Y434100D01*
Y436099D01*
X237498Y436599D01*
X235998D01*
X238997Y436099D02*
X239497Y436599D01*
X240497D01*
X240996Y436099D01*
Y435599D01*
X240497Y435100D01*
X239997D01*
X240497D01*
X240996Y434600D01*
Y434100D01*
X240497Y433600D01*
X239497D01*
X238997Y434100D01*
X243496Y433600D02*
Y436599D01*
X241996Y435100D01*
X243995D01*
X324500Y436599D02*
Y433600D01*
X326499D01*
X329498Y436599D02*
X327499D01*
Y433600D01*
X329498D01*
X327499Y435100D02*
X328499D01*
X330498Y436599D02*
Y433600D01*
X331998D01*
X332497Y434100D01*
Y436099D01*
X331998Y436599D01*
X330498D01*
X333497Y436099D02*
X333997Y436599D01*
X334997D01*
X335496Y436099D01*
Y435599D01*
X334997Y435100D01*
X334497D01*
X334997D01*
X335496Y434600D01*
Y434100D01*
X334997Y433600D01*
X333997D01*
X333497Y434100D01*
X338495Y436599D02*
X336496D01*
Y435100D01*
X337496Y435599D01*
X337996D01*
X338495Y435100D01*
Y434100D01*
X337996Y433600D01*
X336996D01*
X336496Y434100D01*
X796900Y436599D02*
Y433600D01*
X798899D01*
X801898Y436599D02*
X799899D01*
Y433600D01*
X801898D01*
X799899Y435100D02*
X800899D01*
X802898Y436599D02*
Y433600D01*
X804398D01*
X804897Y434100D01*
Y436099D01*
X804398Y436599D01*
X802898D01*
X807397Y433600D02*
Y436599D01*
X805897Y435100D01*
X807896D01*
X808896Y436099D02*
X809396Y436599D01*
X810396D01*
X810896Y436099D01*
Y434100D01*
X810396Y433600D01*
X809396D01*
X808896Y434100D01*
Y436099D01*
X702400Y436599D02*
Y433600D01*
X704399D01*
X707398Y436599D02*
X705399D01*
Y433600D01*
X707398D01*
X705399Y435100D02*
X706399D01*
X708398Y436599D02*
Y433600D01*
X709898D01*
X710397Y434100D01*
Y436099D01*
X709898Y436599D01*
X708398D01*
X711397Y436099D02*
X711897Y436599D01*
X712897D01*
X713396Y436099D01*
Y435599D01*
X712897Y435100D01*
X712397D01*
X712897D01*
X713396Y434600D01*
Y434100D01*
X712897Y433600D01*
X711897D01*
X711397Y434100D01*
X714396D02*
X714896Y433600D01*
X715896D01*
X716396Y434100D01*
Y436099D01*
X715896Y436599D01*
X714896D01*
X714396Y436099D01*
Y435599D01*
X714896Y435100D01*
X716396D01*
X607900Y436599D02*
Y433600D01*
X609899D01*
X612898Y436599D02*
X610899D01*
Y433600D01*
X612898D01*
X610899Y435100D02*
X611899D01*
X613898Y436599D02*
Y433600D01*
X615398D01*
X615897Y434100D01*
Y436099D01*
X615398Y436599D01*
X613898D01*
X616897Y436099D02*
X617397Y436599D01*
X618397D01*
X618896Y436099D01*
Y435599D01*
X618397Y435100D01*
X617897D01*
X618397D01*
X618896Y434600D01*
Y434100D01*
X618397Y433600D01*
X617397D01*
X616897Y434100D01*
X619896Y436099D02*
X620396Y436599D01*
X621396D01*
X621896Y436099D01*
Y435599D01*
X621396Y435100D01*
X621896Y434600D01*
Y434100D01*
X621396Y433600D01*
X620396D01*
X619896Y434100D01*
Y434600D01*
X620396Y435100D01*
X619896Y435599D01*
Y436099D01*
X620396Y435100D02*
X621396D01*
X513500Y436599D02*
Y433600D01*
X515499D01*
X518498Y436599D02*
X516499D01*
Y433600D01*
X518498D01*
X516499Y435100D02*
X517499D01*
X519498Y436599D02*
Y433600D01*
X520998D01*
X521497Y434100D01*
Y436099D01*
X520998Y436599D01*
X519498D01*
X522497Y436099D02*
X522997Y436599D01*
X523997D01*
X524496Y436099D01*
Y435599D01*
X523997Y435100D01*
X523497D01*
X523997D01*
X524496Y434600D01*
Y434100D01*
X523997Y433600D01*
X522997D01*
X522497Y434100D01*
X525496Y436599D02*
X527495D01*
Y436099D01*
X525496Y434100D01*
Y433600D01*
X419000Y436599D02*
Y433600D01*
X420999D01*
X423998Y436599D02*
X421999D01*
Y433600D01*
X423998D01*
X421999Y435100D02*
X422999D01*
X424998Y436599D02*
Y433600D01*
X426498D01*
X426997Y434100D01*
Y436099D01*
X426498Y436599D01*
X424998D01*
X427997Y436099D02*
X428497Y436599D01*
X429497D01*
X429996Y436099D01*
Y435599D01*
X429497Y435100D01*
X428997D01*
X429497D01*
X429996Y434600D01*
Y434100D01*
X429497Y433600D01*
X428497D01*
X427997Y434100D01*
X432996Y436599D02*
X431996Y436099D01*
X430996Y435100D01*
Y434100D01*
X431496Y433600D01*
X432496D01*
X432996Y434100D01*
Y434600D01*
X432496Y435100D01*
X430996D01*
M02*
