G04*
G04 #@! TF.GenerationSoftware,Altium Limited,Altium Designer,18.1.5 (160)*
G04*
G04 Layer_Color=128*
%FSLAX25Y25*%
%MOIN*%
G70*
G01*
G75*
%ADD93C,0.00200*%
D93*
X541693Y858268D02*
X545236D01*
X543465Y856496D02*
Y860039D01*
X573189Y858268D02*
X576732D01*
X574961Y856496D02*
Y860039D01*
X563189Y858268D02*
X566732D01*
X564961Y856496D02*
Y860039D01*
X531850Y858268D02*
X535394D01*
X533622Y856496D02*
Y860039D01*
X493305Y802795D02*
X494805D01*
X494055Y802045D02*
Y803545D01*
X777846Y425197D02*
X778847D01*
X778346Y424697D02*
Y425697D01*
X399894Y425197D02*
X400894D01*
X400394Y424697D02*
Y425697D01*
X494382Y425197D02*
X495382D01*
X494882Y424697D02*
Y425697D01*
X588870Y425197D02*
X589870D01*
X589370Y424697D02*
Y425697D01*
X683358Y425197D02*
X684358D01*
X683858Y424697D02*
Y425697D01*
X305405Y425197D02*
X306405D01*
X305906Y424697D02*
Y425697D01*
X210917Y425197D02*
X211917D01*
X211417Y424697D02*
Y425697D01*
X116429Y425197D02*
X117429D01*
X116929Y424697D02*
Y425697D01*
X116429Y519685D02*
X117429D01*
X116929Y519185D02*
Y520185D01*
X210917Y519685D02*
X211917D01*
X211417Y519185D02*
Y520185D01*
X305405Y519685D02*
X306405D01*
X305906Y519185D02*
Y520185D01*
X777846Y519685D02*
X778847D01*
X778346Y519185D02*
Y520185D01*
X683358Y519685D02*
X684358D01*
X683858Y519185D02*
Y520185D01*
X588870Y519685D02*
X589870D01*
X589370Y519185D02*
Y520185D01*
X494382Y519685D02*
X495382D01*
X494882Y519185D02*
Y520185D01*
X400327Y519632D02*
X401327D01*
X400827Y519132D02*
Y520132D01*
X116429Y614173D02*
X117429D01*
X116929Y613673D02*
Y614673D01*
X210917Y614173D02*
X211917D01*
X211417Y613673D02*
Y614673D01*
X305405Y614173D02*
X306405D01*
X305906Y613673D02*
Y614673D01*
X777846Y614173D02*
X778847D01*
X778346Y613673D02*
Y614673D01*
X683358Y614173D02*
X684358D01*
X683858Y613673D02*
Y614673D01*
X588870Y614173D02*
X589870D01*
X589370Y613673D02*
Y614673D01*
X494382Y614173D02*
X495382D01*
X494882Y613673D02*
Y614673D01*
X399894Y614173D02*
X400894D01*
X400394Y613673D02*
Y614673D01*
X116429Y708661D02*
X117429D01*
X116929Y708161D02*
Y709161D01*
X210917Y708661D02*
X211917D01*
X211417Y708161D02*
Y709161D01*
X305405Y708661D02*
X306405D01*
X305906Y708161D02*
Y709161D01*
X777846Y708661D02*
X778847D01*
X778346Y708161D02*
Y709161D01*
X683358Y708661D02*
X684358D01*
X683858Y708161D02*
Y709161D01*
X588870Y708661D02*
X589870D01*
X589370Y708161D02*
Y709161D01*
X494382Y708661D02*
X495382D01*
X494882Y708161D02*
Y709161D01*
X399894Y708661D02*
X400894D01*
X400394Y708161D02*
Y709161D01*
X116429Y330709D02*
X117429D01*
X116929Y330209D02*
Y331209D01*
X210917Y330709D02*
X211917D01*
X211417Y330209D02*
Y331209D01*
X305405Y330709D02*
X306405D01*
X305906Y330209D02*
Y331209D01*
X777846Y330709D02*
X778847D01*
X778346Y330209D02*
Y331209D01*
X683358Y330709D02*
X684358D01*
X683858Y330209D02*
Y331209D01*
X588870Y330709D02*
X589870D01*
X589370Y330209D02*
Y331209D01*
X494382Y330709D02*
X495382D01*
X494882Y330209D02*
Y331209D01*
X399894Y330709D02*
X400894D01*
X400394Y330209D02*
Y331209D01*
X116429Y236221D02*
X117429D01*
X116929Y235720D02*
Y236720D01*
X210917Y236221D02*
X211917D01*
X211417Y235720D02*
Y236720D01*
X305405Y236221D02*
X306405D01*
X305906Y235720D02*
Y236720D01*
X777846Y236221D02*
X778847D01*
X778346Y235720D02*
Y236720D01*
X683358Y236221D02*
X684358D01*
X683858Y235720D02*
Y236720D01*
X588870Y236221D02*
X589870D01*
X589370Y235720D02*
Y236720D01*
X494382Y236221D02*
X495382D01*
X494882Y235720D02*
Y236720D01*
X399894Y236221D02*
X400894D01*
X400394Y235720D02*
Y236720D01*
X116429Y141732D02*
X117429D01*
X116929Y141232D02*
Y142232D01*
X210917Y141732D02*
X211917D01*
X211417Y141232D02*
Y142232D01*
X314461Y141732D02*
X315461D01*
X314961Y141232D02*
Y142232D01*
X777846Y141732D02*
X778847D01*
X778346Y141232D02*
Y142232D01*
X688476Y141732D02*
X689476D01*
X688976Y141232D02*
Y142232D01*
X588870Y141732D02*
X589870D01*
X589370Y141232D02*
Y142232D01*
X494382Y141732D02*
X495382D01*
X494882Y141232D02*
Y142232D01*
X399894Y141732D02*
X400894D01*
X400394Y141232D02*
Y142232D01*
X116429Y803150D02*
X117429D01*
X116929Y802650D02*
Y803650D01*
X210917Y803150D02*
X211917D01*
X211417Y802650D02*
Y803650D01*
X777846Y803150D02*
X778847D01*
X778346Y802650D02*
Y803650D01*
X683358Y803150D02*
X684358D01*
X683858Y802650D02*
Y803650D01*
X399894Y803150D02*
X400894D01*
X400394Y802650D02*
Y803650D01*
X305405Y803150D02*
X306405D01*
X305906Y802650D02*
Y803650D01*
X588870Y803150D02*
X589870D01*
X589370Y802650D02*
Y803650D01*
X484842Y84488D02*
X491535D01*
X488189Y81142D02*
Y87835D01*
X453346Y84488D02*
X460039D01*
X456693Y81142D02*
Y87835D01*
X469095Y84488D02*
X475787D01*
X472441Y81142D02*
Y87835D01*
X500591Y84488D02*
X507283D01*
X503937Y81142D02*
Y87835D01*
X437598Y84488D02*
X444291D01*
X440945Y81142D02*
Y87835D01*
X594685Y858268D02*
X598228D01*
X596457Y856496D02*
Y860039D01*
X604685Y858268D02*
X608228D01*
X606457Y856496D02*
Y860039D01*
X614685Y858268D02*
X618228D01*
X616457Y856496D02*
Y860039D01*
X624685Y858268D02*
X628228D01*
X626457Y856496D02*
Y860039D01*
X493209Y845039D02*
X495571D01*
X494390Y843858D02*
Y846220D01*
X449311Y845039D02*
X451673D01*
X450492Y843858D02*
Y846220D01*
X449311Y860787D02*
X451673D01*
X450492Y859606D02*
Y861969D01*
X493209Y860787D02*
X495571D01*
X494390Y859606D02*
Y861969D01*
X390632Y740433D02*
X392232D01*
X391432Y739633D02*
Y741233D01*
X466410Y724605D02*
X467210D01*
X466810Y724205D02*
Y725005D01*
X460841Y723577D02*
X461641D01*
X461241Y723177D02*
Y723977D01*
X462492Y604331D02*
X463492D01*
X462992Y603831D02*
Y604831D01*
X486405Y677638D02*
X488005D01*
X487205Y676838D02*
Y678438D01*
X370145Y529528D02*
X371745D01*
X370945Y528728D02*
Y530328D01*
X573294Y533386D02*
X574895D01*
X574094Y532586D02*
Y534186D01*
X329909Y527559D02*
X331509D01*
X330709Y526759D02*
Y528359D01*
X652743Y519291D02*
X654343D01*
X653543Y518491D02*
Y520091D01*
X489018Y172726D02*
X490018D01*
X489518Y172226D02*
Y173226D01*
X655905Y525618D02*
X656906D01*
X656405Y525118D02*
Y526118D01*
X652874Y525618D02*
X653874D01*
X653374Y525118D02*
Y526118D01*
X470844Y793307D02*
X471644D01*
X471244Y792907D02*
Y793707D01*
X474954Y784252D02*
X475754D01*
X475354Y783852D02*
Y784652D01*
X504324Y816929D02*
X505124D01*
X504724Y816529D02*
Y817329D01*
X536011Y841732D02*
X537611D01*
X536811Y840932D02*
Y842532D01*
X564173Y824016D02*
X567323D01*
X565748Y822441D02*
Y825591D01*
X480747Y702402D02*
X481547D01*
X481147Y702002D02*
Y702802D01*
X478437Y563099D02*
X479437D01*
X478937Y562599D02*
Y563599D01*
X478437Y565748D02*
X479437D01*
X478937Y565248D02*
Y566248D01*
X478437Y560394D02*
X479437D01*
X478937Y559894D02*
Y560894D01*
X489106Y670079D02*
X490106D01*
X489606Y669579D02*
Y670579D01*
X492256Y670079D02*
X493256D01*
X492756Y669579D02*
Y670579D01*
X383752Y514291D02*
X384752D01*
X384252Y513791D02*
Y514791D01*
X383752Y510039D02*
X384752D01*
X384252Y509539D02*
Y510539D01*
X392098Y748032D02*
X393098D01*
X392598Y747532D02*
Y748531D01*
X569791Y546142D02*
X571390D01*
X570590Y545342D02*
Y546942D01*
X557402Y543701D02*
X558402D01*
X557902Y543201D02*
Y544201D01*
X559567Y541535D02*
X560567D01*
X560067Y541035D02*
Y542035D01*
X659418Y806819D02*
X660418D01*
X659918Y806319D02*
Y807319D01*
X654772Y811669D02*
X655772D01*
X655272Y811169D02*
Y812169D01*
X657095Y809244D02*
X658095D01*
X657595Y808744D02*
Y809744D01*
X500130Y764370D02*
X501130D01*
X500630Y763870D02*
Y764870D01*
X500131Y767167D02*
X501131D01*
X500631Y766667D02*
Y767667D01*
X500129Y761573D02*
X501129D01*
X500629Y761073D02*
Y762073D01*
X499067Y749016D02*
X500067D01*
X499567Y748516D02*
Y749516D01*
X531429Y759921D02*
X532429D01*
X531929Y759421D02*
Y760421D01*
X531429Y762480D02*
X532429D01*
X531929Y761980D02*
Y762980D01*
X489933Y764764D02*
X490933D01*
X490433Y764264D02*
Y765264D01*
X483452Y740158D02*
X485052D01*
X484252Y739358D02*
Y740957D01*
X584264Y762480D02*
X585264D01*
X584764Y761980D02*
Y762980D01*
X584264Y759921D02*
X585264D01*
X584764Y759421D02*
Y760421D01*
X660839Y534331D02*
X661839D01*
X661339Y533831D02*
Y534831D01*
X663870Y534331D02*
X664870D01*
X664370Y533831D02*
Y534831D01*
X666902Y534331D02*
X667902D01*
X667402Y533831D02*
Y534831D01*
X576988Y560394D02*
X577988D01*
X577488Y559894D02*
Y560894D01*
X569869Y164173D02*
X571469D01*
X570669Y163373D02*
Y164973D01*
X459830Y767717D02*
X461430D01*
X460630Y766917D02*
Y768516D01*
X483452Y767717D02*
X485052D01*
X484252Y766917D02*
Y768516D01*
X707861Y533386D02*
X709461D01*
X708661Y532586D02*
Y534186D01*
X464461Y180226D02*
X465461D01*
X464961Y179726D02*
Y180726D01*
X479658Y170669D02*
X480657D01*
X480158Y170169D02*
Y171169D01*
X518885Y783465D02*
X520485D01*
X519685Y782665D02*
Y784265D01*
X669594Y811890D02*
X671194D01*
X670394Y811090D02*
Y812690D01*
X474554Y830063D02*
X476154D01*
X475354Y829263D02*
Y830863D01*
X511011Y783465D02*
X512611D01*
X511811Y782665D02*
Y784265D01*
X528285Y789448D02*
X530285D01*
X529285Y788448D02*
Y790448D01*
X465151Y834764D02*
X465951D01*
X465551Y834364D02*
Y835164D01*
X471057Y835827D02*
X471857D01*
X471457Y835427D02*
Y836227D01*
X473025Y834764D02*
X473825D01*
X473425Y834364D02*
Y835164D01*
X474994Y836654D02*
X475794D01*
X475394Y836254D02*
Y837053D01*
X376507Y195047D02*
X377507D01*
X377007Y194547D02*
Y195547D01*
X374067Y195047D02*
X375067D01*
X374567Y194547D02*
Y195547D01*
X378949Y754921D02*
X379949D01*
X379449Y754421D02*
Y755421D01*
X374067Y750984D02*
X375067D01*
X374567Y750484D02*
Y751484D01*
X376508Y750984D02*
X377508D01*
X377008Y750484D02*
Y751484D01*
X462886Y167913D02*
X463886D01*
X463386Y167413D02*
Y168413D01*
X479658Y182728D02*
X480657D01*
X480158Y182228D02*
Y183228D01*
X381390Y134528D02*
X382390D01*
X381890Y134028D02*
Y135028D01*
X378949Y231614D02*
X379949D01*
X379449Y231114D02*
Y232114D01*
X381390Y754921D02*
X382390D01*
X381890Y754421D02*
Y755421D01*
X631383Y802205D02*
X632383D01*
X631883Y801705D02*
Y802705D01*
X444915Y742795D02*
X445715D01*
X445315Y742395D02*
Y743195D01*
X226120Y128030D02*
X227120D01*
X226621Y127530D02*
Y128530D01*
X104547Y826772D02*
X105547D01*
X105047Y826272D02*
Y827272D01*
X199035Y834488D02*
X200035D01*
X199535Y833988D02*
Y834988D01*
X293524Y832701D02*
X294524D01*
X294024Y832201D02*
Y833201D01*
X388012Y830909D02*
X389012D01*
X388512Y830409D02*
Y831409D01*
X465151Y782480D02*
X465951D01*
X465551Y782080D02*
Y782880D01*
X466079Y330709D02*
X467079D01*
X466579Y330209D02*
Y331209D01*
X465291Y425197D02*
X466291D01*
X465791Y424697D02*
Y425697D01*
X475342Y506693D02*
X476942D01*
X476142Y505893D02*
Y507493D01*
X464291Y519685D02*
X465291D01*
X464791Y519185D02*
Y520185D01*
X439718Y766732D02*
X440518D01*
X440118Y766332D02*
Y767132D01*
X439718Y764724D02*
X440518D01*
X440118Y764324D02*
Y765124D01*
X459246Y728740D02*
X460046D01*
X459646Y728340D02*
Y729140D01*
X509697Y690551D02*
X510697D01*
X510197Y690051D02*
Y691051D01*
X480899Y728622D02*
X481699D01*
X481299Y728222D02*
Y729022D01*
X467120Y835827D02*
X467920D01*
X467520Y835427D02*
Y836227D01*
X478930Y837598D02*
X479730D01*
X479330Y837198D02*
Y837998D01*
X812250Y155434D02*
X813250D01*
X812750Y154934D02*
Y155934D01*
X150332Y128030D02*
X152332D01*
X151332Y127030D02*
Y129030D01*
X150332Y222519D02*
X152332D01*
X151332Y221519D02*
Y223519D01*
X244820Y128030D02*
X246820D01*
X245820Y127030D02*
Y129030D01*
X244820Y222519D02*
X246820D01*
X245820Y221519D02*
Y223519D01*
X150332Y317007D02*
X152332D01*
X151332Y316007D02*
Y318007D01*
X150332Y411495D02*
X152332D01*
X151332Y410495D02*
Y412495D01*
X244820Y317007D02*
X246820D01*
X245820Y316007D02*
Y318007D01*
X244820Y411495D02*
X246820D01*
X245820Y410495D02*
Y412495D01*
X339309Y128030D02*
X341309D01*
X340309Y127030D02*
Y129030D01*
X339309Y222519D02*
X341309D01*
X340309Y221519D02*
Y223519D01*
X433797Y128030D02*
X435797D01*
X434797Y127030D02*
Y129030D01*
X433797Y222519D02*
X435797D01*
X434797Y221519D02*
Y223519D01*
X339309Y317007D02*
X341309D01*
X340309Y316007D02*
Y318007D01*
X339309Y411495D02*
X341309D01*
X340309Y410495D02*
Y412495D01*
X433797Y317007D02*
X435797D01*
X434797Y316007D02*
Y318007D01*
X433797Y411495D02*
X435797D01*
X434797Y410495D02*
Y412495D01*
X150332Y505983D02*
X152332D01*
X151332Y504983D02*
Y506983D01*
X150332Y600471D02*
X152332D01*
X151332Y599471D02*
Y601471D01*
X244820Y505983D02*
X246820D01*
X245820Y504983D02*
Y506983D01*
X244820Y600471D02*
X246820D01*
X245820Y599471D02*
Y601471D01*
X150332Y694959D02*
X152332D01*
X151332Y693960D02*
Y695960D01*
X150332Y789448D02*
X152332D01*
X151332Y788448D02*
Y790448D01*
X244820Y694959D02*
X246820D01*
X245820Y693960D02*
Y695960D01*
X244820Y789448D02*
X246820D01*
X245820Y788448D02*
Y790448D01*
X339309Y505983D02*
X341309D01*
X340309Y504983D02*
Y506983D01*
X433797Y505983D02*
X435797D01*
X434797Y504983D02*
Y506983D01*
X339309Y600471D02*
X341309D01*
X340309Y599471D02*
Y601471D01*
X339309Y694959D02*
X341309D01*
X340309Y693960D02*
Y695960D01*
X339309Y789448D02*
X341309D01*
X340309Y788448D02*
Y790448D01*
X433797Y600471D02*
X435797D01*
X434797Y599471D02*
Y601471D01*
X429512Y690674D02*
X431512D01*
X430512Y689675D02*
Y691675D01*
X433646Y789449D02*
X435646D01*
X434646Y788449D02*
Y790449D01*
X528285Y128030D02*
X530285D01*
X529285Y127030D02*
Y129030D01*
X528285Y222519D02*
X530285D01*
X529285Y221519D02*
Y223519D01*
X564685Y106941D02*
X566653D01*
X565669Y105957D02*
Y107925D01*
X622773Y128030D02*
X624773D01*
X623773Y127030D02*
Y129030D01*
X564685Y201429D02*
X566653D01*
X565669Y200445D02*
Y202413D01*
X622773Y222519D02*
X624773D01*
X623773Y221519D02*
Y223519D01*
X528285Y317007D02*
X530285D01*
X529285Y316007D02*
Y318007D01*
X528285Y411495D02*
X530285D01*
X529285Y410495D02*
Y412495D01*
X564685Y295917D02*
X566653D01*
X565669Y294933D02*
Y296902D01*
X622773Y317007D02*
X624773D01*
X623773Y316007D02*
Y318007D01*
X564685Y390406D02*
X566653D01*
X565669Y389421D02*
Y391390D01*
X564685Y484646D02*
X566653D01*
X565669Y483661D02*
Y485630D01*
X622773Y411495D02*
X624773D01*
X623773Y410495D02*
Y412495D01*
X717261Y128030D02*
X719261D01*
X718261Y127030D02*
Y129030D01*
X811750Y128030D02*
X813750D01*
X812750Y127030D02*
Y129030D01*
X717261Y222519D02*
X719261D01*
X718261Y221519D02*
Y223519D01*
X811750Y222519D02*
X813750D01*
X812750Y221519D02*
Y223519D01*
X717261Y317007D02*
X719261D01*
X718261Y316007D02*
Y318007D01*
X811750Y317007D02*
X813750D01*
X812750Y316007D02*
Y318007D01*
X717261Y411495D02*
X719261D01*
X718261Y410495D02*
Y412495D01*
X811750Y411495D02*
X813750D01*
X812750Y410495D02*
Y412495D01*
X528285Y505983D02*
X530285D01*
X529285Y504983D02*
Y506983D01*
X528285Y600471D02*
X530285D01*
X529285Y599471D02*
Y601471D01*
X564685Y579095D02*
X566653D01*
X565669Y578110D02*
Y580079D01*
X622773Y505983D02*
X624773D01*
X623773Y504983D02*
Y506983D01*
X564685Y673779D02*
X566653D01*
X565669Y672795D02*
Y674764D01*
X622773Y600471D02*
X624773D01*
X623773Y599471D02*
Y601471D01*
X528285Y694959D02*
X530285D01*
X529285Y693960D02*
Y695960D01*
X564764Y768358D02*
X566732D01*
X565748Y767374D02*
Y769343D01*
X622773Y789448D02*
X624773D01*
X623773Y788448D02*
Y790448D01*
X717261Y505983D02*
X719261D01*
X718261Y504983D02*
Y506983D01*
X811750Y505983D02*
X813750D01*
X812750Y504983D02*
Y506983D01*
X717261Y600471D02*
X719261D01*
X718261Y599471D02*
Y601471D01*
X811750Y600471D02*
X813750D01*
X812750Y599471D02*
Y601471D01*
X622773Y694959D02*
X624773D01*
X623773Y693960D02*
Y695960D01*
X717261Y694959D02*
X719261D01*
X718261Y693960D02*
Y695960D01*
X717261Y789448D02*
X719261D01*
X718261Y788448D02*
Y790448D01*
X811750Y694959D02*
X813750D01*
X812750Y693960D02*
Y695960D01*
X811750Y789448D02*
X813750D01*
X812750Y788448D02*
Y790448D01*
X499345Y814941D02*
X500145D01*
X499745Y814541D02*
Y815341D01*
X717761Y155434D02*
X718761D01*
X718261Y154934D02*
Y155934D01*
X793050Y128030D02*
X794050D01*
X793550Y127530D02*
Y128530D01*
X623273Y155434D02*
X624273D01*
X623773Y154934D02*
Y155934D01*
X698561Y128030D02*
X699561D01*
X699061Y127530D02*
Y128530D01*
X528785Y155434D02*
X529785D01*
X529285Y154934D02*
Y155934D01*
X604073Y128030D02*
X605073D01*
X604573Y127530D02*
Y128530D01*
X434297Y155434D02*
X435297D01*
X434797Y154934D02*
Y155934D01*
X509585Y128030D02*
X510585D01*
X510085Y127530D02*
Y128530D01*
X339809Y155434D02*
X340809D01*
X340309Y154934D02*
Y155934D01*
X415097Y128030D02*
X416097D01*
X415597Y127530D02*
Y128530D01*
X245321Y155434D02*
X246321D01*
X245820Y154934D02*
Y155934D01*
X320609Y128030D02*
X321609D01*
X321109Y127530D02*
Y128530D01*
X150832Y155434D02*
X151832D01*
X151332Y154934D02*
Y155934D01*
X131632Y128030D02*
X132632D01*
X132132Y127530D02*
Y128530D01*
X812250Y249922D02*
X813250D01*
X812750Y249422D02*
Y250422D01*
X717761Y249922D02*
X718761D01*
X718261Y249422D02*
Y250422D01*
X793050Y222519D02*
X794050D01*
X793550Y222019D02*
Y223019D01*
X623273Y249922D02*
X624273D01*
X623773Y249422D02*
Y250422D01*
X698561Y222519D02*
X699561D01*
X699061Y222019D02*
Y223019D01*
X528785Y249922D02*
X529785D01*
X529285Y249422D02*
Y250422D01*
X604073Y222519D02*
X605073D01*
X604573Y222019D02*
Y223019D01*
X434297Y249922D02*
X435297D01*
X434797Y249422D02*
Y250422D01*
X509585Y222519D02*
X510585D01*
X510085Y222019D02*
Y223019D01*
X339809Y249922D02*
X340809D01*
X340309Y249422D02*
Y250422D01*
X415097Y222519D02*
X416097D01*
X415597Y222019D02*
Y223019D01*
X245321Y249922D02*
X246321D01*
X245820Y249422D02*
Y250422D01*
X320609Y222519D02*
X321609D01*
X321109Y222019D02*
Y223019D01*
X150832Y249922D02*
X151832D01*
X151332Y249422D02*
Y250422D01*
X226120Y222519D02*
X227120D01*
X226621Y222019D02*
Y223019D01*
X131632Y222519D02*
X132632D01*
X132132Y222019D02*
Y223019D01*
X812250Y344411D02*
X813250D01*
X812750Y343911D02*
Y344911D01*
X717761Y344411D02*
X718761D01*
X718261Y343911D02*
Y344911D01*
X793050Y317007D02*
X794050D01*
X793550Y316507D02*
Y317507D01*
X623273Y344411D02*
X624273D01*
X623773Y343911D02*
Y344911D01*
X698561Y317007D02*
X699561D01*
X699061Y316507D02*
Y317507D01*
X528785Y344411D02*
X529785D01*
X529285Y343911D02*
Y344911D01*
X604073Y317007D02*
X605073D01*
X604573Y316507D02*
Y317507D01*
X434297Y344411D02*
X435297D01*
X434797Y343911D02*
Y344911D01*
X509585Y317007D02*
X510585D01*
X510085Y316507D02*
Y317507D01*
X339809Y344411D02*
X340809D01*
X340309Y343911D02*
Y344911D01*
X415097Y317007D02*
X416097D01*
X415597Y316507D02*
Y317507D01*
X245321Y344411D02*
X246321D01*
X245820Y343911D02*
Y344911D01*
X320609Y317007D02*
X321609D01*
X321109Y316507D02*
Y317507D01*
X150832Y344411D02*
X151832D01*
X151332Y343911D02*
Y344911D01*
X226120Y317007D02*
X227120D01*
X226621Y316507D02*
Y317507D01*
X131632Y317007D02*
X132632D01*
X132132Y316507D02*
Y317507D01*
X812250Y438899D02*
X813250D01*
X812750Y438399D02*
Y439399D01*
X717761Y438899D02*
X718761D01*
X718261Y438399D02*
Y439399D01*
X793050Y411495D02*
X794050D01*
X793550Y410995D02*
Y411995D01*
X623273Y438899D02*
X624273D01*
X623773Y438399D02*
Y439399D01*
X698561Y411495D02*
X699561D01*
X699061Y410995D02*
Y411995D01*
X528785Y438899D02*
X529785D01*
X529285Y438399D02*
Y439399D01*
X604073Y411495D02*
X605073D01*
X604573Y410995D02*
Y411995D01*
X434297Y438899D02*
X435297D01*
X434797Y438399D02*
Y439399D01*
X509585Y411495D02*
X510585D01*
X510085Y410995D02*
Y411995D01*
X339809Y438899D02*
X340809D01*
X340309Y438399D02*
Y439399D01*
X415097Y411495D02*
X416097D01*
X415597Y410995D02*
Y411995D01*
X245321Y438899D02*
X246321D01*
X245820Y438399D02*
Y439399D01*
X320609Y411495D02*
X321609D01*
X321109Y410995D02*
Y411995D01*
X150832Y438899D02*
X151832D01*
X151332Y438399D02*
Y439399D01*
X226120Y411495D02*
X227120D01*
X226621Y410995D02*
Y411995D01*
X131632Y411495D02*
X132632D01*
X132132Y410995D02*
Y411995D01*
X812250Y533387D02*
X813250D01*
X812750Y532887D02*
Y533887D01*
X793050Y505983D02*
X794050D01*
X793550Y505483D02*
Y506483D01*
X717761Y533387D02*
X718761D01*
X718261Y532887D02*
Y533887D01*
X623273Y533387D02*
X624273D01*
X623773Y532887D02*
Y533887D01*
X698561Y505983D02*
X699561D01*
X699061Y505483D02*
Y506483D01*
X528785Y533387D02*
X529785D01*
X529285Y532887D02*
Y533887D01*
X604073Y505983D02*
X605073D01*
X604573Y505483D02*
Y506483D01*
X434297Y533387D02*
X435297D01*
X434797Y532887D02*
Y533887D01*
X509585Y505983D02*
X510585D01*
X510085Y505483D02*
Y506483D01*
X339809Y533387D02*
X340809D01*
X340309Y532887D02*
Y533887D01*
X415097Y505983D02*
X416097D01*
X415597Y505483D02*
Y506483D01*
X245321Y533387D02*
X246321D01*
X245820Y532887D02*
Y533887D01*
X320609Y505983D02*
X321609D01*
X321109Y505483D02*
Y506483D01*
X150832Y533387D02*
X151832D01*
X151332Y532887D02*
Y533887D01*
X226120Y505983D02*
X227120D01*
X226621Y505483D02*
Y506483D01*
X131632Y505983D02*
X132632D01*
X132132Y505483D02*
Y506483D01*
X812250Y627875D02*
X813250D01*
X812750Y627375D02*
Y628375D01*
X717761Y627875D02*
X718761D01*
X718261Y627375D02*
Y628375D01*
X793050Y600471D02*
X794050D01*
X793550Y599971D02*
Y600971D01*
X623273Y627875D02*
X624273D01*
X623773Y627375D02*
Y628375D01*
X698561Y600471D02*
X699561D01*
X699061Y599971D02*
Y600971D01*
X528785Y627875D02*
X529785D01*
X529285Y627375D02*
Y628375D01*
X604073Y600471D02*
X605073D01*
X604573Y599971D02*
Y600971D01*
X434297Y627875D02*
X435297D01*
X434797Y627375D02*
Y628375D01*
X509585Y600471D02*
X510585D01*
X510085Y599971D02*
Y600971D01*
X339809Y627875D02*
X340809D01*
X340309Y627375D02*
Y628375D01*
X415097Y600471D02*
X416097D01*
X415597Y599971D02*
Y600971D01*
X245321Y627875D02*
X246321D01*
X245820Y627375D02*
Y628375D01*
X320609Y600471D02*
X321609D01*
X321109Y599971D02*
Y600971D01*
X150832Y627875D02*
X151832D01*
X151332Y627375D02*
Y628375D01*
X226120Y600471D02*
X227120D01*
X226621Y599971D02*
Y600971D01*
X131632Y600471D02*
X132632D01*
X132132Y599971D02*
Y600971D01*
X812250Y722363D02*
X813250D01*
X812750Y721863D02*
Y722863D01*
X717761Y722363D02*
X718761D01*
X718261Y721863D02*
Y722863D01*
X793050Y694959D02*
X794050D01*
X793550Y694459D02*
Y695460D01*
X623273Y722363D02*
X624273D01*
X623773Y721863D02*
Y722863D01*
X698561Y694959D02*
X699561D01*
X699061Y694459D02*
Y695460D01*
X528785Y722363D02*
X529785D01*
X529285Y721863D02*
Y722863D01*
X604073Y694959D02*
X605073D01*
X604573Y694459D02*
Y695460D01*
X434297Y707559D02*
X435297D01*
X434797Y707059D02*
Y708060D01*
X339809Y722363D02*
X340809D01*
X340309Y721863D02*
Y722863D01*
X415097Y694959D02*
X416097D01*
X415597Y694459D02*
Y695460D01*
X245321Y722363D02*
X246321D01*
X245820Y721863D02*
Y722863D01*
X320609Y694959D02*
X321609D01*
X321109Y694459D02*
Y695460D01*
X150832Y722363D02*
X151832D01*
X151332Y721863D02*
Y722863D01*
X226120Y694959D02*
X227120D01*
X226621Y694459D02*
Y695460D01*
X131632Y669140D02*
X132632D01*
X132132Y668640D02*
Y669640D01*
X131632Y657238D02*
X132632D01*
X132132Y656738D02*
Y657738D01*
X798298Y665985D02*
X799298D01*
X798798Y665485D02*
Y666485D01*
X832944Y665985D02*
X833944D01*
X833444Y665485D02*
Y666485D01*
X131632Y694959D02*
X132632D01*
X132132Y694459D02*
Y695460D01*
X812250Y816852D02*
X813250D01*
X812750Y816352D02*
Y817352D01*
X793050Y789448D02*
X794050D01*
X793550Y788948D02*
Y789948D01*
X717761Y816852D02*
X718761D01*
X718261Y816352D02*
Y817352D01*
X698561Y789448D02*
X699561D01*
X699061Y788948D02*
Y789948D01*
X538475Y794487D02*
X539475D01*
X538975Y793987D02*
Y794987D01*
X604073Y789448D02*
X605073D01*
X604573Y788948D02*
Y789948D01*
X395248Y748032D02*
X396248D01*
X395748Y747532D02*
Y748531D01*
X425484Y762992D02*
X426484D01*
X425984Y762492D02*
Y763492D01*
X434297Y816852D02*
X435297D01*
X434797Y816352D02*
Y817352D01*
X510129Y789368D02*
X511129D01*
X510629Y788869D02*
Y789868D01*
X339809Y816852D02*
X340809D01*
X340309Y816352D02*
Y817352D01*
X415097Y789448D02*
X416097D01*
X415597Y788948D02*
Y789948D01*
X320609Y789448D02*
X321609D01*
X321109Y788948D02*
Y789948D01*
X245321Y816852D02*
X246321D01*
X245820Y816352D02*
Y817352D01*
X226120Y789448D02*
X227120D01*
X226621Y788948D02*
Y789948D01*
X150832Y816852D02*
X151832D01*
X151332Y816352D02*
Y817352D01*
X131632Y789448D02*
X132632D01*
X132132Y788948D02*
Y789948D01*
X422335Y762992D02*
X423335D01*
X422835Y762492D02*
Y763492D01*
X766035Y566535D02*
X767035D01*
X766535Y566035D02*
Y567035D01*
X484877Y727364D02*
X485677D01*
X485277Y726964D02*
Y727764D01*
X671547Y563099D02*
X672547D01*
X672047Y562599D02*
Y563599D01*
X482868Y727953D02*
X483668D01*
X483268Y727553D02*
Y728353D01*
X131332Y155434D02*
X132932D01*
X132132Y154634D02*
Y156234D01*
X225820Y155434D02*
X227420D01*
X226621Y154634D02*
Y156234D01*
X131332Y249922D02*
X132932D01*
X132132Y249122D02*
Y250722D01*
X225820Y249922D02*
X227420D01*
X226621Y249122D02*
Y250722D01*
X274791Y141142D02*
X276391D01*
X275591Y140342D02*
Y141942D01*
X282665Y141142D02*
X284265D01*
X283465Y140342D02*
Y141942D01*
X290539Y141142D02*
X292139D01*
X291339Y140342D02*
Y141942D01*
X286424Y188976D02*
X288024D01*
X287224Y188176D02*
Y189776D01*
X286602Y220472D02*
X288202D01*
X287402Y219672D02*
Y221272D01*
X131332Y344411D02*
X132932D01*
X132132Y343611D02*
Y345211D01*
X131332Y438899D02*
X132932D01*
X132132Y438099D02*
Y439699D01*
X225820Y344411D02*
X227420D01*
X226621Y343611D02*
Y345211D01*
X273031Y283465D02*
X293898D01*
X283465Y273031D02*
Y293898D01*
X286424Y377953D02*
X288024D01*
X287224Y377153D02*
Y378753D01*
X286602Y314961D02*
X288202D01*
X287402Y314161D02*
Y315761D01*
X225820Y438899D02*
X227420D01*
X226621Y438099D02*
Y439699D01*
X286424Y440945D02*
X288024D01*
X287224Y440145D02*
Y441745D01*
X286602Y409449D02*
X288202D01*
X287402Y408649D02*
Y410249D01*
X286602Y503937D02*
X288202D01*
X287402Y503137D02*
Y504737D01*
X320309Y155434D02*
X321909D01*
X321109Y154634D02*
Y156234D01*
X320309Y249922D02*
X321909D01*
X321109Y249122D02*
Y250722D01*
X414797Y155434D02*
X416397D01*
X415597Y154634D02*
Y156234D01*
X475578Y125984D02*
X477178D01*
X476378Y125184D02*
Y126784D01*
X414797Y249922D02*
X416397D01*
X415597Y249122D02*
Y250722D01*
X475578Y220472D02*
X477178D01*
X476378Y219672D02*
Y221272D01*
X475578Y314961D02*
X477178D01*
X476378Y314161D02*
Y315761D01*
X320309Y344411D02*
X321909D01*
X321109Y343611D02*
Y345211D01*
X320309Y438899D02*
X321909D01*
X321109Y438099D02*
Y439699D01*
X414797Y344411D02*
X416397D01*
X415597Y343611D02*
Y345211D01*
X475401Y377953D02*
X477001D01*
X476201Y377153D02*
Y378753D01*
X475578Y409449D02*
X477178D01*
X476378Y408649D02*
Y410249D01*
X414797Y438899D02*
X416397D01*
X415597Y438099D02*
Y439699D01*
X131332Y533387D02*
X132932D01*
X132132Y532587D02*
Y534187D01*
X225820Y533387D02*
X227420D01*
X226621Y532587D02*
Y534187D01*
X131332Y627875D02*
X132932D01*
X132132Y627075D02*
Y628675D01*
X225820Y627875D02*
X227420D01*
X226621Y627075D02*
Y628675D01*
X282665Y519291D02*
X284265D01*
X283465Y518491D02*
Y520091D01*
X286602Y598425D02*
X288202D01*
X287402Y597625D02*
Y599225D01*
X320309Y533387D02*
X321909D01*
X321109Y532587D02*
Y534187D01*
X273031Y661417D02*
X293898D01*
X283465Y650984D02*
Y671850D01*
X320309Y627875D02*
X321909D01*
X321109Y627075D02*
Y628675D01*
X392901Y681102D02*
X394501D01*
X393701Y680302D02*
Y681902D01*
X131332Y722363D02*
X132932D01*
X132132Y721563D02*
Y723163D01*
X170853Y755905D02*
X172453D01*
X171653Y755105D02*
Y756706D01*
X225820Y722363D02*
X227420D01*
X226621Y721563D02*
Y723163D01*
X131332Y816852D02*
X132932D01*
X132132Y816051D02*
Y817651D01*
X225820Y816852D02*
X227420D01*
X226621Y816051D02*
Y817651D01*
X286602Y692913D02*
X288202D01*
X287402Y692113D02*
Y693713D01*
X320309Y722363D02*
X321909D01*
X321109Y721563D02*
Y723163D01*
X286602Y787402D02*
X288202D01*
X287402Y786602D02*
Y788202D01*
X320309Y816852D02*
X321909D01*
X321109Y816051D02*
Y817651D01*
X414797Y533387D02*
X416397D01*
X415597Y532587D02*
Y534187D01*
X414797Y627875D02*
X416397D01*
X415597Y627075D02*
Y628675D01*
X414797Y722363D02*
X416397D01*
X415597Y721563D02*
Y723163D01*
X476562Y532874D02*
X478162D01*
X477362Y532074D02*
Y533674D01*
X463769Y763713D02*
X465369D01*
X464569Y762913D02*
Y764513D01*
X414797Y816852D02*
X416397D01*
X415597Y816051D02*
Y817651D01*
X479515Y748032D02*
X481115D01*
X480315Y747231D02*
Y748832D01*
X471641Y763779D02*
X473241D01*
X472441Y762980D02*
Y764579D01*
X471641Y755905D02*
X473241D01*
X472441Y755105D02*
Y756706D01*
X479515Y755905D02*
X481115D01*
X480315Y755105D02*
Y756706D01*
X479515Y763779D02*
X481115D01*
X480315Y762980D02*
Y764579D01*
X509285Y155434D02*
X510885D01*
X510085Y154634D02*
Y156234D01*
X603773Y155434D02*
X605373D01*
X604573Y154634D02*
Y156234D01*
X509285Y249922D02*
X510885D01*
X510085Y249122D02*
Y250722D01*
X603773Y249922D02*
X605373D01*
X604573Y249122D02*
Y250722D01*
X652743Y141142D02*
X654343D01*
X653543Y140342D02*
Y141942D01*
X660617Y141142D02*
X662217D01*
X661417Y140342D02*
Y141942D01*
X668491Y141142D02*
X670091D01*
X669291Y140342D02*
Y141942D01*
X664377Y188976D02*
X665977D01*
X665177Y188176D02*
Y189776D01*
X664554Y220472D02*
X666154D01*
X665354Y219672D02*
Y221272D01*
X509285Y344411D02*
X510885D01*
X510085Y343611D02*
Y345211D01*
X509285Y438899D02*
X510885D01*
X510085Y438099D02*
Y439699D01*
X603773Y344411D02*
X605373D01*
X604573Y343611D02*
Y345211D01*
X650984Y283465D02*
X671850D01*
X661417Y273031D02*
Y293898D01*
X664377Y377953D02*
X665977D01*
X665177Y377153D02*
Y378753D01*
X664554Y314961D02*
X666154D01*
X665354Y314161D02*
Y315761D01*
X603773Y438899D02*
X605373D01*
X604573Y438099D02*
Y439699D01*
X663885Y447795D02*
X665485D01*
X664685Y446995D02*
Y448595D01*
X664554Y409449D02*
X666154D01*
X665354Y408649D02*
Y410249D01*
X668491Y519291D02*
X670091D01*
X669291Y518491D02*
Y520091D01*
X698261Y155434D02*
X699861D01*
X699061Y154634D02*
Y156234D01*
X758865Y188976D02*
X760465D01*
X759665Y188176D02*
Y189776D01*
X759043Y125984D02*
X760642D01*
X759842Y125184D02*
Y126784D01*
X698261Y249922D02*
X699861D01*
X699061Y249122D02*
Y250722D01*
X759043Y314961D02*
X760642D01*
X759842Y314161D02*
Y315761D01*
X792750Y155434D02*
X794350D01*
X793550Y154634D02*
Y156234D01*
X759043Y220472D02*
X760642D01*
X759842Y219672D02*
Y221272D01*
X792750Y249922D02*
X794350D01*
X793550Y249122D02*
Y250722D01*
X698261Y344411D02*
X699861D01*
X699061Y343611D02*
Y345211D01*
X758865Y377953D02*
X760465D01*
X759665Y377153D02*
Y378753D01*
X759043Y409449D02*
X760642D01*
X759842Y408649D02*
Y410249D01*
X698261Y438899D02*
X699861D01*
X699061Y438099D02*
Y439699D01*
X758865Y453227D02*
X760465D01*
X759665Y452427D02*
Y454027D01*
X792750Y344411D02*
X794350D01*
X793550Y343611D02*
Y345211D01*
X759043Y503937D02*
X760642D01*
X759842Y503137D02*
Y504737D01*
X792750Y438899D02*
X794350D01*
X793550Y438099D02*
Y439699D01*
X509285Y533387D02*
X510885D01*
X510085Y532587D02*
Y534187D01*
X509285Y627875D02*
X510885D01*
X510085Y627075D02*
Y628675D01*
X603773Y533387D02*
X605373D01*
X604573Y532587D02*
Y534187D01*
X516129Y722047D02*
X517729D01*
X516929Y721247D02*
Y722847D01*
X603773Y627875D02*
X605373D01*
X604573Y627075D02*
Y628675D01*
X603773Y722363D02*
X605373D01*
X604573Y721563D02*
Y723163D01*
X595027Y796063D02*
X596627D01*
X595827Y795263D02*
Y796863D01*
X677704Y585394D02*
X679304D01*
X678504Y584594D02*
Y586194D01*
X698261Y533387D02*
X699861D01*
X699061Y532587D02*
Y534187D01*
X664554Y692913D02*
X666154D01*
X665354Y692113D02*
Y693713D01*
X698261Y627875D02*
X699861D01*
X699061Y627075D02*
Y628675D01*
X650984Y661417D02*
X671850D01*
X661417Y650984D02*
Y671850D01*
X792750Y533387D02*
X794350D01*
X793550Y532587D02*
Y534187D01*
X758865Y539525D02*
X760465D01*
X759665Y538725D02*
Y540325D01*
X759043Y598425D02*
X760642D01*
X759842Y597625D02*
Y599225D01*
X759043Y692913D02*
X760642D01*
X759842Y692113D02*
Y693713D01*
X792750Y627875D02*
X794350D01*
X793550Y627075D02*
Y628675D01*
X664554Y787402D02*
X666154D01*
X665354Y786602D02*
Y788202D01*
X698261Y722363D02*
X699861D01*
X699061Y721563D02*
Y723163D01*
X611168Y824331D02*
X612769D01*
X611969Y823531D02*
Y825131D01*
X643413Y830433D02*
X645013D01*
X644213Y829633D02*
Y831233D01*
X698261Y816852D02*
X699861D01*
X699061Y816051D02*
Y817651D01*
X755105Y755905D02*
X756706D01*
X755905Y755105D02*
Y756706D01*
X759043Y787402D02*
X760642D01*
X759842Y786602D02*
Y788202D01*
X792750Y722363D02*
X794350D01*
X793550Y721563D02*
Y723163D01*
X754906Y803150D02*
X756906D01*
X755905Y802150D02*
Y804150D01*
X792750Y816852D02*
X794350D01*
X793550Y816051D02*
Y817651D01*
X469088Y834764D02*
X469888D01*
X469488Y834364D02*
Y835164D01*
X476962Y782393D02*
X477762D01*
X477362Y781993D02*
Y782793D01*
X463767Y755905D02*
X465367D01*
X464567Y755105D02*
Y756706D01*
X471641Y748032D02*
X473241D01*
X472441Y747231D02*
Y748832D01*
X463767Y748032D02*
X465367D01*
X464567Y747231D02*
Y748832D01*
X471641Y472441D02*
X473241D01*
X472441Y471641D02*
Y473241D01*
M02*
