M48
;Layer_Color=9474304
;FILE_FORMAT=2:5
INCH,LZ
;TYPE=PLATED
T1F00S00C0.00800
T2F00S00C0.01000
T3F00S00C0.01500
T4F00S00C0.01600
T5F00S00C0.01968
T6F00S00C0.02000
T8F00S00C0.03150
T9F00S00C0.03543
T10F00S00C0.06693
T11F00S00C0.20866
%
T01
X0461241Y0723577
X046681Y0724605
X0459646Y072874
X0445315Y0742795
X0440118Y0764724
X0440118Y0766732
X0481299Y0728622
X0483268Y0727953
X0485277Y0727364
X0481147Y0702402
X0477362Y0782393
X0475354Y0784252
X0471244Y0793307
X0471457Y0835827
X0473425Y0834764
X0475394Y0836654
X047933Y0837598
X0469488Y0834764
X0499745Y0814941
X0504724Y0816929
X046752Y0835827
X0465551Y0834764
X0465551Y078248
T02
X0116929Y0141732
X0132132Y012803
X0151332Y0155434
X0211417Y0141732
X0226621Y012803
X024582Y0155434
X0314961Y0141732
X0321109Y012803
X0340309Y0155434
X038189Y0134528
X0400394Y0141732
X0415597Y012803
X0434797Y0155434
X0494882Y0141732
X0510085Y012803
X0529285Y0155434
X058937Y0141732
X0604573Y012803
X0623773Y0155434
X0688976Y0141732
X0699061Y012803
X0718261Y0155434
X0778346Y0141732
X079355Y012803
X081275Y0155434
X079355Y0222519
X081275Y0249922
X0778346Y0236221
X0718261Y0249922
X0699061Y0222519
X0683858Y0236221
X0623773Y0249922
X0604573Y0222519
X058937Y0236221
X0529285Y0249922
X0510085Y0222519
X0494882Y0236221
X0480158Y0182728
Y0170669
X0489518Y0172726
X0463386Y0167913
X0464961Y0180226
X0415597Y0222519
X0400394Y0236221
X0379449Y0231614
X0377007Y0195047
X0374567
X0321109Y0222519
X0340309Y0249922
X0434797
X0305906Y0236221
X024582Y0249922
X0226621Y0222519
X0211417Y0236221
X0151332Y0249922
X0132132Y0222519
X0116929Y0236221
Y0330709
X0132132Y0317007
X0151332Y0344411
X0132132Y0411495
X0116929Y0425197
X0151332Y0438899
X0211417Y0425197
X0226621Y0411495
X024582Y0438899
X0305906Y0425197
Y0330709
X024582Y0344411
X0226621Y0317007
X0211417Y0330709
X0321109Y0317007
X0340309Y0344411
X0400394Y0330709
X0415597Y0317007
X0434797Y0344411
X0466579Y0330709
X0465791Y0425197
X0434797Y0438899
X0415597Y0411495
X0400394Y0425197
X0340309Y0438899
X0321109Y0411495
X0494882Y0425197
X0510085Y0411495
X0529285Y0438899
X058937Y0425197
X0604573Y0411495
X0623773Y0438899
Y0344411
X0604573Y0317007
X058937Y0330709
X0529285Y0344411
X0510085Y0317007
X0494882Y0330709
X0683858
X0699061Y0317007
X0718261Y0344411
X0778346Y0330709
Y0425197
X0718261Y0438899
X0699061Y0411495
X0683858Y0425197
X079355Y0411495
X081275Y0438899
Y0344411
X079355Y0317007
Y0505983
X081275Y0533387
X079355Y0600471
X0778346Y0614173
X0766535Y0566535
X0778346Y0519685
X0718261Y0533387
X0699061Y0505983
X0683858Y0519685
X0667402Y0534331
X066437
X0661339
X0656405Y0525618
X0653374
X0672047Y0563099
X0683858Y0614173
X0699061Y0600471
X0604573
X058937Y0614173
X0577488Y0560394
X0557902Y0543701
X0560067Y0541535
X0529285Y0533387
X0510085Y0505983
X0494882Y0519685
X0478937Y0560394
Y0563099
Y0565748
X0494882Y0614173
X0510085Y0600471
X058937Y0519685
X0604573Y0505983
X0623773Y0533387
X0464791Y0519685
X0434797Y0533387
X0415597Y0505983
X0400827Y0519632
X0384252Y0514291
Y0510039
X0321109Y0505983
X0340309Y0533387
X0321109Y0600471
X0400394Y0614173
X0415597Y0600471
X0462992Y0604331
X0305906Y0614173
X0226621Y0600471
X0211417Y0614173
Y0519685
X0226621Y0505983
X024582Y0533387
X0305906Y0519685
X0151332Y0533387
X0132132Y0505983
X0116929Y0519685
Y0614173
X0132132Y0600471
X0151332Y0627875
X0132132Y0657238
Y066914
Y0694959
X0116929Y0708661
X0151332Y0722363
X0211417Y0708661
X0226621Y0694959
X024582Y0722363
X0305906Y0708661
X024582Y0627875
X0340309
X0321109Y0694959
X0340309Y0722363
X0374567Y0750984
X0377008
X0379449Y0754921
X038189
X0392598Y0748032
X0395748
X0422835Y0762992
X0425984
X0434797Y0707559
X0415597Y0694959
X0400394Y0708661
X0434797Y0627875
X0529285
X0492756Y0670079
X0489606
X0510197Y0690551
X0494882Y0708661
X0499567Y0749016
X0500629Y0761573
X050063Y076437
X0500631Y0767167
X0490433Y0764764
X0531929Y076248
Y0759921
X0529285Y0722363
X058937Y0708661
X0604573Y0694959
X0623773Y0722363
X0584764Y0759921
Y076248
X0623773Y0627875
X0718261
X0699061Y0694959
X0683858Y0708661
X0718261Y0722363
X0778346Y0708661
X079355Y0694959
X0798798Y0665985
X0833444
X081275Y0627875
Y0722363
X079355Y0789448
X081275Y0816852
X0778346Y080315
X0718261Y0816852
X0699061Y0789448
X0683858Y080315
X0659918Y0806819
X0657595Y0809244
X0655272Y0811669
X0631883Y0802205
X0604573Y0789448
X058937Y080315
X0538975Y0794487
X0510629Y0789368
X0415597Y0789448
X0400394Y080315
X0388512Y0830909
X0434797Y0816852
X0340309
X0321109Y0789448
X0305906Y080315
X0294024Y0832701
X024582Y0816852
X0226621Y0789448
X0211417Y080315
X0199535Y0834488
X0151332Y0816852
X0132132Y0789448
X0116929Y080315
X0105047Y0826772
T03
X0494055Y0802795
T04
X0132132Y0155434
X0226621
X0275591Y0141142
X0283465
X0291339
X0321109Y0155434
X0415597
X0476378Y0125984
X0510085Y0155434
X0604573
X0653543Y0141142
X0661417
X0669291
X0699061Y0155434
X0759842Y0125984
X079355Y0155434
Y0249922
X0759842Y0220472
X0759665Y0188976
X0665177
X0665354Y0220472
X0699061Y0249922
X0604573
X0510085
X0476378Y0220472
X0570669Y0164173
X0415597Y0249922
X0321109
X0287402Y0220472
X0287224Y0188976
X0226621Y0249922
X0132132
Y0344411
Y0438899
X0226621
X0287224Y0440945
X0287402Y0409449
X0287224Y0377953
X0287402Y0314961
X0226621Y0344411
X0321109
X0415597
Y0438899
X0321109
X0476378Y0409449
X0476201Y0377953
X0476378Y0314961
X0510085Y0344411
Y0438899
X0604573
Y0344411
X0665354Y0314961
X0699061Y0344411
X0665177Y0377953
X0665354Y0409449
X0664685Y0447795
X0699061Y0438899
X0759665Y0453227
X0759842Y0409449
X0759665Y0377953
X0759842Y0314961
X079355Y0344411
Y0438899
Y0533387
X0759665Y0539525
X0759842Y0503937
X0708661Y0533386
X0699061Y0533387
X0669291Y0519291
X0653543
X0678504Y0585394
X0759842Y0598425
X0604573Y0533387
X0574094Y0533386
X057059Y0546142
X0510085Y0533387
X0477362Y0532874
X0476142Y0506693
X0472441Y0472441
X0415597Y0533387
X0370945Y0529528
X0330709Y0527559
X0321109Y0533387
X0283465Y0519291
X0287402Y0503937
X0226621Y0533387
X0287402Y0598425
X0132132Y0533387
Y0627875
Y0722363
X0171653Y0755905
X0226621Y0722363
X0287402Y0692913
X0226621Y0627875
X0321109
X0415597
X0393701Y0681102
X0391432Y0740433
X0415597Y0722363
X0464567Y0748032
X0464567Y0755905
X0464569Y0763713
X046063Y0767717
X0321109Y0722363
X0472441Y0748032
X0480315Y0748032
X0480315Y0755905
X0472441
Y0763779
X0480315Y0763779
X0484252Y0767717
Y0740158
X0516929Y0722047
X0487205Y0677638
X0510085Y0627875
X0604573
Y0722363
X0665354Y0692913
X0699061Y0722363
X0759842Y0692913
X0755905Y0755905
X0699061Y0627875
X079355
Y0722363
Y0816852
X0759842Y0787402
X0699061Y0816852
X0670394Y081189
X0665354Y0787402
X0644213Y0830433
X0611969Y0824331
X0595827Y0796063
X0519685Y0783465
X0511811
X0475354Y0830063
X0536811Y0841732
X0415597Y0816852
X0321109
X0287402Y0787402
X0226621Y0816852
X0132132
T05
X0565669Y0106941
Y0201429
Y0295917
Y0390406
Y0484646
Y0579095
Y0673779
X0565748Y0768358
T06
X0151332Y012803
X024582
X0340309
X0434797
X0529285
X0623773
X0718261
X081275
Y0222519
X0718261
X0623773
X0529285
X0434797
X0340309
X024582
X0151332
Y0317007
Y0411495
X024582
Y0317007
X0340309
X0434797
Y0411495
X0340309
X0529285
Y0317007
X0623773
Y0411495
X0718261
Y0317007
X081275
Y0411495
Y0505983
Y0600471
X0718261
Y0505983
X0623773
X0529285
Y0600471
X0623773
X0434797
X0340309
Y0505983
X0434797
X024582
Y0600471
X0151332
Y0505983
Y0694959
X024582
X0340309
X0430512Y0690674
X0529285Y0694959
X0623773
X0718261
X081275
Y0789448
X0755905Y080315
X0718261Y0789448
X0623773
X0529285
X0434646Y0789449
X0340309Y0789448
X024582
X0151332
T08
X0565748Y0824016
T09
X0626457Y0858268
X0616457
X0606457
X0596457
X0574961
X0564961
X0543465
X0533622
T10
X0440945Y0084488
X0456693
X0472441
X0488189
X0503937
T11
X0661417Y0283465
X0283465
Y0661417
X0661417
M30
