G04*
G04 #@! TF.GenerationSoftware,Altium Limited,Altium Designer,18.1.5 (160)*
G04*
G04 Layer_Color=32896*
%FSLAX25Y25*%
%MOIN*%
G70*
G01*
G75*
%ADD10C,0.00394*%
%ADD11C,0.00500*%
%ADD32C,0.01000*%
%ADD33C,0.00984*%
%ADD69C,0.02362*%
%ADD73C,0.00787*%
%ADD92C,0.00504*%
G36*
X467520Y173228D02*
X467324D01*
X466962Y173079D01*
X466685Y172802D01*
X466535Y172440D01*
Y172244D01*
Y172048D01*
X466685Y171687D01*
X466962Y171410D01*
X467324Y171260D01*
X467520D01*
X467715D01*
X468077Y171410D01*
X468354Y171687D01*
X468504Y172048D01*
Y172244D01*
Y172440D01*
X468354Y172802D01*
X468077Y173079D01*
X467715Y173228D01*
X467520D01*
D01*
D02*
G37*
G36*
X509194Y277407D02*
D01*
D02*
G37*
G36*
X580315Y834842D02*
D01*
D02*
G37*
D10*
X323429Y138509D02*
G03*
X323429Y138509I-197J0D01*
G01*
X701382D02*
G03*
X701382Y138509I-197J0D01*
G01*
X507288Y705438D02*
G03*
X507288Y705438I-197J0D01*
G01*
X109650D02*
G03*
X109650Y705438I-197J0D01*
G01*
Y610950D02*
G03*
X109650Y610950I-197J0D01*
G01*
Y516462D02*
G03*
X109650Y516462I-197J0D01*
G01*
Y421974D02*
G03*
X109650Y421974I-197J0D01*
G01*
Y327485D02*
G03*
X109650Y327485I-197J0D01*
G01*
Y232997D02*
G03*
X109650Y232997I-197J0D01*
G01*
Y138509D02*
G03*
X109650Y138509I-197J0D01*
G01*
X204138Y705438D02*
G03*
X204138Y705438I-197J0D01*
G01*
Y610950D02*
G03*
X204138Y610950I-197J0D01*
G01*
X228941Y516462D02*
G03*
X228941Y516462I-197J0D01*
G01*
Y421974D02*
G03*
X228941Y421974I-197J0D01*
G01*
X204138Y327485D02*
G03*
X204138Y327485I-197J0D01*
G01*
Y232997D02*
G03*
X204138Y232997I-197J0D01*
G01*
X228941Y138509D02*
G03*
X228941Y138509I-197J0D01*
G01*
X298626Y705438D02*
G03*
X298626Y705438I-197J0D01*
G01*
Y610950D02*
G03*
X298626Y610950I-197J0D01*
G01*
X323429Y516462D02*
G03*
X323429Y516462I-197J0D01*
G01*
Y421974D02*
G03*
X323429Y421974I-197J0D01*
G01*
X298626Y327485D02*
G03*
X298626Y327485I-197J0D01*
G01*
Y232997D02*
G03*
X298626Y232997I-197J0D01*
G01*
X393114Y705438D02*
G03*
X393114Y705438I-197J0D01*
G01*
Y610950D02*
G03*
X393114Y610950I-197J0D01*
G01*
Y516462D02*
G03*
X393114Y516462I-197J0D01*
G01*
Y421974D02*
G03*
X393114Y421974I-197J0D01*
G01*
Y327485D02*
G03*
X393114Y327485I-197J0D01*
G01*
Y232997D02*
G03*
X393114Y232997I-197J0D01*
G01*
Y138509D02*
G03*
X393114Y138509I-197J0D01*
G01*
X487603Y610950D02*
G03*
X487603Y610950I-197J0D01*
G01*
Y516462D02*
G03*
X487603Y516462I-197J0D01*
G01*
Y421974D02*
G03*
X487603Y421974I-197J0D01*
G01*
Y327485D02*
G03*
X487603Y327485I-197J0D01*
G01*
Y232997D02*
G03*
X487603Y232997I-197J0D01*
G01*
Y138509D02*
G03*
X487603Y138509I-197J0D01*
G01*
X582091Y705438D02*
G03*
X582091Y705438I-197J0D01*
G01*
Y610950D02*
G03*
X582091Y610950I-197J0D01*
G01*
X606894Y516462D02*
G03*
X606894Y516462I-197J0D01*
G01*
Y421974D02*
G03*
X606894Y421974I-197J0D01*
G01*
X582091Y327485D02*
G03*
X582091Y327485I-197J0D01*
G01*
Y232997D02*
G03*
X582091Y232997I-197J0D01*
G01*
X606894Y138509D02*
G03*
X606894Y138509I-197J0D01*
G01*
X676579Y705438D02*
G03*
X676579Y705438I-197J0D01*
G01*
Y610950D02*
G03*
X676579Y610950I-197J0D01*
G01*
X701382Y516462D02*
G03*
X701382Y516462I-197J0D01*
G01*
Y421974D02*
G03*
X701382Y421974I-197J0D01*
G01*
X676579Y327485D02*
G03*
X676579Y327485I-197J0D01*
G01*
Y232997D02*
G03*
X676579Y232997I-197J0D01*
G01*
X771067Y705438D02*
G03*
X771067Y705438I-197J0D01*
G01*
Y610950D02*
G03*
X771067Y610950I-197J0D01*
G01*
Y516462D02*
G03*
X771067Y516462I-197J0D01*
G01*
Y421974D02*
G03*
X771067Y421974I-197J0D01*
G01*
Y327485D02*
G03*
X771067Y327485I-197J0D01*
G01*
Y232997D02*
G03*
X771067Y232997I-197J0D01*
G01*
Y138509D02*
G03*
X771067Y138509I-197J0D01*
G01*
Y799926D02*
G03*
X771067Y799926I-197J0D01*
G01*
X676579D02*
G03*
X676579Y799926I-197J0D01*
G01*
X593902Y799926D02*
G03*
X593902Y799926I-197J0D01*
G01*
X498626Y795989D02*
G03*
X498626Y795989I-197J0D01*
G01*
X393114Y799926D02*
G03*
X393114Y799926I-197J0D01*
G01*
X298626Y799926D02*
G03*
X298626Y799926I-197J0D01*
G01*
X204138D02*
G03*
X204138Y799926I-197J0D01*
G01*
X109650D02*
G03*
X109650Y799926I-197J0D01*
G01*
D11*
X548465Y850401D02*
Y847402D01*
X546965D01*
X546465Y847901D01*
Y848401D01*
X546965Y848901D01*
X548465D01*
X546965D01*
X546465Y849401D01*
Y849901D01*
X546965Y850401D01*
X548465D01*
X543966D02*
X544966D01*
X545466Y849901D01*
Y847901D01*
X544966Y847402D01*
X543966D01*
X543466Y847901D01*
Y849901D01*
X543966Y850401D01*
X540967D02*
X541967D01*
X542466Y849901D01*
Y847901D01*
X541967Y847402D01*
X540967D01*
X540467Y847901D01*
Y849901D01*
X540967Y850401D01*
X539467D02*
X537468D01*
X538468D01*
Y847402D01*
X536469Y849901D02*
X535969Y850401D01*
X534969D01*
X534469Y849901D01*
Y847901D01*
X534969Y847402D01*
X535969D01*
X536469Y847901D01*
Y849901D01*
X529115Y816535D02*
Y819534D01*
X527615D01*
X527116Y819035D01*
Y818035D01*
X527615Y817535D01*
X529115D01*
X526116Y819534D02*
Y816535D01*
X524616D01*
X524117Y817035D01*
Y819035D01*
X524616Y819534D01*
X526116D01*
X521117Y819035D02*
X521617Y819534D01*
X522617D01*
X523117Y819035D01*
Y818535D01*
X522617Y818035D01*
X521617D01*
X521117Y817535D01*
Y817035D01*
X521617Y816535D01*
X522617D01*
X523117Y817035D01*
X564900Y840500D02*
Y843499D01*
X563401D01*
X562901Y842999D01*
Y842000D01*
X563401Y841500D01*
X564900D01*
X563900D02*
X562901Y840500D01*
X561901D02*
X560901D01*
X561401D01*
Y843499D01*
X561901Y842999D01*
X542115Y816535D02*
Y819534D01*
X540615D01*
X540116Y819035D01*
Y818035D01*
X540615Y817535D01*
X542115D01*
X541115D02*
X540116Y816535D01*
X537117D02*
X539116D01*
X537117Y818535D01*
Y819035D01*
X537616Y819534D01*
X538616D01*
X539116Y819035D01*
X514715Y816535D02*
Y819534D01*
X513215D01*
X512716Y819035D01*
Y818035D01*
X513215Y817535D01*
X514715D01*
X513715D02*
X512716Y816535D01*
X511716Y819035D02*
X511216Y819534D01*
X510216D01*
X509717Y819035D01*
Y818535D01*
X510216Y818035D01*
X510716D01*
X510216D01*
X509717Y817535D01*
Y817035D01*
X510216Y816535D01*
X511216D01*
X511716Y817035D01*
X517216Y841082D02*
X517715Y841582D01*
X518715D01*
X519215Y841082D01*
Y839083D01*
X518715Y838583D01*
X517715D01*
X517216Y839083D01*
X514217Y841582D02*
X515216Y841082D01*
X516216Y840082D01*
Y839083D01*
X515716Y838583D01*
X514716D01*
X514217Y839083D01*
Y839582D01*
X514716Y840082D01*
X516216D01*
X537116Y841082D02*
X537615Y841582D01*
X538615D01*
X539115Y841082D01*
Y839083D01*
X538615Y838583D01*
X537615D01*
X537116Y839083D01*
X534117Y841582D02*
X536116D01*
Y840082D01*
X535116Y840582D01*
X534616D01*
X534117Y840082D01*
Y839083D01*
X534616Y838583D01*
X535616D01*
X536116Y839083D01*
X474900Y700800D02*
Y703799D01*
X473400D01*
X472901Y703299D01*
Y702299D01*
X473400Y701800D01*
X474900D01*
X473900D02*
X472901Y700800D01*
X471901Y703299D02*
X471401Y703799D01*
X470401D01*
X469902Y703299D01*
Y702799D01*
X470401Y702299D01*
X469902Y701800D01*
Y701300D01*
X470401Y700800D01*
X471401D01*
X471901Y701300D01*
Y701800D01*
X471401Y702299D01*
X471901Y702799D01*
Y703299D01*
X471401Y702299D02*
X470401D01*
X579900Y850399D02*
Y847900D01*
X579400Y847400D01*
X578401D01*
X577901Y847900D01*
Y850399D01*
X576901Y847400D02*
Y849399D01*
X575901Y850399D01*
X574902Y849399D01*
Y847400D01*
Y848899D01*
X576901D01*
X573902Y847400D02*
Y850399D01*
X572402D01*
X571903Y849899D01*
Y848899D01*
X572402Y848400D01*
X573902D01*
X572902D02*
X571903Y847400D01*
X570903Y850399D02*
X568904D01*
X569903D01*
Y847400D01*
X474400Y727409D02*
Y726909D01*
X473400Y725909D01*
X472401Y726909D01*
Y727409D01*
X473400Y725909D02*
Y724409D01*
X471401D02*
X470401D01*
X470901D01*
Y727409D01*
X471401Y726909D01*
X469700Y798000D02*
X472699D01*
Y799500D01*
X472199Y799999D01*
X471200D01*
X470700Y799500D01*
Y798000D01*
Y799000D02*
X469700Y799999D01*
X472699Y800999D02*
Y802998D01*
X472199D01*
X470200Y800999D01*
X469700D01*
X131500Y837500D02*
Y840499D01*
X130000D01*
X129501Y839999D01*
Y838999D01*
X130000Y838500D01*
X131500D01*
X130500D02*
X129501Y837500D01*
X128501Y838000D02*
X128001Y837500D01*
X127001D01*
X126502Y838000D01*
Y839999D01*
X127001Y840499D01*
X128001D01*
X128501Y839999D01*
Y839499D01*
X128001Y838999D01*
X126502D01*
X438501Y736399D02*
X439001Y736899D01*
X440000D01*
X440500Y736399D01*
Y734400D01*
X440000Y733900D01*
X439001D01*
X438501Y734400D01*
X437501Y733900D02*
X436501D01*
X437001D01*
Y736899D01*
X437501Y736399D01*
X435002D02*
X434502Y736899D01*
X433502D01*
X433002Y736399D01*
Y734400D01*
X433502Y733900D01*
X434502D01*
X435002Y734400D01*
Y736399D01*
X507001Y728199D02*
X507501Y728699D01*
X508500D01*
X509000Y728199D01*
Y726200D01*
X508500Y725700D01*
X507501D01*
X507001Y726200D01*
X506001Y728199D02*
X505501Y728699D01*
X504501D01*
X504002Y728199D01*
Y727699D01*
X504501Y727200D01*
X504002Y726700D01*
Y726200D01*
X504501Y725700D01*
X505501D01*
X506001Y726200D01*
Y726700D01*
X505501Y727200D01*
X506001Y727699D01*
Y728199D01*
X505501Y727200D02*
X504501D01*
X674100Y159799D02*
X672101D01*
X673100D01*
Y156800D01*
X670601D02*
X669601D01*
X669102Y157300D01*
Y158300D01*
X669601Y158799D01*
X670601D01*
X671101Y158300D01*
Y157300D01*
X670601Y156800D01*
X668102Y158799D02*
Y157300D01*
X667602Y156800D01*
X666103D01*
Y158799D01*
X663104D02*
X664603D01*
X665103Y158300D01*
Y157300D01*
X664603Y156800D01*
X663104D01*
X662104Y159799D02*
Y156800D01*
Y158300D01*
X661604Y158799D01*
X660604D01*
X660105Y158300D01*
Y156800D01*
X659105Y159799D02*
Y156800D01*
X657605D01*
X657105Y157300D01*
Y157800D01*
X657605Y158300D01*
X659105D01*
X657605D01*
X657105Y158799D01*
Y159299D01*
X657605Y159799D01*
X659105D01*
X655606Y158799D02*
X654606D01*
X654107Y158300D01*
Y156800D01*
X655606D01*
X656106Y157300D01*
X655606Y157800D01*
X654107D01*
X653107Y158799D02*
Y156800D01*
Y157800D01*
X652607Y158300D01*
X652107Y158799D01*
X651607D01*
X650108Y156800D02*
X649108D01*
X649608D01*
Y159799D01*
X650108Y159299D01*
X296700Y159799D02*
X294701D01*
X295700D01*
Y156800D01*
X293201D02*
X292201D01*
X291702Y157300D01*
Y158300D01*
X292201Y158799D01*
X293201D01*
X293701Y158300D01*
Y157300D01*
X293201Y156800D01*
X290702Y158799D02*
Y157300D01*
X290202Y156800D01*
X288703D01*
Y158799D01*
X285704D02*
X287203D01*
X287703Y158300D01*
Y157300D01*
X287203Y156800D01*
X285704D01*
X284704Y159799D02*
Y156800D01*
Y158300D01*
X284204Y158799D01*
X283204D01*
X282704Y158300D01*
Y156800D01*
X281705Y159799D02*
Y156800D01*
X280205D01*
X279706Y157300D01*
Y157800D01*
X280205Y158300D01*
X281705D01*
X280205D01*
X279706Y158799D01*
Y159299D01*
X280205Y159799D01*
X281705D01*
X278206Y158799D02*
X277206D01*
X276707Y158300D01*
Y156800D01*
X278206D01*
X278706Y157300D01*
X278206Y157800D01*
X276707D01*
X275707Y158799D02*
Y156800D01*
Y157800D01*
X275207Y158300D01*
X274707Y158799D01*
X274207D01*
X270708Y156800D02*
X272708D01*
X270708Y158799D01*
Y159299D01*
X271208Y159799D01*
X272208D01*
X272708Y159299D01*
X334700Y151299D02*
Y148300D01*
X333201D01*
X332701Y148800D01*
Y150799D01*
X333201Y151299D01*
X334700D01*
X329702D02*
X331701D01*
Y149800D01*
X330701Y150299D01*
X330202D01*
X329702Y149800D01*
Y148800D01*
X330202Y148300D01*
X331201D01*
X331701Y148800D01*
X328702D02*
X328202Y148300D01*
X327202D01*
X326703Y148800D01*
Y150799D01*
X327202Y151299D01*
X328202D01*
X328702Y150799D01*
Y150299D01*
X328202Y149800D01*
X326703D01*
X712700Y151299D02*
Y148300D01*
X711201D01*
X710701Y148800D01*
Y150799D01*
X711201Y151299D01*
X712700D01*
X707702D02*
X708701Y150799D01*
X709701Y149800D01*
Y148800D01*
X709201Y148300D01*
X708202D01*
X707702Y148800D01*
Y149300D01*
X708202Y149800D01*
X709701D01*
X706702Y150799D02*
X706202Y151299D01*
X705202D01*
X704703Y150799D01*
Y150299D01*
X705202Y149800D01*
X705702D01*
X705202D01*
X704703Y149300D01*
Y148800D01*
X705202Y148300D01*
X706202D01*
X706702Y148800D01*
X595563Y819035D02*
X596062Y819534D01*
X597062D01*
X597562Y819035D01*
Y817035D01*
X597062Y816535D01*
X596062D01*
X595563Y817035D01*
X592563Y816535D02*
X594563D01*
X592563Y818535D01*
Y819035D01*
X593063Y819534D01*
X594063D01*
X594563Y819035D01*
X602618D02*
X603118Y819534D01*
X604118D01*
X604618Y819035D01*
Y817035D01*
X604118Y816535D01*
X603118D01*
X602618Y817035D01*
X601619Y816535D02*
X600619D01*
X601119D01*
Y819534D01*
X601619Y819035D01*
X612323Y819534D02*
Y816535D01*
X610823D01*
X610323Y817035D01*
Y819035D01*
X610823Y819534D01*
X612323D01*
X609324Y816535D02*
X608324D01*
X608824D01*
Y819534D01*
X609324Y819035D01*
X465472Y782756D02*
Y785755D01*
X464473Y784755D01*
X463473Y785755D01*
Y782756D01*
X460474Y785255D02*
X460974Y785755D01*
X461974D01*
X462473Y785255D01*
Y783256D01*
X461974Y782756D01*
X460974D01*
X460474Y783256D01*
X459474Y785755D02*
Y783256D01*
X458975Y782756D01*
X457975D01*
X457475Y783256D01*
Y785755D01*
X491800Y824200D02*
Y827199D01*
X490301D01*
X489801Y826699D01*
Y825700D01*
X490301Y825200D01*
X491800D01*
X490800D02*
X489801Y824200D01*
X487301D02*
Y827199D01*
X488801Y825700D01*
X486802D01*
X553382Y819534D02*
Y816535D01*
X551883D01*
X551383Y817035D01*
Y819035D01*
X551883Y819534D01*
X553382D01*
X548384Y816535D02*
X550383D01*
X548384Y818535D01*
Y819035D01*
X548884Y819534D01*
X549883D01*
X550383Y819035D01*
X560054D02*
X560554Y819534D01*
X561553D01*
X562053Y819035D01*
Y817035D01*
X561553Y816535D01*
X560554D01*
X560054Y817035D01*
X557555Y816535D02*
Y819534D01*
X559054Y818035D01*
X557055D01*
X566537Y819035D02*
X567036Y819534D01*
X568036D01*
X568536Y819035D01*
Y817035D01*
X568036Y816535D01*
X567036D01*
X566537Y817035D01*
X565537Y819035D02*
X565037Y819534D01*
X564037D01*
X563537Y819035D01*
Y818535D01*
X564037Y818035D01*
X564537D01*
X564037D01*
X563537Y817535D01*
Y817035D01*
X564037Y816535D01*
X565037D01*
X565537Y817035D01*
X584300Y819534D02*
Y816535D01*
X582301D01*
X581301Y819534D02*
Y816535D01*
X579802D01*
X579302Y817035D01*
Y819035D01*
X579802Y819534D01*
X581301D01*
X576802D02*
X577802D01*
X578302Y819035D01*
Y817035D01*
X577802Y816535D01*
X576802D01*
X576303Y817035D01*
Y819035D01*
X576802Y819534D01*
X475700Y798000D02*
X478699D01*
Y799500D01*
X478199Y799999D01*
X477200D01*
X476700Y799500D01*
Y798000D01*
Y799000D02*
X475700Y799999D01*
X478699Y802998D02*
X478199Y801999D01*
X477200Y800999D01*
X476200D01*
X475700Y801499D01*
Y802499D01*
X476200Y802998D01*
X476700D01*
X477200Y802499D01*
Y800999D01*
X480600Y798000D02*
X483599D01*
Y799500D01*
X483099Y799999D01*
X482099D01*
X481600Y799500D01*
Y798000D01*
Y799000D02*
X480600Y799999D01*
X483599Y802998D02*
Y800999D01*
X482099D01*
X482599Y801999D01*
Y802499D01*
X482099Y802998D01*
X481100D01*
X480600Y802499D01*
Y801499D01*
X481100Y800999D01*
X507001Y733299D02*
X507501Y733799D01*
X508500D01*
X509000Y733299D01*
Y731300D01*
X508500Y730800D01*
X507501D01*
X507001Y731300D01*
X506001Y733799D02*
X504002D01*
Y733299D01*
X506001Y731300D01*
Y730800D01*
X518300Y718199D02*
Y715200D01*
X516800D01*
X516301Y715700D01*
Y717699D01*
X516800Y718199D01*
X518300D01*
X515301Y715200D02*
X514301D01*
X514801D01*
Y718199D01*
X515301Y717699D01*
X512802D02*
X512302Y718199D01*
X511302D01*
X510802Y717699D01*
Y717199D01*
X511302Y716700D01*
X511802D01*
X511302D01*
X510802Y716200D01*
Y715700D01*
X511302Y715200D01*
X512302D01*
X512802Y715700D01*
X629362Y849899D02*
X629862Y850399D01*
X630862D01*
X631361Y849899D01*
Y849399D01*
X630862Y848899D01*
X629862D01*
X629362Y848400D01*
Y847900D01*
X629862Y847400D01*
X630862D01*
X631361Y847900D01*
X628362Y850399D02*
Y847400D01*
X627363Y848400D01*
X626363Y847400D01*
Y850399D01*
X625363D02*
Y847400D01*
X623864D01*
X623364Y847900D01*
Y849899D01*
X623864Y850399D01*
X625363D01*
X444501Y784899D02*
X445001Y785399D01*
X446000D01*
X446500Y784899D01*
Y782900D01*
X446000Y782400D01*
X445001D01*
X444501Y782900D01*
X443501Y782400D02*
X442501D01*
X443001D01*
Y785399D01*
X443501Y784899D01*
X439002Y782400D02*
X441002D01*
X439002Y784399D01*
Y784899D01*
X439502Y785399D01*
X440502D01*
X441002Y784899D01*
X490701Y800499D02*
X491200Y800999D01*
X492200D01*
X492700Y800499D01*
Y798500D01*
X492200Y798000D01*
X491200D01*
X490701Y798500D01*
X489701D02*
X489201Y798000D01*
X488202D01*
X487702Y798500D01*
Y800499D01*
X488202Y800999D01*
X489201D01*
X489701Y800499D01*
Y799999D01*
X489201Y799500D01*
X487702D01*
X438501Y731299D02*
X439001Y731799D01*
X440000D01*
X440500Y731299D01*
Y729300D01*
X440000Y728800D01*
X439001D01*
X438501Y729300D01*
X437501Y728800D02*
X436501D01*
X437001D01*
Y731799D01*
X437501Y731299D01*
X435002Y728800D02*
X434002D01*
X434502D01*
Y731799D01*
X435002Y731299D01*
X145001Y690399D02*
X145501Y690899D01*
X146500D01*
X147000Y690399D01*
Y688400D01*
X146500Y687900D01*
X145501D01*
X145001Y688400D01*
X144001D02*
X143501Y687900D01*
X142501D01*
X142002Y688400D01*
Y690399D01*
X142501Y690899D01*
X143501D01*
X144001Y690399D01*
Y689899D01*
X143501Y689399D01*
X142002D01*
X146201Y595899D02*
X146701Y596399D01*
X147700D01*
X148200Y595899D01*
Y593900D01*
X147700Y593400D01*
X146701D01*
X146201Y593900D01*
X145201Y593400D02*
X144201D01*
X144701D01*
Y596399D01*
X145201Y595899D01*
X142702Y596399D02*
X140702D01*
Y595899D01*
X142702Y593900D01*
Y593400D01*
X146501Y501499D02*
X147001Y501999D01*
X148000D01*
X148500Y501499D01*
Y499500D01*
X148000Y499000D01*
X147001D01*
X146501Y499500D01*
X143502Y499000D02*
X145501D01*
X143502Y500999D01*
Y501499D01*
X144001Y501999D01*
X145001D01*
X145501Y501499D01*
X140503Y501999D02*
X142502D01*
Y500499D01*
X141502Y500999D01*
X141002D01*
X140503Y500499D01*
Y499500D01*
X141002Y499000D01*
X142002D01*
X142502Y499500D01*
X146501Y406999D02*
X147001Y407499D01*
X148000D01*
X148500Y406999D01*
Y405000D01*
X148000Y404500D01*
X147001D01*
X146501Y405000D01*
X145501Y406999D02*
X145001Y407499D01*
X144001D01*
X143502Y406999D01*
Y406499D01*
X144001Y406000D01*
X144501D01*
X144001D01*
X143502Y405500D01*
Y405000D01*
X144001Y404500D01*
X145001D01*
X145501Y405000D01*
X142502Y406999D02*
X142002Y407499D01*
X141002D01*
X140503Y406999D01*
Y406499D01*
X141002Y406000D01*
X141502D01*
X141002D01*
X140503Y405500D01*
Y405000D01*
X141002Y404500D01*
X142002D01*
X142502Y405000D01*
X146001Y312499D02*
X146501Y312999D01*
X147500D01*
X148000Y312499D01*
Y310500D01*
X147500Y310000D01*
X146501D01*
X146001Y310500D01*
X143501Y310000D02*
Y312999D01*
X145001Y311500D01*
X143002D01*
X142002Y310000D02*
X141002D01*
X141502D01*
Y312999D01*
X142002Y312499D01*
X146501Y217999D02*
X147001Y218499D01*
X148000D01*
X148500Y217999D01*
Y216000D01*
X148000Y215500D01*
X147001D01*
X146501Y216000D01*
X144001Y215500D02*
Y218499D01*
X145501Y217000D01*
X143502D01*
X142502Y216000D02*
X142002Y215500D01*
X141002D01*
X140503Y216000D01*
Y217999D01*
X141002Y218499D01*
X142002D01*
X142502Y217999D01*
Y217499D01*
X142002Y217000D01*
X140503D01*
X146501Y123499D02*
X147001Y123999D01*
X148000D01*
X148500Y123499D01*
Y121500D01*
X148000Y121000D01*
X147001D01*
X146501Y121500D01*
X143502Y123999D02*
X145501D01*
Y122500D01*
X144501Y122999D01*
X144001D01*
X143502Y122500D01*
Y121500D01*
X144001Y121000D01*
X145001D01*
X145501Y121500D01*
X142502Y123999D02*
X140503D01*
Y123499D01*
X142502Y121500D01*
Y121000D01*
X240701Y690399D02*
X241200Y690899D01*
X242200D01*
X242700Y690399D01*
Y688400D01*
X242200Y687900D01*
X241200D01*
X240701Y688400D01*
X239701Y687900D02*
X238701D01*
X239201D01*
Y690899D01*
X239701Y690399D01*
X237202D02*
X236702Y690899D01*
X235702D01*
X235202Y690399D01*
Y688400D01*
X235702Y687900D01*
X236702D01*
X237202Y688400D01*
Y690399D01*
X240701Y595899D02*
X241200Y596399D01*
X242200D01*
X242700Y595899D01*
Y593900D01*
X242200Y593400D01*
X241200D01*
X240701Y593900D01*
X239701Y593400D02*
X238701D01*
X239201D01*
Y596399D01*
X239701Y595899D01*
X237202D02*
X236702Y596399D01*
X235702D01*
X235202Y595899D01*
Y595399D01*
X235702Y594900D01*
X235202Y594400D01*
Y593900D01*
X235702Y593400D01*
X236702D01*
X237202Y593900D01*
Y594400D01*
X236702Y594900D01*
X237202Y595399D01*
Y595899D01*
X236702Y594900D02*
X235702D01*
X241001Y501499D02*
X241500Y501999D01*
X242500D01*
X243000Y501499D01*
Y499500D01*
X242500Y499000D01*
X241500D01*
X241001Y499500D01*
X238002Y499000D02*
X240001D01*
X238002Y500999D01*
Y501499D01*
X238502Y501999D01*
X239501D01*
X240001Y501499D01*
X235003Y501999D02*
X236002Y501499D01*
X237002Y500499D01*
Y499500D01*
X236502Y499000D01*
X235502D01*
X235003Y499500D01*
Y500000D01*
X235502Y500499D01*
X237002D01*
X241001Y406999D02*
X241500Y407499D01*
X242500D01*
X243000Y406999D01*
Y405000D01*
X242500Y404500D01*
X241500D01*
X241001Y405000D01*
X240001Y406999D02*
X239501Y407499D01*
X238502D01*
X238002Y406999D01*
Y406499D01*
X238502Y406000D01*
X239001D01*
X238502D01*
X238002Y405500D01*
Y405000D01*
X238502Y404500D01*
X239501D01*
X240001Y405000D01*
X235502Y404500D02*
Y407499D01*
X237002Y406000D01*
X235003D01*
X241001Y312499D02*
X241500Y312999D01*
X242500D01*
X243000Y312499D01*
Y310500D01*
X242500Y310000D01*
X241500D01*
X241001Y310500D01*
X238502Y310000D02*
Y312999D01*
X240001Y311500D01*
X238002D01*
X235003Y310000D02*
X237002D01*
X235003Y311999D01*
Y312499D01*
X235502Y312999D01*
X236502D01*
X237002Y312499D01*
X241001Y217999D02*
X241500Y218499D01*
X242500D01*
X243000Y217999D01*
Y216000D01*
X242500Y215500D01*
X241500D01*
X241001Y216000D01*
X238002Y218499D02*
X240001D01*
Y217000D01*
X239001Y217499D01*
X238502D01*
X238002Y217000D01*
Y216000D01*
X238502Y215500D01*
X239501D01*
X240001Y216000D01*
X237002Y217999D02*
X236502Y218499D01*
X235502D01*
X235003Y217999D01*
Y216000D01*
X235502Y215500D01*
X236502D01*
X237002Y216000D01*
Y217999D01*
X241001Y123499D02*
X241500Y123999D01*
X242500D01*
X243000Y123499D01*
Y121500D01*
X242500Y121000D01*
X241500D01*
X241001Y121500D01*
X238002Y123999D02*
X240001D01*
Y122500D01*
X239001Y122999D01*
X238502D01*
X238002Y122500D01*
Y121500D01*
X238502Y121000D01*
X239501D01*
X240001Y121500D01*
X237002Y123499D02*
X236502Y123999D01*
X235502D01*
X235003Y123499D01*
Y122999D01*
X235502Y122500D01*
X235003Y122000D01*
Y121500D01*
X235502Y121000D01*
X236502D01*
X237002Y121500D01*
Y122000D01*
X236502Y122500D01*
X237002Y122999D01*
Y123499D01*
X236502Y122500D02*
X235502D01*
X334701Y690399D02*
X335201Y690899D01*
X336200D01*
X336700Y690399D01*
Y688400D01*
X336200Y687900D01*
X335201D01*
X334701Y688400D01*
X333701Y687900D02*
X332701D01*
X333201D01*
Y690899D01*
X333701Y690399D01*
X331202Y687900D02*
X330202D01*
X330702D01*
Y690899D01*
X331202Y690399D01*
X335201Y595899D02*
X335700Y596399D01*
X336700D01*
X337200Y595899D01*
Y593900D01*
X336700Y593400D01*
X335700D01*
X335201Y593900D01*
X334201Y593400D02*
X333201D01*
X333701D01*
Y596399D01*
X334201Y595899D01*
X331702Y593900D02*
X331202Y593400D01*
X330202D01*
X329702Y593900D01*
Y595899D01*
X330202Y596399D01*
X331202D01*
X331702Y595899D01*
Y595399D01*
X331202Y594900D01*
X329702D01*
X335501Y501499D02*
X336000Y501999D01*
X337000D01*
X337500Y501499D01*
Y499500D01*
X337000Y499000D01*
X336000D01*
X335501Y499500D01*
X332502Y499000D02*
X334501D01*
X332502Y500999D01*
Y501499D01*
X333001Y501999D01*
X334001D01*
X334501Y501499D01*
X331502Y501999D02*
X329503D01*
Y501499D01*
X331502Y499500D01*
Y499000D01*
X335501Y406999D02*
X336000Y407499D01*
X337000D01*
X337500Y406999D01*
Y405000D01*
X337000Y404500D01*
X336000D01*
X335501Y405000D01*
X334501Y406999D02*
X334001Y407499D01*
X333001D01*
X332502Y406999D01*
Y406499D01*
X333001Y406000D01*
X333501D01*
X333001D01*
X332502Y405500D01*
Y405000D01*
X333001Y404500D01*
X334001D01*
X334501Y405000D01*
X329503Y407499D02*
X331502D01*
Y406000D01*
X330502Y406499D01*
X330002D01*
X329503Y406000D01*
Y405000D01*
X330002Y404500D01*
X331002D01*
X331502Y405000D01*
X335501Y312499D02*
X336000Y312999D01*
X337000D01*
X337500Y312499D01*
Y310500D01*
X337000Y310000D01*
X336000D01*
X335501Y310500D01*
X333001Y310000D02*
Y312999D01*
X334501Y311500D01*
X332502D01*
X331502Y312499D02*
X331002Y312999D01*
X330002D01*
X329503Y312499D01*
Y311999D01*
X330002Y311500D01*
X330502D01*
X330002D01*
X329503Y311000D01*
Y310500D01*
X330002Y310000D01*
X331002D01*
X331502Y310500D01*
X335001Y217999D02*
X335501Y218499D01*
X336500D01*
X337000Y217999D01*
Y216000D01*
X336500Y215500D01*
X335501D01*
X335001Y216000D01*
X332002Y218499D02*
X334001D01*
Y217000D01*
X333001Y217499D01*
X332502D01*
X332002Y217000D01*
Y216000D01*
X332502Y215500D01*
X333501D01*
X334001Y216000D01*
X331002Y215500D02*
X330002D01*
X330502D01*
Y218499D01*
X331002Y217999D01*
X335501Y123499D02*
X336000Y123999D01*
X337000D01*
X337500Y123499D01*
Y121500D01*
X337000Y121000D01*
X336000D01*
X335501Y121500D01*
X332502Y123999D02*
X334501D01*
Y122500D01*
X333501Y122999D01*
X333001D01*
X332502Y122500D01*
Y121500D01*
X333001Y121000D01*
X334001D01*
X334501Y121500D01*
X331502D02*
X331002Y121000D01*
X330002D01*
X329503Y121500D01*
Y123499D01*
X330002Y123999D01*
X331002D01*
X331502Y123499D01*
Y122999D01*
X331002Y122500D01*
X329503D01*
X429701Y690399D02*
X430200Y690899D01*
X431200D01*
X431700Y690399D01*
Y688400D01*
X431200Y687900D01*
X430200D01*
X429701Y688400D01*
X428701Y687900D02*
X427701D01*
X428201D01*
Y690899D01*
X428701Y690399D01*
X424202Y687900D02*
X426202D01*
X424202Y689899D01*
Y690399D01*
X424702Y690899D01*
X425702D01*
X426202Y690399D01*
X430001Y595899D02*
X430501Y596399D01*
X431500D01*
X432000Y595899D01*
Y593900D01*
X431500Y593400D01*
X430501D01*
X430001Y593900D01*
X427002Y593400D02*
X429001D01*
X427002Y595399D01*
Y595899D01*
X427501Y596399D01*
X428501D01*
X429001Y595899D01*
X426002D02*
X425502Y596399D01*
X424502D01*
X424003Y595899D01*
Y593900D01*
X424502Y593400D01*
X425502D01*
X426002Y593900D01*
Y595899D01*
X430001Y501499D02*
X430501Y501999D01*
X431500D01*
X432000Y501499D01*
Y499500D01*
X431500Y499000D01*
X430501D01*
X430001Y499500D01*
X427002Y499000D02*
X429001D01*
X427002Y500999D01*
Y501499D01*
X427501Y501999D01*
X428501D01*
X429001Y501499D01*
X426002D02*
X425502Y501999D01*
X424502D01*
X424003Y501499D01*
Y500999D01*
X424502Y500499D01*
X424003Y500000D01*
Y499500D01*
X424502Y499000D01*
X425502D01*
X426002Y499500D01*
Y500000D01*
X425502Y500499D01*
X426002Y500999D01*
Y501499D01*
X425502Y500499D02*
X424502D01*
X430001Y406999D02*
X430501Y407499D01*
X431500D01*
X432000Y406999D01*
Y405000D01*
X431500Y404500D01*
X430501D01*
X430001Y405000D01*
X429001Y406999D02*
X428501Y407499D01*
X427501D01*
X427002Y406999D01*
Y406499D01*
X427501Y406000D01*
X428001D01*
X427501D01*
X427002Y405500D01*
Y405000D01*
X427501Y404500D01*
X428501D01*
X429001Y405000D01*
X424003Y407499D02*
X425002Y406999D01*
X426002Y406000D01*
Y405000D01*
X425502Y404500D01*
X424502D01*
X424003Y405000D01*
Y405500D01*
X424502Y406000D01*
X426002D01*
X430001Y312499D02*
X430501Y312999D01*
X431500D01*
X432000Y312499D01*
Y310500D01*
X431500Y310000D01*
X430501D01*
X430001Y310500D01*
X427501Y310000D02*
Y312999D01*
X429001Y311500D01*
X427002D01*
X424502Y310000D02*
Y312999D01*
X426002Y311500D01*
X424003D01*
X430001Y217999D02*
X430501Y218499D01*
X431500D01*
X432000Y217999D01*
Y216000D01*
X431500Y215500D01*
X430501D01*
X430001Y216000D01*
X427002Y218499D02*
X429001D01*
Y217000D01*
X428001Y217499D01*
X427501D01*
X427002Y217000D01*
Y216000D01*
X427501Y215500D01*
X428501D01*
X429001Y216000D01*
X424003Y215500D02*
X426002D01*
X424003Y217499D01*
Y217999D01*
X424502Y218499D01*
X425502D01*
X426002Y217999D01*
X430001Y123499D02*
X430501Y123999D01*
X431500D01*
X432000Y123499D01*
Y121500D01*
X431500Y121000D01*
X430501D01*
X430001Y121500D01*
X427002Y123999D02*
X428001Y123499D01*
X429001Y122500D01*
Y121500D01*
X428501Y121000D01*
X427501D01*
X427002Y121500D01*
Y122000D01*
X427501Y122500D01*
X429001D01*
X426002Y123499D02*
X425502Y123999D01*
X424502D01*
X424003Y123499D01*
Y121500D01*
X424502Y121000D01*
X425502D01*
X426002Y121500D01*
Y123499D01*
X524201Y690399D02*
X524700Y690899D01*
X525700D01*
X526200Y690399D01*
Y688400D01*
X525700Y687900D01*
X524700D01*
X524201Y688400D01*
X523201Y687900D02*
X522201D01*
X522701D01*
Y690899D01*
X523201Y690399D01*
X520702D02*
X520202Y690899D01*
X519202D01*
X518702Y690399D01*
Y689899D01*
X519202Y689399D01*
X519702D01*
X519202D01*
X518702Y688900D01*
Y688400D01*
X519202Y687900D01*
X520202D01*
X520702Y688400D01*
X523901Y595899D02*
X524401Y596399D01*
X525400D01*
X525900Y595899D01*
Y593900D01*
X525400Y593400D01*
X524401D01*
X523901Y593900D01*
X520902Y593400D02*
X522901D01*
X520902Y595399D01*
Y595899D01*
X521402Y596399D01*
X522401D01*
X522901Y595899D01*
X519902Y593400D02*
X518902D01*
X519402D01*
Y596399D01*
X519902Y595899D01*
X524401Y501499D02*
X524900Y501999D01*
X525900D01*
X526400Y501499D01*
Y499500D01*
X525900Y499000D01*
X524900D01*
X524401Y499500D01*
X521402Y499000D02*
X523401D01*
X521402Y500999D01*
Y501499D01*
X521902Y501999D01*
X522901D01*
X523401Y501499D01*
X520402Y499500D02*
X519902Y499000D01*
X518902D01*
X518403Y499500D01*
Y501499D01*
X518902Y501999D01*
X519902D01*
X520402Y501499D01*
Y500999D01*
X519902Y500499D01*
X518403D01*
X524401Y406999D02*
X524900Y407499D01*
X525900D01*
X526400Y406999D01*
Y405000D01*
X525900Y404500D01*
X524900D01*
X524401Y405000D01*
X523401Y406999D02*
X522901Y407499D01*
X521902D01*
X521402Y406999D01*
Y406499D01*
X521902Y406000D01*
X522401D01*
X521902D01*
X521402Y405500D01*
Y405000D01*
X521902Y404500D01*
X522901D01*
X523401Y405000D01*
X520402Y407499D02*
X518403D01*
Y406999D01*
X520402Y405000D01*
Y404500D01*
X524401Y312499D02*
X524900Y312999D01*
X525900D01*
X526400Y312499D01*
Y310500D01*
X525900Y310000D01*
X524900D01*
X524401Y310500D01*
X521902Y310000D02*
Y312999D01*
X523401Y311500D01*
X521402D01*
X518403Y312999D02*
X520402D01*
Y311500D01*
X519402Y311999D01*
X518902D01*
X518403Y311500D01*
Y310500D01*
X518902Y310000D01*
X519902D01*
X520402Y310500D01*
X524401Y217999D02*
X524900Y218499D01*
X525900D01*
X526400Y217999D01*
Y216000D01*
X525900Y215500D01*
X524900D01*
X524401Y216000D01*
X521402Y218499D02*
X523401D01*
Y217000D01*
X522401Y217499D01*
X521902D01*
X521402Y217000D01*
Y216000D01*
X521902Y215500D01*
X522901D01*
X523401Y216000D01*
X520402Y217999D02*
X519902Y218499D01*
X518902D01*
X518403Y217999D01*
Y217499D01*
X518902Y217000D01*
X519402D01*
X518902D01*
X518403Y216500D01*
Y216000D01*
X518902Y215500D01*
X519902D01*
X520402Y216000D01*
X523901Y123499D02*
X524401Y123999D01*
X525400D01*
X525900Y123499D01*
Y121500D01*
X525400Y121000D01*
X524401D01*
X523901Y121500D01*
X520902Y123999D02*
X521901Y123499D01*
X522901Y122500D01*
Y121500D01*
X522401Y121000D01*
X521402D01*
X520902Y121500D01*
Y122000D01*
X521402Y122500D01*
X522901D01*
X519902Y121000D02*
X518902D01*
X519402D01*
Y123999D01*
X519902Y123499D01*
X618701Y690399D02*
X619201Y690899D01*
X620200D01*
X620700Y690399D01*
Y688400D01*
X620200Y687900D01*
X619201D01*
X618701Y688400D01*
X617701Y687900D02*
X616701D01*
X617201D01*
Y690899D01*
X617701Y690399D01*
X613702Y687900D02*
Y690899D01*
X615202Y689399D01*
X613202D01*
X618901Y595899D02*
X619401Y596399D01*
X620400D01*
X620900Y595899D01*
Y593900D01*
X620400Y593400D01*
X619401D01*
X618901Y593900D01*
X615902Y593400D02*
X617901D01*
X615902Y595399D01*
Y595899D01*
X616401Y596399D01*
X617401D01*
X617901Y595899D01*
X612903Y593400D02*
X614902D01*
X612903Y595399D01*
Y595899D01*
X613402Y596399D01*
X614402D01*
X614902Y595899D01*
X618901Y501499D02*
X619401Y501999D01*
X620400D01*
X620900Y501499D01*
Y499500D01*
X620400Y499000D01*
X619401D01*
X618901Y499500D01*
X617901Y501499D02*
X617401Y501999D01*
X616401D01*
X615902Y501499D01*
Y500999D01*
X616401Y500499D01*
X616901D01*
X616401D01*
X615902Y500000D01*
Y499500D01*
X616401Y499000D01*
X617401D01*
X617901Y499500D01*
X614902Y501499D02*
X614402Y501999D01*
X613402D01*
X612903Y501499D01*
Y499500D01*
X613402Y499000D01*
X614402D01*
X614902Y499500D01*
Y501499D01*
X618901Y406999D02*
X619401Y407499D01*
X620400D01*
X620900Y406999D01*
Y405000D01*
X620400Y404500D01*
X619401D01*
X618901Y405000D01*
X617901Y406999D02*
X617401Y407499D01*
X616401D01*
X615902Y406999D01*
Y406499D01*
X616401Y406000D01*
X616901D01*
X616401D01*
X615902Y405500D01*
Y405000D01*
X616401Y404500D01*
X617401D01*
X617901Y405000D01*
X614902Y406999D02*
X614402Y407499D01*
X613402D01*
X612903Y406999D01*
Y406499D01*
X613402Y406000D01*
X612903Y405500D01*
Y405000D01*
X613402Y404500D01*
X614402D01*
X614902Y405000D01*
Y405500D01*
X614402Y406000D01*
X614902Y406499D01*
Y406999D01*
X614402Y406000D02*
X613402D01*
X618901Y312499D02*
X619401Y312999D01*
X620400D01*
X620900Y312499D01*
Y310500D01*
X620400Y310000D01*
X619401D01*
X618901Y310500D01*
X616401Y310000D02*
Y312999D01*
X617901Y311500D01*
X615902D01*
X612903Y312999D02*
X613902Y312499D01*
X614902Y311500D01*
Y310500D01*
X614402Y310000D01*
X613402D01*
X612903Y310500D01*
Y311000D01*
X613402Y311500D01*
X614902D01*
X618901Y217999D02*
X619401Y218499D01*
X620400D01*
X620900Y217999D01*
Y216000D01*
X620400Y215500D01*
X619401D01*
X618901Y216000D01*
X615902Y218499D02*
X617901D01*
Y217000D01*
X616901Y217499D01*
X616401D01*
X615902Y217000D01*
Y216000D01*
X616401Y215500D01*
X617401D01*
X617901Y216000D01*
X613402Y215500D02*
Y218499D01*
X614902Y217000D01*
X612903D01*
X618901Y123499D02*
X619401Y123999D01*
X620400D01*
X620900Y123499D01*
Y121500D01*
X620400Y121000D01*
X619401D01*
X618901Y121500D01*
X615902Y123999D02*
X616901Y123499D01*
X617901Y122500D01*
Y121500D01*
X617401Y121000D01*
X616401D01*
X615902Y121500D01*
Y122000D01*
X616401Y122500D01*
X617901D01*
X612903Y121000D02*
X614902D01*
X612903Y122999D01*
Y123499D01*
X613402Y123999D01*
X614402D01*
X614902Y123499D01*
X713201Y690399D02*
X713700Y690899D01*
X714700D01*
X715200Y690399D01*
Y688400D01*
X714700Y687900D01*
X713700D01*
X713201Y688400D01*
X712201Y687900D02*
X711201D01*
X711701D01*
Y690899D01*
X712201Y690399D01*
X707702Y690899D02*
X709702D01*
Y689399D01*
X708702Y689899D01*
X708202D01*
X707702Y689399D01*
Y688400D01*
X708202Y687900D01*
X709202D01*
X709702Y688400D01*
X713401Y595899D02*
X713901Y596399D01*
X714900D01*
X715400Y595899D01*
Y593900D01*
X714900Y593400D01*
X713901D01*
X713401Y593900D01*
X710402Y593400D02*
X712401D01*
X710402Y595399D01*
Y595899D01*
X710901Y596399D01*
X711901D01*
X712401Y595899D01*
X709402D02*
X708902Y596399D01*
X707902D01*
X707403Y595899D01*
Y595399D01*
X707902Y594900D01*
X708402D01*
X707902D01*
X707403Y594400D01*
Y593900D01*
X707902Y593400D01*
X708902D01*
X709402Y593900D01*
X712901Y501499D02*
X713401Y501999D01*
X714400D01*
X714900Y501499D01*
Y499500D01*
X714400Y499000D01*
X713401D01*
X712901Y499500D01*
X711901Y501499D02*
X711401Y501999D01*
X710401D01*
X709902Y501499D01*
Y500999D01*
X710401Y500499D01*
X710901D01*
X710401D01*
X709902Y500000D01*
Y499500D01*
X710401Y499000D01*
X711401D01*
X711901Y499500D01*
X708902Y499000D02*
X707902D01*
X708402D01*
Y501999D01*
X708902Y501499D01*
X713401Y406999D02*
X713901Y407499D01*
X714900D01*
X715400Y406999D01*
Y405000D01*
X714900Y404500D01*
X713901D01*
X713401Y405000D01*
X712401Y406999D02*
X711901Y407499D01*
X710901D01*
X710402Y406999D01*
Y406499D01*
X710901Y406000D01*
X711401D01*
X710901D01*
X710402Y405500D01*
Y405000D01*
X710901Y404500D01*
X711901D01*
X712401Y405000D01*
X709402D02*
X708902Y404500D01*
X707902D01*
X707403Y405000D01*
Y406999D01*
X707902Y407499D01*
X708902D01*
X709402Y406999D01*
Y406499D01*
X708902Y406000D01*
X707403D01*
X713401Y312499D02*
X713901Y312999D01*
X714900D01*
X715400Y312499D01*
Y310500D01*
X714900Y310000D01*
X713901D01*
X713401Y310500D01*
X710901Y310000D02*
Y312999D01*
X712401Y311500D01*
X710402D01*
X709402Y312999D02*
X707403D01*
Y312499D01*
X709402Y310500D01*
Y310000D01*
X713401Y217999D02*
X713901Y218499D01*
X714900D01*
X715400Y217999D01*
Y216000D01*
X714900Y215500D01*
X713901D01*
X713401Y216000D01*
X710402Y218499D02*
X712401D01*
Y217000D01*
X711401Y217499D01*
X710901D01*
X710402Y217000D01*
Y216000D01*
X710901Y215500D01*
X711901D01*
X712401Y216000D01*
X707403Y218499D02*
X709402D01*
Y217000D01*
X708402Y217499D01*
X707902D01*
X707403Y217000D01*
Y216000D01*
X707902Y215500D01*
X708902D01*
X709402Y216000D01*
X713401Y123499D02*
X713901Y123999D01*
X714900D01*
X715400Y123499D01*
Y121500D01*
X714900Y121000D01*
X713901D01*
X713401Y121500D01*
X710402Y123999D02*
X711401Y123499D01*
X712401Y122500D01*
Y121500D01*
X711901Y121000D01*
X710901D01*
X710402Y121500D01*
Y122000D01*
X710901Y122500D01*
X712401D01*
X709402Y123499D02*
X708902Y123999D01*
X707902D01*
X707403Y123499D01*
Y122999D01*
X707902Y122500D01*
X708402D01*
X707902D01*
X707403Y122000D01*
Y121500D01*
X707902Y121000D01*
X708902D01*
X709402Y121500D01*
X807701Y690399D02*
X808200Y690899D01*
X809200D01*
X809700Y690399D01*
Y688400D01*
X809200Y687900D01*
X808200D01*
X807701Y688400D01*
X806701Y687900D02*
X805701D01*
X806201D01*
Y690899D01*
X806701Y690399D01*
X802202Y690899D02*
X803202Y690399D01*
X804202Y689399D01*
Y688400D01*
X803702Y687900D01*
X802702D01*
X802202Y688400D01*
Y688900D01*
X802702Y689399D01*
X804202D01*
X807901Y595899D02*
X808401Y596399D01*
X809400D01*
X809900Y595899D01*
Y593900D01*
X809400Y593400D01*
X808401D01*
X807901Y593900D01*
X804902Y593400D02*
X806901D01*
X804902Y595399D01*
Y595899D01*
X805402Y596399D01*
X806401D01*
X806901Y595899D01*
X802402Y593400D02*
Y596399D01*
X803902Y594900D01*
X801903D01*
X805101Y504199D02*
X805600Y504699D01*
X806600D01*
X807100Y504199D01*
Y502200D01*
X806600Y501700D01*
X805600D01*
X805101Y502200D01*
X804101Y504199D02*
X803601Y504699D01*
X802602D01*
X802102Y504199D01*
Y503699D01*
X802602Y503199D01*
X803101D01*
X802602D01*
X802102Y502700D01*
Y502200D01*
X802602Y501700D01*
X803601D01*
X804101Y502200D01*
X799103Y501700D02*
X801102D01*
X799103Y503699D01*
Y504199D01*
X799602Y504699D01*
X800602D01*
X801102Y504199D01*
X807901Y406999D02*
X808401Y407499D01*
X809400D01*
X809900Y406999D01*
Y405000D01*
X809400Y404500D01*
X808401D01*
X807901Y405000D01*
X805402Y404500D02*
Y407499D01*
X806901Y406000D01*
X804902D01*
X803902Y406999D02*
X803402Y407499D01*
X802402D01*
X801903Y406999D01*
Y405000D01*
X802402Y404500D01*
X803402D01*
X803902Y405000D01*
Y406999D01*
X807901Y312499D02*
X808401Y312999D01*
X809400D01*
X809900Y312499D01*
Y310500D01*
X809400Y310000D01*
X808401D01*
X807901Y310500D01*
X805402Y310000D02*
Y312999D01*
X806901Y311500D01*
X804902D01*
X803902Y312499D02*
X803402Y312999D01*
X802402D01*
X801903Y312499D01*
Y311999D01*
X802402Y311500D01*
X801903Y311000D01*
Y310500D01*
X802402Y310000D01*
X803402D01*
X803902Y310500D01*
Y311000D01*
X803402Y311500D01*
X803902Y311999D01*
Y312499D01*
X803402Y311500D02*
X802402D01*
X807901Y217999D02*
X808401Y218499D01*
X809400D01*
X809900Y217999D01*
Y216000D01*
X809400Y215500D01*
X808401D01*
X807901Y216000D01*
X804902Y218499D02*
X806901D01*
Y217000D01*
X805901Y217499D01*
X805402D01*
X804902Y217000D01*
Y216000D01*
X805402Y215500D01*
X806401D01*
X806901Y216000D01*
X801903Y218499D02*
X802902Y217999D01*
X803902Y217000D01*
Y216000D01*
X803402Y215500D01*
X802402D01*
X801903Y216000D01*
Y216500D01*
X802402Y217000D01*
X803902D01*
X807901Y123499D02*
X808401Y123999D01*
X809400D01*
X809900Y123499D01*
Y121500D01*
X809400Y121000D01*
X808401D01*
X807901Y121500D01*
X804902Y123999D02*
X805901Y123499D01*
X806901Y122500D01*
Y121500D01*
X806401Y121000D01*
X805402D01*
X804902Y121500D01*
Y122000D01*
X805402Y122500D01*
X806901D01*
X802402Y121000D02*
Y123999D01*
X803902Y122500D01*
X801903D01*
X119400Y718199D02*
Y715200D01*
X117901D01*
X117401Y715700D01*
Y717699D01*
X117901Y718199D01*
X119400D01*
X116401Y715700D02*
X115901Y715200D01*
X114901D01*
X114402Y715700D01*
Y717699D01*
X114901Y718199D01*
X115901D01*
X116401Y717699D01*
Y717199D01*
X115901Y716700D01*
X114402D01*
X120700Y623699D02*
Y620700D01*
X119201D01*
X118701Y621200D01*
Y623199D01*
X119201Y623699D01*
X120700D01*
X117701Y620700D02*
X116701D01*
X117201D01*
Y623699D01*
X117701Y623199D01*
X115202Y623699D02*
X113202D01*
Y623199D01*
X115202Y621200D01*
Y620700D01*
X120900Y529199D02*
Y526200D01*
X119401D01*
X118901Y526700D01*
Y528699D01*
X119401Y529199D01*
X120900D01*
X115902Y526200D02*
X117901D01*
X115902Y528199D01*
Y528699D01*
X116401Y529199D01*
X117401D01*
X117901Y528699D01*
X112903Y529199D02*
X114902D01*
Y527700D01*
X113902Y528199D01*
X113402D01*
X112903Y527700D01*
Y526700D01*
X113402Y526200D01*
X114402D01*
X114902Y526700D01*
X120900Y434699D02*
Y431700D01*
X119401D01*
X118901Y432200D01*
Y434199D01*
X119401Y434699D01*
X120900D01*
X117901Y434199D02*
X117401Y434699D01*
X116401D01*
X115902Y434199D01*
Y433699D01*
X116401Y433200D01*
X116901D01*
X116401D01*
X115902Y432700D01*
Y432200D01*
X116401Y431700D01*
X117401D01*
X117901Y432200D01*
X114902Y434199D02*
X114402Y434699D01*
X113402D01*
X112903Y434199D01*
Y433699D01*
X113402Y433200D01*
X113902D01*
X113402D01*
X112903Y432700D01*
Y432200D01*
X113402Y431700D01*
X114402D01*
X114902Y432200D01*
X120400Y340199D02*
Y337200D01*
X118901D01*
X118401Y337700D01*
Y339699D01*
X118901Y340199D01*
X120400D01*
X115901Y337200D02*
Y340199D01*
X117401Y338700D01*
X115402D01*
X114402Y337200D02*
X113402D01*
X113902D01*
Y340199D01*
X114402Y339699D01*
X120900Y245799D02*
Y242800D01*
X119401D01*
X118901Y243300D01*
Y245299D01*
X119401Y245799D01*
X120900D01*
X116401Y242800D02*
Y245799D01*
X117901Y244300D01*
X115902D01*
X114902Y243300D02*
X114402Y242800D01*
X113402D01*
X112903Y243300D01*
Y245299D01*
X113402Y245799D01*
X114402D01*
X114902Y245299D01*
Y244799D01*
X114402Y244300D01*
X112903D01*
X120900Y151299D02*
Y148300D01*
X119401D01*
X118901Y148800D01*
Y150799D01*
X119401Y151299D01*
X120900D01*
X115902D02*
X117901D01*
Y149800D01*
X116901Y150299D01*
X116401D01*
X115902Y149800D01*
Y148800D01*
X116401Y148300D01*
X117401D01*
X117901Y148800D01*
X114902Y151299D02*
X112903D01*
Y150799D01*
X114902Y148800D01*
Y148300D01*
X215200Y718199D02*
Y715200D01*
X213701D01*
X213201Y715700D01*
Y717699D01*
X213701Y718199D01*
X215200D01*
X212201Y715200D02*
X211201D01*
X211701D01*
Y718199D01*
X212201Y717699D01*
X209702D02*
X209202Y718199D01*
X208202D01*
X207702Y717699D01*
Y715700D01*
X208202Y715200D01*
X209202D01*
X209702Y715700D01*
Y717699D01*
X215200Y623699D02*
Y620700D01*
X213701D01*
X213201Y621200D01*
Y623199D01*
X213701Y623699D01*
X215200D01*
X212201Y620700D02*
X211201D01*
X211701D01*
Y623699D01*
X212201Y623199D01*
X209702D02*
X209202Y623699D01*
X208202D01*
X207702Y623199D01*
Y622699D01*
X208202Y622199D01*
X207702Y621700D01*
Y621200D01*
X208202Y620700D01*
X209202D01*
X209702Y621200D01*
Y621700D01*
X209202Y622199D01*
X209702Y622699D01*
Y623199D01*
X209202Y622199D02*
X208202D01*
X240200Y529199D02*
Y526200D01*
X238701D01*
X238201Y526700D01*
Y528699D01*
X238701Y529199D01*
X240200D01*
X235202Y526200D02*
X237201D01*
X235202Y528199D01*
Y528699D01*
X235701Y529199D01*
X236701D01*
X237201Y528699D01*
X232203Y529199D02*
X233202Y528699D01*
X234202Y527700D01*
Y526700D01*
X233702Y526200D01*
X232702D01*
X232203Y526700D01*
Y527200D01*
X232702Y527700D01*
X234202D01*
X240200Y434699D02*
Y431700D01*
X238701D01*
X238201Y432200D01*
Y434199D01*
X238701Y434699D01*
X240200D01*
X237201Y434199D02*
X236701Y434699D01*
X235701D01*
X235202Y434199D01*
Y433699D01*
X235701Y433200D01*
X236201D01*
X235701D01*
X235202Y432700D01*
Y432200D01*
X235701Y431700D01*
X236701D01*
X237201Y432200D01*
X232702Y431700D02*
Y434699D01*
X234202Y433200D01*
X232203D01*
X215400Y340199D02*
Y337200D01*
X213900D01*
X213401Y337700D01*
Y339699D01*
X213900Y340199D01*
X215400D01*
X210901Y337200D02*
Y340199D01*
X212401Y338700D01*
X210402D01*
X207403Y337200D02*
X209402D01*
X207403Y339199D01*
Y339699D01*
X207902Y340199D01*
X208902D01*
X209402Y339699D01*
X215400Y245799D02*
Y242800D01*
X213900D01*
X213401Y243300D01*
Y245299D01*
X213900Y245799D01*
X215400D01*
X210402D02*
X212401D01*
Y244300D01*
X211401Y244799D01*
X210901D01*
X210402Y244300D01*
Y243300D01*
X210901Y242800D01*
X211901D01*
X212401Y243300D01*
X209402Y245299D02*
X208902Y245799D01*
X207902D01*
X207403Y245299D01*
Y243300D01*
X207902Y242800D01*
X208902D01*
X209402Y243300D01*
Y245299D01*
X240200Y151299D02*
Y148300D01*
X238701D01*
X238201Y148800D01*
Y150799D01*
X238701Y151299D01*
X240200D01*
X235202D02*
X237201D01*
Y149800D01*
X236201Y150299D01*
X235701D01*
X235202Y149800D01*
Y148800D01*
X235701Y148300D01*
X236701D01*
X237201Y148800D01*
X234202Y150799D02*
X233702Y151299D01*
X232702D01*
X232203Y150799D01*
Y150299D01*
X232702Y149800D01*
X232203Y149300D01*
Y148800D01*
X232702Y148300D01*
X233702D01*
X234202Y148800D01*
Y149300D01*
X233702Y149800D01*
X234202Y150299D01*
Y150799D01*
X233702Y149800D02*
X232702D01*
X309200Y718199D02*
Y715200D01*
X307700D01*
X307201Y715700D01*
Y717699D01*
X307700Y718199D01*
X309200D01*
X306201Y715200D02*
X305201D01*
X305701D01*
Y718199D01*
X306201Y717699D01*
X303702Y715200D02*
X302702D01*
X303202D01*
Y718199D01*
X303702Y717699D01*
X309700Y623699D02*
Y620700D01*
X308201D01*
X307701Y621200D01*
Y623199D01*
X308201Y623699D01*
X309700D01*
X306701Y620700D02*
X305701D01*
X306201D01*
Y623699D01*
X306701Y623199D01*
X304202Y621200D02*
X303702Y620700D01*
X302702D01*
X302202Y621200D01*
Y623199D01*
X302702Y623699D01*
X303702D01*
X304202Y623199D01*
Y622699D01*
X303702Y622199D01*
X302202D01*
X334700Y529199D02*
Y526200D01*
X333201D01*
X332701Y526700D01*
Y528699D01*
X333201Y529199D01*
X334700D01*
X329702Y526200D02*
X331701D01*
X329702Y528199D01*
Y528699D01*
X330202Y529199D01*
X331201D01*
X331701Y528699D01*
X328702Y529199D02*
X326703D01*
Y528699D01*
X328702Y526700D01*
Y526200D01*
X334700Y434699D02*
Y431700D01*
X333201D01*
X332701Y432200D01*
Y434199D01*
X333201Y434699D01*
X334700D01*
X331701Y434199D02*
X331201Y434699D01*
X330202D01*
X329702Y434199D01*
Y433699D01*
X330202Y433200D01*
X330701D01*
X330202D01*
X329702Y432700D01*
Y432200D01*
X330202Y431700D01*
X331201D01*
X331701Y432200D01*
X326703Y434699D02*
X328702D01*
Y433200D01*
X327702Y433699D01*
X327202D01*
X326703Y433200D01*
Y432200D01*
X327202Y431700D01*
X328202D01*
X328702Y432200D01*
X309900Y340199D02*
Y337200D01*
X308401D01*
X307901Y337700D01*
Y339699D01*
X308401Y340199D01*
X309900D01*
X305401Y337200D02*
Y340199D01*
X306901Y338700D01*
X304902D01*
X303902Y339699D02*
X303402Y340199D01*
X302402D01*
X301903Y339699D01*
Y339199D01*
X302402Y338700D01*
X302902D01*
X302402D01*
X301903Y338200D01*
Y337700D01*
X302402Y337200D01*
X303402D01*
X303902Y337700D01*
X309400Y245799D02*
Y242800D01*
X307901D01*
X307401Y243300D01*
Y245299D01*
X307901Y245799D01*
X309400D01*
X304402D02*
X306401D01*
Y244300D01*
X305401Y244799D01*
X304902D01*
X304402Y244300D01*
Y243300D01*
X304902Y242800D01*
X305901D01*
X306401Y243300D01*
X303402Y242800D02*
X302402D01*
X302902D01*
Y245799D01*
X303402Y245299D01*
X404100Y718199D02*
Y715200D01*
X402600D01*
X402101Y715700D01*
Y717699D01*
X402600Y718199D01*
X404100D01*
X401101Y715200D02*
X400101D01*
X400601D01*
Y718199D01*
X401101Y717699D01*
X396602Y715200D02*
X398602D01*
X396602Y717199D01*
Y717699D01*
X397102Y718199D01*
X398102D01*
X398602Y717699D01*
X404400Y623699D02*
Y620700D01*
X402901D01*
X402401Y621200D01*
Y623199D01*
X402901Y623699D01*
X404400D01*
X399402Y620700D02*
X401401D01*
X399402Y622699D01*
Y623199D01*
X399902Y623699D01*
X400901D01*
X401401Y623199D01*
X398402D02*
X397902Y623699D01*
X396902D01*
X396403Y623199D01*
Y621200D01*
X396902Y620700D01*
X397902D01*
X398402Y621200D01*
Y623199D01*
X404400Y529199D02*
Y526200D01*
X402901D01*
X402401Y526700D01*
Y528699D01*
X402901Y529199D01*
X404400D01*
X399402Y526200D02*
X401401D01*
X399402Y528199D01*
Y528699D01*
X399902Y529199D01*
X400901D01*
X401401Y528699D01*
X398402D02*
X397902Y529199D01*
X396902D01*
X396403Y528699D01*
Y528199D01*
X396902Y527700D01*
X396403Y527200D01*
Y526700D01*
X396902Y526200D01*
X397902D01*
X398402Y526700D01*
Y527200D01*
X397902Y527700D01*
X398402Y528199D01*
Y528699D01*
X397902Y527700D02*
X396902D01*
X404400Y434699D02*
Y431700D01*
X402901D01*
X402401Y432200D01*
Y434199D01*
X402901Y434699D01*
X404400D01*
X401401Y434199D02*
X400901Y434699D01*
X399902D01*
X399402Y434199D01*
Y433699D01*
X399902Y433200D01*
X400401D01*
X399902D01*
X399402Y432700D01*
Y432200D01*
X399902Y431700D01*
X400901D01*
X401401Y432200D01*
X396403Y434699D02*
X397402Y434199D01*
X398402Y433200D01*
Y432200D01*
X397902Y431700D01*
X396902D01*
X396403Y432200D01*
Y432700D01*
X396902Y433200D01*
X398402D01*
X404400Y340199D02*
Y337200D01*
X402901D01*
X402401Y337700D01*
Y339699D01*
X402901Y340199D01*
X404400D01*
X399902Y337200D02*
Y340199D01*
X401401Y338700D01*
X399402D01*
X396902Y337200D02*
Y340199D01*
X398402Y338700D01*
X396403D01*
X404400Y245799D02*
Y242800D01*
X402901D01*
X402401Y243300D01*
Y245299D01*
X402901Y245799D01*
X404400D01*
X399402D02*
X401401D01*
Y244300D01*
X400401Y244799D01*
X399902D01*
X399402Y244300D01*
Y243300D01*
X399902Y242800D01*
X400901D01*
X401401Y243300D01*
X396403Y242800D02*
X398402D01*
X396403Y244799D01*
Y245299D01*
X396902Y245799D01*
X397902D01*
X398402Y245299D01*
X404400Y151299D02*
Y148300D01*
X402901D01*
X402401Y148800D01*
Y150799D01*
X402901Y151299D01*
X404400D01*
X399402D02*
X400401Y150799D01*
X401401Y149800D01*
Y148800D01*
X400901Y148300D01*
X399902D01*
X399402Y148800D01*
Y149300D01*
X399902Y149800D01*
X401401D01*
X398402Y150799D02*
X397902Y151299D01*
X396902D01*
X396403Y150799D01*
Y148800D01*
X396902Y148300D01*
X397902D01*
X398402Y148800D01*
Y150799D01*
X498400Y623699D02*
Y620700D01*
X496901D01*
X496401Y621200D01*
Y623199D01*
X496901Y623699D01*
X498400D01*
X493402Y620700D02*
X495401D01*
X493402Y622699D01*
Y623199D01*
X493901Y623699D01*
X494901D01*
X495401Y623199D01*
X492402Y620700D02*
X491402D01*
X491902D01*
Y623699D01*
X492402Y623199D01*
X498900Y529199D02*
Y526200D01*
X497401D01*
X496901Y526700D01*
Y528699D01*
X497401Y529199D01*
X498900D01*
X493902Y526200D02*
X495901D01*
X493902Y528199D01*
Y528699D01*
X494402Y529199D01*
X495401D01*
X495901Y528699D01*
X492902Y526700D02*
X492402Y526200D01*
X491402D01*
X490903Y526700D01*
Y528699D01*
X491402Y529199D01*
X492402D01*
X492902Y528699D01*
Y528199D01*
X492402Y527700D01*
X490903D01*
X498900Y434699D02*
Y431700D01*
X497401D01*
X496901Y432200D01*
Y434199D01*
X497401Y434699D01*
X498900D01*
X495901Y434199D02*
X495401Y434699D01*
X494402D01*
X493902Y434199D01*
Y433699D01*
X494402Y433200D01*
X494901D01*
X494402D01*
X493902Y432700D01*
Y432200D01*
X494402Y431700D01*
X495401D01*
X495901Y432200D01*
X492902Y434699D02*
X490903D01*
Y434199D01*
X492902Y432200D01*
Y431700D01*
X498900Y340199D02*
Y337200D01*
X497401D01*
X496901Y337700D01*
Y339699D01*
X497401Y340199D01*
X498900D01*
X494402Y337200D02*
Y340199D01*
X495901Y338700D01*
X493902D01*
X490903Y340199D02*
X492902D01*
Y338700D01*
X491902Y339199D01*
X491402D01*
X490903Y338700D01*
Y337700D01*
X491402Y337200D01*
X492402D01*
X492902Y337700D01*
X498900Y245799D02*
Y242800D01*
X497401D01*
X496901Y243300D01*
Y245299D01*
X497401Y245799D01*
X498900D01*
X493902D02*
X495901D01*
Y244300D01*
X494901Y244799D01*
X494402D01*
X493902Y244300D01*
Y243300D01*
X494402Y242800D01*
X495401D01*
X495901Y243300D01*
X492902Y245299D02*
X492402Y245799D01*
X491402D01*
X490903Y245299D01*
Y244799D01*
X491402Y244300D01*
X491902D01*
X491402D01*
X490903Y243800D01*
Y243300D01*
X491402Y242800D01*
X492402D01*
X492902Y243300D01*
X498400Y151299D02*
Y148300D01*
X496901D01*
X496401Y148800D01*
Y150799D01*
X496901Y151299D01*
X498400D01*
X493402D02*
X494401Y150799D01*
X495401Y149800D01*
Y148800D01*
X494901Y148300D01*
X493901D01*
X493402Y148800D01*
Y149300D01*
X493901Y149800D01*
X495401D01*
X492402Y148300D02*
X491402D01*
X491902D01*
Y151299D01*
X492402Y150799D01*
X593100Y718199D02*
Y715200D01*
X591601D01*
X591101Y715700D01*
Y717699D01*
X591601Y718199D01*
X593100D01*
X590101Y715200D02*
X589101D01*
X589601D01*
Y718199D01*
X590101Y717699D01*
X586102Y715200D02*
Y718199D01*
X587602Y716700D01*
X585602D01*
X593400Y623699D02*
Y620700D01*
X591900D01*
X591401Y621200D01*
Y623199D01*
X591900Y623699D01*
X593400D01*
X588402Y620700D02*
X590401D01*
X588402Y622699D01*
Y623199D01*
X588902Y623699D01*
X589901D01*
X590401Y623199D01*
X585403Y620700D02*
X587402D01*
X585403Y622699D01*
Y623199D01*
X585902Y623699D01*
X586902D01*
X587402Y623199D01*
X618200Y529199D02*
Y526200D01*
X616701D01*
X616201Y526700D01*
Y528699D01*
X616701Y529199D01*
X618200D01*
X615201Y528699D02*
X614701Y529199D01*
X613701D01*
X613202Y528699D01*
Y528199D01*
X613701Y527700D01*
X614201D01*
X613701D01*
X613202Y527200D01*
Y526700D01*
X613701Y526200D01*
X614701D01*
X615201Y526700D01*
X612202Y528699D02*
X611702Y529199D01*
X610702D01*
X610203Y528699D01*
Y526700D01*
X610702Y526200D01*
X611702D01*
X612202Y526700D01*
Y528699D01*
X618200Y434699D02*
Y431700D01*
X616701D01*
X616201Y432200D01*
Y434199D01*
X616701Y434699D01*
X618200D01*
X615201Y434199D02*
X614701Y434699D01*
X613701D01*
X613202Y434199D01*
Y433699D01*
X613701Y433200D01*
X614201D01*
X613701D01*
X613202Y432700D01*
Y432200D01*
X613701Y431700D01*
X614701D01*
X615201Y432200D01*
X612202Y434199D02*
X611702Y434699D01*
X610702D01*
X610203Y434199D01*
Y433699D01*
X610702Y433200D01*
X610203Y432700D01*
Y432200D01*
X610702Y431700D01*
X611702D01*
X612202Y432200D01*
Y432700D01*
X611702Y433200D01*
X612202Y433699D01*
Y434199D01*
X611702Y433200D02*
X610702D01*
X593400Y340199D02*
Y337200D01*
X591900D01*
X591401Y337700D01*
Y339699D01*
X591900Y340199D01*
X593400D01*
X588902Y337200D02*
Y340199D01*
X590401Y338700D01*
X588402D01*
X585403Y340199D02*
X586402Y339699D01*
X587402Y338700D01*
Y337700D01*
X586902Y337200D01*
X585902D01*
X585403Y337700D01*
Y338200D01*
X585902Y338700D01*
X587402D01*
X593400Y245799D02*
Y242800D01*
X591900D01*
X591401Y243300D01*
Y245299D01*
X591900Y245799D01*
X593400D01*
X588402D02*
X590401D01*
Y244300D01*
X589401Y244799D01*
X588902D01*
X588402Y244300D01*
Y243300D01*
X588902Y242800D01*
X589901D01*
X590401Y243300D01*
X585902Y242800D02*
Y245799D01*
X587402Y244300D01*
X585403D01*
X618200Y151299D02*
Y148300D01*
X616701D01*
X616201Y148800D01*
Y150799D01*
X616701Y151299D01*
X618200D01*
X613202D02*
X614201Y150799D01*
X615201Y149800D01*
Y148800D01*
X614701Y148300D01*
X613701D01*
X613202Y148800D01*
Y149300D01*
X613701Y149800D01*
X615201D01*
X610203Y148300D02*
X612202D01*
X610203Y150299D01*
Y150799D01*
X610702Y151299D01*
X611702D01*
X612202Y150799D01*
X687600Y718199D02*
Y715200D01*
X686100D01*
X685601Y715700D01*
Y717699D01*
X686100Y718199D01*
X687600D01*
X684601Y715200D02*
X683601D01*
X684101D01*
Y718199D01*
X684601Y717699D01*
X680102Y718199D02*
X682102D01*
Y716700D01*
X681102Y717199D01*
X680602D01*
X680102Y716700D01*
Y715700D01*
X680602Y715200D01*
X681602D01*
X682102Y715700D01*
X687900Y623699D02*
Y620700D01*
X686401D01*
X685901Y621200D01*
Y623199D01*
X686401Y623699D01*
X687900D01*
X682902Y620700D02*
X684901D01*
X682902Y622699D01*
Y623199D01*
X683401Y623699D01*
X684401D01*
X684901Y623199D01*
X681902D02*
X681402Y623699D01*
X680402D01*
X679903Y623199D01*
Y622699D01*
X680402Y622199D01*
X680902D01*
X680402D01*
X679903Y621700D01*
Y621200D01*
X680402Y620700D01*
X681402D01*
X681902Y621200D01*
X712200Y529199D02*
Y526200D01*
X710701D01*
X710201Y526700D01*
Y528699D01*
X710701Y529199D01*
X712200D01*
X709201Y528699D02*
X708701Y529199D01*
X707701D01*
X707202Y528699D01*
Y528199D01*
X707701Y527700D01*
X708201D01*
X707701D01*
X707202Y527200D01*
Y526700D01*
X707701Y526200D01*
X708701D01*
X709201Y526700D01*
X706202Y526200D02*
X705202D01*
X705702D01*
Y529199D01*
X706202Y528699D01*
X712700Y434699D02*
Y431700D01*
X711201D01*
X710701Y432200D01*
Y434199D01*
X711201Y434699D01*
X712700D01*
X709701Y434199D02*
X709201Y434699D01*
X708202D01*
X707702Y434199D01*
Y433699D01*
X708202Y433200D01*
X708701D01*
X708202D01*
X707702Y432700D01*
Y432200D01*
X708202Y431700D01*
X709201D01*
X709701Y432200D01*
X706702D02*
X706202Y431700D01*
X705202D01*
X704703Y432200D01*
Y434199D01*
X705202Y434699D01*
X706202D01*
X706702Y434199D01*
Y433699D01*
X706202Y433200D01*
X704703D01*
X687900Y340199D02*
Y337200D01*
X686401D01*
X685901Y337700D01*
Y339699D01*
X686401Y340199D01*
X687900D01*
X683401Y337200D02*
Y340199D01*
X684901Y338700D01*
X682902D01*
X681902Y340199D02*
X679903D01*
Y339699D01*
X681902Y337700D01*
Y337200D01*
X687900Y245799D02*
Y242800D01*
X686401D01*
X685901Y243300D01*
Y245299D01*
X686401Y245799D01*
X687900D01*
X682902D02*
X684901D01*
Y244300D01*
X683901Y244799D01*
X683401D01*
X682902Y244300D01*
Y243300D01*
X683401Y242800D01*
X684401D01*
X684901Y243300D01*
X679903Y245799D02*
X681902D01*
Y244300D01*
X680902Y244799D01*
X680402D01*
X679903Y244300D01*
Y243300D01*
X680402Y242800D01*
X681402D01*
X681902Y243300D01*
X782100Y718199D02*
Y715200D01*
X780601D01*
X780101Y715700D01*
Y717699D01*
X780601Y718199D01*
X782100D01*
X779101Y715200D02*
X778101D01*
X778601D01*
Y718199D01*
X779101Y717699D01*
X774602Y718199D02*
X775602Y717699D01*
X776602Y716700D01*
Y715700D01*
X776102Y715200D01*
X775102D01*
X774602Y715700D01*
Y716200D01*
X775102Y716700D01*
X776602D01*
X782300Y623699D02*
Y620700D01*
X780800D01*
X780301Y621200D01*
Y623199D01*
X780800Y623699D01*
X782300D01*
X777302Y620700D02*
X779301D01*
X777302Y622699D01*
Y623199D01*
X777802Y623699D01*
X778801D01*
X779301Y623199D01*
X774802Y620700D02*
Y623699D01*
X776302Y622199D01*
X774303D01*
X782300Y529199D02*
Y526200D01*
X780800D01*
X780301Y526700D01*
Y528699D01*
X780800Y529199D01*
X782300D01*
X779301Y528699D02*
X778801Y529199D01*
X777802D01*
X777302Y528699D01*
Y528199D01*
X777802Y527700D01*
X778301D01*
X777802D01*
X777302Y527200D01*
Y526700D01*
X777802Y526200D01*
X778801D01*
X779301Y526700D01*
X774303Y526200D02*
X776302D01*
X774303Y528199D01*
Y528699D01*
X774802Y529199D01*
X775802D01*
X776302Y528699D01*
X782300Y434699D02*
Y431700D01*
X780800D01*
X780301Y432200D01*
Y434199D01*
X780800Y434699D01*
X782300D01*
X777802Y431700D02*
Y434699D01*
X779301Y433200D01*
X777302D01*
X776302Y434199D02*
X775802Y434699D01*
X774802D01*
X774303Y434199D01*
Y432200D01*
X774802Y431700D01*
X775802D01*
X776302Y432200D01*
Y434199D01*
X782300Y340199D02*
Y337200D01*
X780800D01*
X780301Y337700D01*
Y339699D01*
X780800Y340199D01*
X782300D01*
X777802Y337200D02*
Y340199D01*
X779301Y338700D01*
X777302D01*
X776302Y339699D02*
X775802Y340199D01*
X774802D01*
X774303Y339699D01*
Y339199D01*
X774802Y338700D01*
X774303Y338200D01*
Y337700D01*
X774802Y337200D01*
X775802D01*
X776302Y337700D01*
Y338200D01*
X775802Y338700D01*
X776302Y339199D01*
Y339699D01*
X775802Y338700D02*
X774802D01*
X782300Y245799D02*
Y242800D01*
X780800D01*
X780301Y243300D01*
Y245299D01*
X780800Y245799D01*
X782300D01*
X777302D02*
X779301D01*
Y244300D01*
X778301Y244799D01*
X777802D01*
X777302Y244300D01*
Y243300D01*
X777802Y242800D01*
X778801D01*
X779301Y243300D01*
X774303Y245799D02*
X775302Y245299D01*
X776302Y244300D01*
Y243300D01*
X775802Y242800D01*
X774802D01*
X774303Y243300D01*
Y243800D01*
X774802Y244300D01*
X776302D01*
X782300Y151299D02*
Y148300D01*
X780800D01*
X780301Y148800D01*
Y150799D01*
X780800Y151299D01*
X782300D01*
X777302D02*
X778301Y150799D01*
X779301Y149800D01*
Y148800D01*
X778801Y148300D01*
X777802D01*
X777302Y148800D01*
Y149300D01*
X777802Y149800D01*
X779301D01*
X774802Y148300D02*
Y151299D01*
X776302Y149800D01*
X774303D01*
X780800Y812699D02*
Y809700D01*
X779300D01*
X778801Y810200D01*
Y812199D01*
X779300Y812699D01*
X780800D01*
X777801Y812199D02*
X777301Y812699D01*
X776301D01*
X775802Y812199D01*
Y811699D01*
X776301Y811199D01*
X775802Y810700D01*
Y810200D01*
X776301Y809700D01*
X777301D01*
X777801Y810200D01*
Y810700D01*
X777301Y811199D01*
X777801Y811699D01*
Y812199D01*
X777301Y811199D02*
X776301D01*
X686400Y812699D02*
Y809700D01*
X684901D01*
X684401Y810200D01*
Y812199D01*
X684901Y812699D01*
X686400D01*
X683401D02*
X681402D01*
Y812199D01*
X683401Y810200D01*
Y809700D01*
X603700Y812699D02*
Y809700D01*
X602201D01*
X601701Y810200D01*
Y812199D01*
X602201Y812699D01*
X603700D01*
X598702D02*
X599701Y812199D01*
X600701Y811199D01*
Y810200D01*
X600201Y809700D01*
X599201D01*
X598702Y810200D01*
Y810700D01*
X599201Y811199D01*
X600701D01*
X508400Y808699D02*
Y805700D01*
X506901D01*
X506401Y806200D01*
Y808199D01*
X506901Y808699D01*
X508400D01*
X503402D02*
X505401D01*
Y807199D01*
X504401Y807699D01*
X503901D01*
X503402Y807199D01*
Y806200D01*
X503901Y805700D01*
X504901D01*
X505401Y806200D01*
X402900Y812699D02*
Y809700D01*
X401401D01*
X400901Y810200D01*
Y812199D01*
X401401Y812699D01*
X402900D01*
X398401Y809700D02*
Y812699D01*
X399901Y811199D01*
X397902D01*
X308400Y812699D02*
Y809700D01*
X306901D01*
X306401Y810200D01*
Y812199D01*
X306901Y812699D01*
X308400D01*
X305401Y812199D02*
X304901Y812699D01*
X303902D01*
X303402Y812199D01*
Y811699D01*
X303902Y811199D01*
X304401D01*
X303902D01*
X303402Y810700D01*
Y810200D01*
X303902Y809700D01*
X304901D01*
X305401Y810200D01*
X213900Y812699D02*
Y809700D01*
X212401D01*
X211901Y810200D01*
Y812199D01*
X212401Y812699D01*
X213900D01*
X208902Y809700D02*
X210901D01*
X208902Y811699D01*
Y812199D01*
X209401Y812699D01*
X210401D01*
X210901Y812199D01*
X806401Y784899D02*
X806901Y785399D01*
X807900D01*
X808400Y784899D01*
Y782900D01*
X807900Y782400D01*
X806901D01*
X806401Y782900D01*
X805401Y784899D02*
X804901Y785399D01*
X803901D01*
X803402Y784899D01*
Y784399D01*
X803901Y783899D01*
X803402Y783400D01*
Y782900D01*
X803901Y782400D01*
X804901D01*
X805401Y782900D01*
Y783400D01*
X804901Y783899D01*
X805401Y784399D01*
Y784899D01*
X804901Y783899D02*
X803901D01*
X716001Y784899D02*
X716501Y785399D01*
X717500D01*
X718000Y784899D01*
Y782900D01*
X717500Y782400D01*
X716501D01*
X716001Y782900D01*
X715001Y785399D02*
X713002D01*
Y784899D01*
X715001Y782900D01*
Y782400D01*
X608401Y784899D02*
X608900Y785399D01*
X609900D01*
X610400Y784899D01*
Y782900D01*
X609900Y782400D01*
X608900D01*
X608401Y782900D01*
X605402Y785399D02*
X606401Y784899D01*
X607401Y783899D01*
Y782900D01*
X606901Y782400D01*
X605901D01*
X605402Y782900D01*
Y783400D01*
X605901Y783899D01*
X607401D01*
X522901Y784899D02*
X523400Y785399D01*
X524400D01*
X524900Y784899D01*
Y782900D01*
X524400Y782400D01*
X523400D01*
X522901Y782900D01*
X519902Y785399D02*
X521901D01*
Y783899D01*
X520901Y784399D01*
X520401D01*
X519902Y783899D01*
Y782900D01*
X520401Y782400D01*
X521401D01*
X521901Y782900D01*
X428501Y784899D02*
X429001Y785399D01*
X430000D01*
X430500Y784899D01*
Y782900D01*
X430000Y782400D01*
X429001D01*
X428501Y782900D01*
X426002Y782400D02*
Y785399D01*
X427501Y783899D01*
X425502D01*
X338101Y784899D02*
X338600Y785399D01*
X339600D01*
X340100Y784899D01*
Y782900D01*
X339600Y782400D01*
X338600D01*
X338101Y782900D01*
X337101Y784899D02*
X336601Y785399D01*
X335601D01*
X335102Y784899D01*
Y784399D01*
X335601Y783899D01*
X336101D01*
X335601D01*
X335102Y783400D01*
Y782900D01*
X335601Y782400D01*
X336601D01*
X337101Y782900D01*
X230801Y784899D02*
X231300Y785399D01*
X232300D01*
X232800Y784899D01*
Y782900D01*
X232300Y782400D01*
X231300D01*
X230801Y782900D01*
X227802Y782400D02*
X229801D01*
X227802Y784399D01*
Y784899D01*
X228302Y785399D01*
X229301D01*
X229801Y784899D01*
X118900Y812699D02*
Y809700D01*
X117401D01*
X116901Y810200D01*
Y812199D01*
X117401Y812699D01*
X118900D01*
X115901Y809700D02*
X114901D01*
X115401D01*
Y812699D01*
X115901Y812199D01*
X144501Y784899D02*
X145001Y785399D01*
X146000D01*
X146500Y784899D01*
Y782900D01*
X146000Y782400D01*
X145001D01*
X144501Y782900D01*
X143501Y782400D02*
X142501D01*
X143001D01*
Y785399D01*
X143501Y784899D01*
D32*
X302756Y414961D02*
Y509449D01*
X264173Y414961D02*
Y509449D01*
Y529921D01*
X302756Y509449D02*
Y529921D01*
X264173D02*
X302756D01*
X264173Y509449D02*
X302756D01*
X264173Y414961D02*
X302756D01*
X642126D02*
X680709D01*
X642126Y509449D02*
X680709D01*
X642126Y529921D02*
X680709D01*
Y509449D02*
Y529921D01*
X642126Y509449D02*
Y529921D01*
Y414961D02*
Y509449D01*
X680709Y414961D02*
Y509449D01*
X464567Y169291D02*
Y208661D01*
X480315Y169291D02*
Y208661D01*
X464567Y169291D02*
X480315D01*
X464567Y208661D02*
X480315D01*
D33*
X490354Y734154D02*
G03*
X490354Y734154I-492J0D01*
G01*
D69*
X486811Y742717D02*
G03*
X486811Y742717I-1181J0D01*
G01*
D73*
X523779Y834921D02*
X526535D01*
X523779Y822717D02*
X526535D01*
Y834921D01*
X523779Y822717D02*
Y834921D01*
X559961Y853268D02*
Y863268D01*
Y853268D02*
X579961D01*
Y863268D01*
X559961D02*
X579961D01*
X140472Y836024D02*
X143622D01*
X140472Y841929D02*
X143622D01*
X528465Y853268D02*
Y863268D01*
Y853268D02*
X538465D01*
X528465Y863268D02*
X538465D01*
X548465D01*
Y853268D02*
Y863268D01*
X538465Y853268D02*
X548465D01*
X455315Y738779D02*
X489567D01*
X455315Y773032D02*
X489567D01*
Y738779D02*
Y773032D01*
X455315Y738779D02*
Y773032D01*
X580118Y853268D02*
Y863268D01*
X631457Y853268D02*
Y863268D01*
X591457D02*
X631457D01*
X591457Y853268D02*
X631457D01*
X591457D02*
Y863268D01*
D92*
X464930Y153523D02*
X465430Y154023D01*
X466429D01*
X466929Y153523D01*
Y151523D01*
X466429Y151024D01*
X465430D01*
X464930Y151523D01*
X463930Y153523D02*
X463430Y154023D01*
X462431D01*
X461931Y153523D01*
Y153023D01*
X462431Y152523D01*
X462930D01*
X462431D01*
X461931Y152023D01*
Y151523D01*
X462431Y151024D01*
X463430D01*
X463930Y151523D01*
X458501Y153523D02*
X459000Y154023D01*
X460000D01*
X460500Y153523D01*
Y151523D01*
X460000Y151024D01*
X459000D01*
X458501Y151523D01*
X456002Y151024D02*
Y154023D01*
X457501Y152523D01*
X455502D01*
X486401Y153523D02*
X486901Y154023D01*
X487900D01*
X488400Y153523D01*
Y151523D01*
X487900Y151024D01*
X486901D01*
X486401Y151523D01*
X485401Y151024D02*
X484401D01*
X484901D01*
Y154023D01*
X485401Y153523D01*
X480678D02*
X481178Y154023D01*
X482177D01*
X482677Y153523D01*
Y151523D01*
X482177Y151024D01*
X481178D01*
X480678Y151523D01*
X477679Y151024D02*
X479678D01*
X477679Y153023D01*
Y153523D01*
X478179Y154023D01*
X479178D01*
X479678Y153523D01*
X475900Y151024D02*
Y154023D01*
X474401D01*
X473901Y153523D01*
Y152523D01*
X474401Y152023D01*
X475900D01*
X474900D02*
X473901Y151024D01*
X472901D02*
Y153023D01*
X471901Y154023D01*
X470902Y153023D01*
Y151024D01*
Y152523D01*
X472901D01*
X469902Y151024D02*
X468902D01*
X469402D01*
Y154023D01*
X469902Y153523D01*
X483700Y214699D02*
X481701D01*
X482700D01*
Y211700D01*
X479202Y214699D02*
X480201D01*
X480701Y214199D01*
Y212200D01*
X480201Y211700D01*
X479202D01*
X478702Y212200D01*
Y214199D01*
X479202Y214699D01*
X477702D02*
Y212200D01*
X477202Y211700D01*
X476202D01*
X475703Y212200D01*
Y214699D01*
X472704Y214199D02*
X473203Y214699D01*
X474203D01*
X474703Y214199D01*
Y212200D01*
X474203Y211700D01*
X473203D01*
X472704Y212200D01*
X471704Y214699D02*
Y211700D01*
Y213199D01*
X469704D01*
Y214699D01*
Y211700D01*
X465706Y214699D02*
X464706D01*
X465206D01*
Y211700D01*
X465706D01*
X464706D01*
X461207Y214199D02*
X461707Y214699D01*
X462707D01*
X463207Y214199D01*
Y212200D01*
X462707Y211700D01*
X461707D01*
X461207Y212200D01*
M02*
